<?xml version="1.0" standalone="no"?>
<!DOCTYPE svg PUBLIC "-//W3C//DTD SVG 20010904//EN"
 "http://www.w3.org/TR/2001/REC-SVG-20010904/DTD/svg10.dtd">
<svg version="1.0" xmlns="http://www.w3.org/2000/svg"
 width="6001.000000pt" height="4001.000000pt" viewBox="0 0 6001.000000 4001.000000"
 preserveAspectRatio="xMidYMid meet">

<g transform="translate(0.000000,4001.000000) scale(0.100000,-0.100000)"
fill="#000000" stroke="none">
<path d="M23019 34366 c-2 -2 -83 -6 -179 -10 -383 -14 -527 -30 -586 -66 -20
-13 -55 -52 -79 -89 -53 -82 -69 -96 -122 -110 -47 -13 -88 -9 -296 25 -317
53 -422 39 -820 -107 l-168 -62 22 -23 c27 -29 146 -88 221 -109 40 -11 73
-30 109 -63 48 -43 149 -166 149 -182 0 -4 -62 12 -137 37 -305 98 -516 154
-626 166 -188 19 -442 -12 -673 -83 -211 -65 -284 -81 -476 -100 -191 -19
-342 -84 -618 -267 -167 -110 -402 -253 -630 -381 -69 -39 -142 -82 -163 -97
-75 -51 -34 -79 179 -126 76 -17 141 -32 143 -34 8 -8 -33 -101 -70 -161 -48
-76 -139 -164 -205 -197 -27 -13 -130 -52 -229 -85 -183 -61 -498 -184 -680
-265 l-100 -45 1 -45 c0 -33 12 -70 42 -130 36 -72 64 -109 188 -240 139 -147
151 -157 223 -188 86 -37 140 -68 160 -93 8 -10 33 -27 55 -39 38 -20 61 -22
311 -28 149 -4 297 -12 330 -17 33 -6 141 -16 240 -22 333 -20 534 -54 621
-105 75 -44 154 -181 317 -555 47 -107 122 -278 167 -380 45 -102 93 -214 106
-248 l25 -64 -52 -156 c-36 -110 -49 -164 -45 -186 4 -16 28 -60 55 -97 73
-100 74 -102 61 -165 -13 -61 -8 -92 27 -181 29 -72 25 -72 118 7 64 55 123
90 151 90 57 0 185 -99 231 -178 24 -40 28 -60 31 -144 3 -54 2 -108 -2 -122
-11 -43 -55 -84 -213 -198 -133 -95 -158 -117 -175 -154 -30 -69 -49 -189 -49
-314 0 -135 9 -169 108 -390 36 -80 85 -194 109 -254 62 -154 104 -229 276
-489 113 -171 163 -257 199 -343 80 -189 124 -237 244 -268 33 -8 141 -40 240
-69 339 -101 390 -106 444 -40 40 49 72 138 201 568 132 438 136 456 150 575
13 115 26 157 54 188 31 35 58 46 265 117 192 66 495 181 551 210 39 20 63 60
96 160 60 180 116 256 233 314 106 53 162 73 351 130 304 91 565 210 790 361
98 66 182 110 258 135 100 32 152 101 152 200 0 39 -15 100 -50 210 -84 259
-85 342 -10 502 23 50 54 143 72 213 53 219 90 278 258 412 112 90 166 145
181 185 18 47 9 110 -36 243 -59 177 -78 269 -70 345 5 54 1 74 -45 205 -27
80 -50 161 -50 181 0 42 33 156 60 209 27 52 67 85 143 119 98 44 95 56 -42
190 -71 69 -119 125 -137 161 -27 51 -29 62 -27 165 1 122 17 183 64 251 16
23 142 136 281 252 239 198 255 213 277 266 28 68 81 117 177 165 38 19 137
74 219 122 83 47 176 94 208 103 96 28 89 33 -158 106 -88 26 -184 53 -214 60
-79 19 -211 8 -296 -23 -38 -14 -107 -39 -153 -56 -76 -28 -128 -39 -347 -71
-107 -15 -244 -51 -390 -100 -65 -22 -120 -40 -121 -40 -1 0 6 16 16 36 21 40
18 77 -10 116 -25 34 -25 69 -1 116 30 58 123 165 200 229 38 32 70 62 70 66
3 24 -247 97 -558 163 -118 25 -280 60 -360 79 -200 47 -380 82 -481 95 -81
10 -272 14 -281 6z"/>
<path d="M17260 33889 c-138 -14 -235 -19 -525 -25 -165 -3 -316 -9 -335 -13
-63 -13 -49 -35 54 -84 53 -26 96 -49 96 -52 0 -3 -55 -3 -122 2 -329 21 -477
4 -768 -89 -115 -37 -146 -52 -160 -78 -26 -48 22 -80 265 -175 94 -37 195
-80 225 -96 l55 -29 -40 6 c-77 11 -361 77 -455 105 -52 15 -128 42 -169 58
-41 17 -83 31 -95 31 -11 0 -79 -18 -151 -40 -71 -22 -242 -70 -380 -106 -363
-95 -447 -133 -447 -198 0 -79 192 -212 402 -277 59 -19 97 -23 180 -23 106 1
266 22 373 50 33 8 64 13 69 12 6 -2 -23 -35 -63 -72 -41 -37 -65 -65 -54 -62
11 3 54 13 95 21 251 52 640 170 937 283 56 22 100 35 97 30 -10 -16 -318
-215 -404 -261 -183 -98 -511 -187 -793 -216 -48 -5 -94 -14 -102 -21 -42 -35
0 -93 117 -161 110 -64 398 -357 398 -404 0 -3 -17 3 -38 14 -162 83 -320 62
-477 -63 -129 -103 -177 -194 -127 -239 9 -9 66 -27 126 -42 127 -30 182 -52
215 -89 37 -39 105 -32 249 27 34 14 62 22 62 17 0 -14 -121 -108 -170 -132
-53 -26 -123 -28 -165 -6 -159 86 -142 80 -245 75 -106 -6 -156 -20 -171 -48
-14 -27 1 -49 75 -108 35 -28 66 -57 69 -65 9 -22 -30 -50 -153 -109 -115 -56
-141 -78 -154 -130 -5 -21 -1 -33 18 -52 52 -52 184 -61 600 -42 l308 15 70
36 c74 38 116 44 178 23 43 -15 62 -49 48 -88 -17 -50 -6 -61 44 -45 80 26
277 104 320 128 86 47 108 120 64 215 -27 57 -45 72 -128 103 -32 12 -60 25
-63 29 -6 10 25 69 93 180 41 67 52 93 52 126 0 24 6 47 13 52 6 6 62 20 122
31 190 38 283 102 347 238 26 57 30 73 26 131 -4 60 -7 68 -39 97 -20 17 -44
36 -55 42 -15 9 -1 12 75 18 51 4 116 14 145 21 74 20 344 157 394 200 47 41
102 116 102 139 0 22 -40 30 -117 23 -78 -6 -72 3 22 33 113 37 285 105 361
143 39 19 209 128 380 241 l309 206 -90 -7 c-200 -17 -565 -6 -565 17 0 5 26
12 58 15 119 14 448 66 532 85 137 31 243 67 291 101 24 17 79 54 122 82 52
33 74 53 65 58 -21 11 -361 76 -523 100 -148 21 -347 28 -540 19 -73 -4 -86
-2 -147 27 -99 46 -161 55 -288 42z"/>
<path d="M36493 33641 c-39 -11 -84 -26 -100 -35 -31 -16 -183 -178 -183 -195
0 -35 164 -15 337 40 96 31 266 109 277 128 38 61 -183 102 -331 62z"/>
<path d="M37563 33388 c-51 -35 -79 -60 -81 -75 -5 -33 -24 -43 -109 -58 -123
-22 -145 -33 -158 -87 -9 -35 3 -37 140 -21 223 27 365 87 365 154 0 21 -59
139 -70 139 -5 0 -44 -24 -87 -52z"/>
<path d="M36944 33315 c-83 -22 -218 -89 -242 -120 -28 -35 -28 -64 1 -106 23
-34 24 -34 95 -31 67 2 73 0 88 -23 9 -14 24 -25 33 -25 21 0 221 137 221 152
0 18 -89 147 -109 158 -24 12 -23 12 -87 -5z"/>
<path d="M36070 33310 c-50 -8 -140 -47 -140 -61 0 -14 74 -48 141 -65 74 -19
211 -21 263 -4 44 14 136 69 136 81 0 8 -5 9 -165 33 -145 21 -185 24 -235 16z"/>
<path d="M34870 33279 c-25 -3 -97 -19 -160 -36 -63 -17 -150 -39 -192 -48
-42 -9 -81 -22 -87 -29 -30 -36 117 -49 368 -33 216 13 340 -11 301 -58 -25
-30 -86 -54 -176 -70 -127 -22 -128 -31 -7 -47 107 -13 206 -7 231 15 10 10
25 36 31 60 7 23 20 50 28 59 22 25 94 45 203 58 106 12 195 34 224 55 27 20
7 40 -58 62 -43 13 -101 16 -356 17 -168 1 -325 -2 -350 -5z"/>
<path d="M41285 33199 c-87 -36 -115 -43 -210 -50 -129 -9 -115 -7 -115 -17 0
-5 17 -17 39 -26 24 -11 48 -34 67 -63 36 -58 69 -83 108 -83 36 0 164 59 253
116 32 20 92 53 133 73 41 20 76 41 78 46 3 10 -160 43 -218 44 -19 0 -80 -18
-135 -40z"/>
<path d="M42026 33177 c-12 -8 -17 -21 -13 -30 9 -23 -9 -32 -93 -51 -99 -22
-170 -63 -218 -129 -55 -73 -71 -86 -131 -97 -29 -5 -57 -13 -63 -16 -16 -10
-99 -190 -101 -220 -2 -22 8 -34 46 -62 43 -31 59 -36 132 -43 166 -15 237
-50 344 -170 81 -90 112 -104 300 -136 80 -13 167 -34 194 -45 42 -18 62 -20
182 -16 75 3 140 9 146 15 7 7 2 27 -18 64 -40 76 -39 163 2 236 l29 52 -23
25 c-38 40 -117 69 -174 63 l-49 -4 31 19 c17 11 31 23 31 28 0 4 -29 10 -65
13 -119 11 -192 60 -202 136 -8 56 15 88 73 102 25 6 43 17 41 23 -6 19 -144
120 -251 184 -123 74 -127 76 -150 59z"/>
<path d="M35650 33079 c-122 -20 -186 -57 -127 -73 12 -3 91 -14 174 -23 145
-16 156 -16 209 1 47 15 55 21 52 39 -7 52 -160 80 -308 56z"/>
<path d="M36350 33068 c-98 -9 -141 -26 -167 -65 -14 -20 -13 -24 10 -47 44
-44 152 -54 270 -25 41 11 44 15 22 39 -14 16 -9 18 75 29 49 7 92 17 95 21 7
11 -112 47 -170 53 -22 2 -83 0 -135 -5z"/>
<path d="M13946 32990 c-55 -18 -108 -65 -201 -179 -118 -147 -155 -206 -155
-248 0 -43 15 -49 132 -56 107 -6 118 -9 118 -37 0 -38 -90 -59 -257 -60 -33
0 -57 -6 -67 -16 -15 -14 -15 -18 1 -45 10 -16 52 -66 94 -111 l77 -81 138 6
c77 4 166 14 199 22 85 20 172 19 249 -6 66 -20 89 -40 69 -60 -6 -6 -77 -31
-158 -55 -211 -64 -273 -99 -242 -136 45 -55 259 -192 333 -214 49 -14 56 -14
111 6 98 35 194 36 349 4 27 -5 32 -3 37 18 8 32 157 265 192 301 18 17 54 35
99 48 116 33 141 44 144 61 5 25 -36 47 -144 78 -53 16 -101 33 -107 39 -6 6
-2 24 12 53 31 66 28 104 -11 128 -18 10 -54 24 -81 30 -68 14 -81 23 -177
114 -64 60 -100 87 -145 105 -89 35 -138 65 -218 135 -86 75 -149 118 -202
140 -48 21 -149 29 -189 16z"/>
<path d="M13002 32366 c-56 -19 -114 -41 -127 -50 -53 -35 -24 -70 102 -127
148 -67 219 -83 243 -54 18 21 8 171 -14 214 -17 31 -50 51 -84 51 -9 -1 -63
-16 -120 -34z"/>
<path d="M43060 32303 c-48 -18 -109 -76 -172 -161 -39 -54 -111 -137 -159
-185 -55 -55 -86 -93 -83 -102 3 -8 31 -24 62 -36 69 -25 111 -22 237 21 106
36 122 37 177 8 37 -20 58 -23 148 -22 164 0 330 43 330 85 0 19 -18 35 -145
126 -175 124 -165 119 -335 170 -8 3 12 15 46 28 34 13 76 31 95 41 l34 18
-40 7 c-47 9 -173 10 -195 2z"/>
<path d="M12371 32014 c-85 -29 -116 -50 -171 -115 -39 -46 -40 -49 -20 -59
11 -6 55 -13 97 -16 181 -12 287 -40 281 -73 -2 -8 -33 -24 -70 -37 -76 -26
-119 -53 -115 -73 1 -11 18 -14 74 -12 41 1 146 -9 245 -25 l173 -27 59 -59
c73 -73 110 -86 197 -69 83 17 109 28 109 46 0 8 -43 71 -95 139 -86 113 -103
129 -187 183 -118 76 -139 84 -216 81 l-63 -3 -68 73 c-65 69 -70 72 -112 71
-24 0 -77 -12 -118 -25z"/>
<path d="M13310 31874 c0 -22 32 -66 112 -152 98 -105 98 -107 39 -127 -27 -9
-52 -23 -55 -32 -7 -18 66 -90 100 -99 40 -10 247 91 329 160 l30 26 -31 29
c-18 16 -69 43 -115 61 -46 18 -116 50 -155 71 -127 70 -254 101 -254 63z"/>
<path d="M11585 31693 c-127 -19 -396 -111 -447 -153 -41 -34 -84 -100 -65
-100 7 0 44 9 82 20 38 11 88 20 109 20 24 0 56 10 84 26 42 25 50 26 131 20
110 -9 172 5 206 46 27 32 32 75 13 100 -14 18 -67 28 -113 21z"/>
<path d="M37850 31505 c-442 -234 -638 -314 -895 -365 -262 -51 -361 -103
-670 -351 -207 -166 -299 -256 -319 -312 -8 -23 -17 -87 -20 -142 -7 -132 -23
-176 -95 -250 -63 -64 -84 -99 -96 -155 -13 -62 -46 -112 -126 -196 -75 -78
-79 -85 -79 -127 0 -37 7 -55 43 -103 121 -164 309 -278 567 -345 96 -24 223
-30 258 -11 28 16 28 38 1 52 -27 15 -103 133 -139 217 -56 134 -74 224 -75
383 0 249 40 351 174 445 58 40 116 97 209 203 154 174 362 380 451 445 116
86 250 142 726 307 308 107 310 108 343 151 35 45 48 80 39 103 -3 8 -33 22
-66 31 -33 10 -70 28 -82 41 -12 13 -32 24 -43 24 -12 0 -59 -20 -106 -45z"/>
<path d="M43140 31520 c-97 -21 -157 -59 -202 -129 -35 -55 -35 -93 -3 -136
23 -29 24 -34 11 -48 -40 -40 -414 -130 -711 -171 -60 -8 -216 -24 -345 -36
-129 -11 -266 -24 -305 -30 -38 -5 -153 -19 -255 -30 -367 -41 -516 -91 -556
-185 -18 -45 -3 -107 66 -269 105 -244 96 -288 -66 -300 -254 -19 -842 -27
-936 -12 -56 8 -58 7 -58 -14 0 -35 90 -373 106 -397 10 -16 24 -23 47 -23 68
0 109 -20 171 -84 44 -44 67 -78 85 -123 13 -33 20 -66 17 -72 -13 -20 -112
-11 -212 18 -55 16 -160 46 -234 65 -74 20 -168 46 -209 60 -44 14 -88 22
-110 19 -47 -5 -153 -57 -197 -95 -66 -58 -38 -98 97 -143 55 -19 78 -30 71
-37 -6 -6 -73 -13 -149 -16 l-138 -5 -32 27 c-48 40 -56 104 -34 259 12 80 10
159 -6 226 -5 20 -8 15 -20 -30 -7 -30 -31 -83 -53 -119 -81 -134 -94 -168
-93 -250 1 -41 8 -115 17 -165 22 -125 20 -176 -14 -370 -35 -200 -36 -215
-11 -246 17 -22 28 -24 152 -30 117 -5 140 -9 185 -32 100 -51 184 -184 229
-362 14 -54 24 -100 22 -102 -2 -2 -24 32 -49 74 -66 113 -132 198 -179 233
-55 39 -110 56 -148 44 -42 -13 -160 -113 -168 -143 -4 -14 3 -43 17 -75 12
-28 31 -72 42 -97 13 -29 18 -56 14 -72 -9 -39 -96 -128 -228 -233 -65 -53
-133 -113 -150 -135 -36 -45 -54 -48 -158 -24 -128 30 -331 128 -299 145 8 4
64 12 125 19 273 28 410 108 482 283 58 138 44 189 -87 316 -55 53 -93 99 -98
117 -10 38 -10 106 1 326 l9 175 -31 110 c-53 188 -52 205 14 383 45 119 81
259 85 331 l4 55 -95 12 c-165 21 -331 31 -363 22 -42 -12 -86 -55 -109 -109
-11 -25 -33 -101 -50 -170 -34 -144 -56 -188 -138 -285 -70 -81 -120 -174
-120 -221 0 -24 12 -46 44 -84 46 -54 66 -110 66 -188 1 -59 32 -113 99 -171
76 -66 115 -132 137 -230 18 -80 15 -210 -6 -268 l-11 -31 -162 162 c-173 173
-246 229 -466 355 -206 117 -374 172 -468 151 -62 -14 -126 -52 -158 -94 -14
-18 -25 -36 -25 -39 0 -4 40 -36 89 -72 49 -36 91 -71 94 -78 11 -30 -25 -65
-131 -125 -60 -34 -116 -62 -123 -62 -30 0 -114 39 -117 54 -2 8 4 26 12 38 9
12 16 25 16 29 0 28 -131 7 -314 -51 -268 -84 -368 -90 -470 -27 -95 59 -159
60 -315 5 -105 -37 -151 -63 -376 -209 -99 -64 -199 -126 -223 -138 -24 -12
-72 -42 -107 -66 -69 -47 -153 -71 -210 -61 -76 15 -155 108 -155 183 0 46 26
63 97 63 101 0 100 16 -1 133 -53 61 -69 66 -119 40 -52 -27 -167 -143 -167
-169 0 -15 28 -55 78 -109 42 -48 85 -101 94 -118 25 -46 22 -113 -6 -173 -38
-82 -47 -85 -212 -78 -127 6 -148 5 -211 -15 -90 -27 -151 -80 -215 -188 -26
-44 -55 -86 -63 -93 -17 -14 -20 -62 -5 -91 9 -16 7 -21 -17 -30 -34 -13 -135
-6 -224 16 -60 15 -69 15 -102 1 -43 -17 -63 -57 -50 -96 5 -14 30 -39 57 -57
45 -29 106 -104 106 -129 0 -15 -14 -20 -120 -49 -98 -27 -112 -24 -252 46
-152 76 -175 114 -157 266 6 50 9 149 7 220 -5 171 -13 188 -173 354 -69 72
-124 133 -122 135 2 3 55 -15 118 -40 63 -24 177 -64 254 -88 77 -25 187 -67
245 -94 90 -42 116 -49 181 -52 137 -7 316 43 382 106 40 38 54 78 66 186 6
52 15 106 21 121 5 14 10 42 10 61 0 28 -6 38 -32 54 -17 10 -57 22 -87 25
-86 10 -203 41 -257 68 -27 14 -96 60 -154 102 -154 114 -219 142 -392 170
-169 27 -239 45 -348 86 -88 34 -140 70 -140 99 0 33 30 45 124 50 109 6 116
18 42 68 -62 41 -98 41 -195 -2 -72 -33 -137 -52 -171 -50 -56 2 -114 19 -152
44 -44 29 -94 87 -84 97 3 3 36 7 74 9 115 7 237 63 230 106 -3 22 -25 36
-203 120 l-110 52 -115 1 c-106 0 -119 -2 -172 -28 -36 -18 -97 -66 -169 -134
-62 -59 -114 -102 -116 -96 -10 29 50 112 181 251 94 100 92 110 -16 93 -40
-6 -98 -10 -130 -9 -72 2 -99 -15 -146 -94 -75 -123 -102 -142 -387 -268 -356
-157 -589 -333 -760 -575 -38 -55 -115 -156 -169 -225 -143 -180 -178 -238
-251 -405 -77 -176 -198 -398 -260 -477 -24 -31 -97 -101 -162 -155 -125 -106
-189 -171 -239 -243 -25 -37 -61 -63 -200 -145 -93 -56 -191 -112 -217 -125
-76 -39 -123 -90 -144 -157 -16 -51 -18 -95 -16 -383 1 -179 5 -350 8 -380 17
-141 183 -188 388 -110 115 43 265 217 324 375 27 72 43 94 43 58 0 -27 45
-114 75 -148 36 -39 42 -58 51 -146 10 -105 22 -133 139 -320 58 -93 109 -179
115 -193 5 -14 12 -60 15 -103 12 -146 38 -183 129 -183 76 0 106 32 141 155
18 66 39 92 131 166 74 59 88 87 103 201 28 211 110 332 283 417 93 45 148 96
148 136 0 37 -40 76 -138 133 -95 56 -116 74 -126 109 -9 30 59 374 83 421 27
52 57 77 221 182 194 124 235 155 259 194 30 48 26 84 -15 152 -52 83 -55 134
-16 217 33 71 90 140 133 163 41 21 96 17 179 -11 78 -26 148 -74 243 -164 71
-67 81 -84 68 -110 -11 -20 -60 -41 -96 -41 -28 0 -57 -33 -83 -93 -37 -85
-85 -138 -228 -253 -77 -62 -153 -130 -167 -152 -33 -47 -35 -97 -5 -155 33
-65 38 -104 26 -212 -16 -137 -5 -171 79 -242 47 -39 80 -57 134 -74 82 -25
102 -24 434 19 242 31 388 33 484 8 73 -20 144 -53 137 -64 -3 -5 -47 -4 -98
1 -123 11 -174 3 -210 -33 -22 -22 -27 -35 -22 -53 3 -14 1 -28 -4 -31 -6 -3
-91 -1 -190 6 -184 12 -289 7 -485 -23 -57 -8 -77 -15 -73 -25 10 -26 145
-202 168 -218 12 -9 40 -16 61 -16 51 0 55 -17 27 -109 -13 -42 -32 -107 -42
-146 -10 -38 -22 -73 -27 -78 -11 -11 -128 16 -173 39 -20 10 -38 33 -54 70
-23 53 -25 54 -64 54 -51 0 -103 -21 -124 -51 -9 -13 -16 -44 -16 -69 -1 -25
-7 -72 -15 -105 -20 -82 -19 -141 5 -203 13 -34 20 -76 20 -122 0 -90 -16
-110 -92 -110 -85 0 -123 -16 -196 -82 -36 -33 -76 -64 -87 -68 -51 -19 -225
-33 -341 -27 -150 7 -200 -6 -242 -61 -47 -62 -70 -82 -95 -82 -14 0 -68 23
-122 50 -97 49 -99 50 -191 50 -51 0 -116 -5 -144 -11 -67 -14 -87 -1 -145 98
-70 121 -88 185 -83 306 3 90 7 108 32 152 94 163 105 198 109 351 l2 89 -40
-2 c-22 -1 -90 -17 -151 -37 -145 -47 -167 -68 -172 -166 -5 -82 21 -334 49
-475 13 -65 35 -133 65 -196 24 -52 44 -100 44 -107 0 -20 -25 -29 -266 -91
-32 -9 -40 -15 -40 -33 1 -27 -24 -34 -166 -46 -93 -8 -114 -13 -155 -38 -58
-35 -83 -81 -83 -149 -1 -27 -7 -93 -14 -145 -9 -66 -10 -103 -3 -123 12 -37
2 -44 -73 -52 -152 -16 -220 -28 -267 -50 -65 -29 -77 -60 -45 -116 44 -76 22
-111 -95 -150 -88 -29 -104 -46 -97 -104 6 -42 5 -45 -20 -55 -35 -13 -170
-13 -217 0 -20 6 -53 21 -73 35 -43 29 -44 23 -9 -50 34 -69 29 -79 -57 -122
-96 -48 -123 -51 -154 -18 -26 28 -27 28 -122 22 -142 -8 -156 -37 -60 -124
26 -24 44 -48 41 -53 -4 -6 -23 -18 -43 -27 l-37 -17 95 -6 c150 -11 184 -33
216 -141 21 -72 51 -109 115 -143 72 -39 98 -63 104 -100 2 -17 10 -153 16
-302 9 -236 9 -275 -4 -307 -23 -54 -48 -55 -315 -8 -250 44 -282 47 -431 30
-81 -10 -119 -9 -212 4 -174 24 -246 29 -253 19 -3 -5 11 -30 30 -55 l36 -46
-15 -44 c-13 -38 -13 -76 -5 -263 15 -312 14 -333 -21 -480 -43 -182 -40 -244
13 -244 12 0 25 -2 28 -5 3 -3 -5 -47 -18 -98 -12 -50 -29 -119 -37 -152 -7
-33 -18 -69 -22 -79 -7 -16 -5 -18 11 -12 42 17 166 35 284 41 159 8 167 4
150 -78 -13 -67 -7 -97 22 -97 46 0 145 34 186 63 43 31 44 31 170 32 118 0
131 2 178 27 28 15 74 51 103 81 38 39 58 53 72 50 30 -8 123 70 156 131 8 16
19 54 23 85 4 31 11 69 15 84 6 24 4 29 -14 34 -33 9 -26 50 27 155 111 218
200 341 271 377 20 10 61 22 91 26 30 4 63 11 72 16 23 12 38 70 38 145 0 116
39 195 126 254 71 50 96 49 197 -4 48 -25 96 -46 107 -46 12 0 62 42 127 108
80 80 125 117 172 140 100 50 173 40 239 -32 51 -56 76 -105 92 -181 7 -33 18
-72 25 -86 11 -20 137 -150 256 -264 11 -11 31 -36 43 -55 17 -28 33 -39 81
-53 104 -32 125 -45 252 -165 115 -108 128 -124 174 -214 27 -54 49 -105 49
-114 0 -26 -79 -151 -116 -184 -43 -37 -105 -55 -262 -75 -129 -17 -172 -28
-172 -45 0 -15 57 -47 98 -55 71 -13 129 -52 169 -113 37 -55 40 -57 87 -60
27 -2 53 1 57 5 5 5 0 43 -11 88 -25 100 -25 104 7 170 28 57 51 70 60 35 11
-41 54 -12 99 67 37 65 53 82 97 104 32 17 37 24 37 53 0 18 -7 53 -15 76 -8
23 -15 61 -15 84 0 42 29 118 49 131 15 9 48 -13 108 -70 69 -66 81 -48 34 50
-35 73 -57 95 -188 179 -56 36 -118 80 -138 97 l-36 32 31 14 c47 19 32 37
-37 45 -95 10 -155 41 -209 107 -50 61 -104 160 -140 260 -24 65 -32 74 -119
127 l-50 30 0 95 c-1 52 -4 110 -9 131 -8 34 -7 37 24 53 18 10 57 25 85 35
l52 18 69 -58 c81 -66 116 -117 175 -252 60 -139 82 -161 182 -192 97 -30 222
-109 339 -213 154 -139 173 -179 148 -323 -26 -151 -28 -138 36 -215 57 -69
110 -169 135 -254 8 -28 25 -52 47 -70 19 -14 44 -33 55 -42 21 -17 21 -17 3
-87 -20 -78 -17 -106 20 -190 20 -45 27 -52 44 -47 15 5 30 -5 64 -39 34 -35
52 -46 75 -46 26 0 31 4 31 23 0 32 38 174 56 209 8 16 26 33 39 38 18 7 25
17 25 35 0 43 -27 95 -61 113 -79 43 -79 44 -79 153 0 91 -3 105 -30 160 -37
73 -44 147 -17 177 10 10 49 34 88 52 81 37 104 37 239 -3 47 -14 121 -34 165
-44 l79 -18 8 -39 c5 -22 11 -42 13 -45 3 -2 46 35 95 84 l90 88 84 -6 c78 -7
84 -6 92 14 9 19 -1 33 -73 108 -46 47 -87 97 -91 111 -4 14 -7 64 -7 112 l0
88 57 57 c53 54 58 63 72 133 8 41 16 95 18 120 3 42 6 46 43 63 64 29 88 74
95 176 5 79 9 91 44 141 21 30 61 78 88 105 l51 50 131 3 131 4 -24 -26 c-21
-22 -33 -26 -79 -26 l-55 0 22 -24 c27 -29 135 -56 222 -56 32 0 60 -3 62 -7
9 -15 -35 -92 -66 -116 -18 -13 -58 -38 -91 -54 l-59 -30 35 -21 c21 -13 52
-22 77 -22 l41 0 0 -48 c0 -28 7 -57 16 -71 15 -21 22 -23 75 -18 67 6 127 32
202 88 28 22 58 39 66 39 16 0 101 52 101 61 0 4 -14 9 -31 13 -17 3 -43 15
-57 26 -15 12 -49 35 -77 53 -47 30 -65 53 -79 102 -4 16 5 26 46 50 27 17 62
45 76 63 31 40 37 43 217 93 149 42 306 62 319 40 4 -6 2 -27 -4 -46 -14 -43
-48 -62 -124 -71 -31 -4 -63 -12 -72 -19 -19 -13 -25 -7 74 -75 23 -17 42 -34
42 -40 0 -5 -18 -15 -41 -21 -43 -13 -79 -50 -79 -81 0 -40 -19 -56 -90 -73
-66 -16 -100 -35 -100 -55 0 -36 113 -114 264 -184 67 -30 97 -53 190 -144 61
-60 141 -130 178 -155 77 -54 98 -85 128 -185 33 -108 25 -132 -58 -187 -93
-62 -165 -79 -332 -80 -127 0 -142 2 -257 37 -137 41 -163 53 -163 73 0 20
-32 35 -74 35 -47 0 -82 15 -124 51 l-34 30 -157 -3 c-181 -4 -184 -5 -250
-105 -46 -71 -39 -69 -248 -77 -67 -3 -132 -10 -143 -16 -33 -17 -24 -38 23
-51 23 -6 49 -13 57 -16 8 -2 -26 -22 -75 -45 -77 -34 -104 -41 -195 -49 -194
-17 -239 -40 -276 -135 -22 -58 -14 -79 29 -69 17 4 43 10 56 12 21 5 22 4 12
-15 -19 -36 -13 -170 14 -281 14 -57 29 -110 34 -119 5 -8 42 -49 82 -89 88
-88 190 -144 298 -164 63 -11 76 -10 105 4 28 13 35 23 41 56 4 23 11 43 16
46 10 7 141 -30 181 -51 14 -8 42 -30 61 -51 35 -36 37 -37 125 -41 57 -3 97
0 111 7 12 7 32 36 45 65 32 71 47 76 123 38 26 -13 38 -14 71 -4 22 7 49 12
62 12 18 0 21 -4 16 -22 -28 -97 -30 -121 -18 -216 15 -120 11 -143 -68 -388
-66 -206 -118 -323 -180 -405 -55 -73 -75 -82 -207 -87 -150 -6 -175 0 -234
55 -43 40 -53 45 -80 39 -17 -3 -48 -20 -69 -36 -121 -96 -247 -101 -489 -20
-92 31 -134 40 -187 40 -62 0 -69 2 -93 30 -19 21 -60 42 -144 75 -66 25 -125
45 -133 45 -8 0 -23 20 -34 45 -24 56 -36 59 -199 52 -172 -7 -180 -11 -237
-110 -52 -90 -56 -112 -25 -155 11 -17 21 -38 21 -49 0 -22 -52 -114 -75 -133
-27 -22 -118 2 -185 48 -79 56 -87 59 -196 83 -131 28 -165 47 -213 117 -77
112 -98 130 -192 161 -47 16 -113 34 -145 41 -92 18 -151 39 -254 90 -144 70
-245 135 -248 158 -2 13 20 46 61 93 103 118 106 136 52 243 -19 39 -35 76
-35 83 0 20 49 115 73 141 29 31 16 41 -111 86 l-103 36 -45 -31 c-95 -65
-140 -71 -293 -39 -150 32 -159 29 -233 -58 l-26 -32 -73 30 c-40 17 -78 35
-86 42 -32 26 -207 -14 -453 -105 -159 -58 -275 -113 -405 -192 -69 -41 -130
-75 -135 -75 -6 0 -30 10 -52 21 -51 26 -121 29 -201 10 -55 -14 -60 -13 -103
7 -25 12 -66 42 -92 66 -75 69 -93 53 -162 -139 -67 -190 -64 -186 -246 -290
-179 -103 -211 -128 -217 -176 -3 -19 -21 -148 -40 -287 -20 -140 -41 -260
-48 -268 -7 -9 -45 -32 -83 -51 -75 -38 -204 -123 -298 -197 -69 -55 -93 -89
-203 -292 -48 -87 -90 -163 -95 -169 -4 -5 -49 -84 -99 -174 -94 -167 -195
-326 -236 -371 -49 -54 -49 -59 -10 -213 20 -78 54 -196 75 -262 47 -149 64
-230 58 -286 -3 -25 -39 -119 -85 -219 -120 -264 -113 -231 -62 -288 24 -27
77 -109 117 -183 41 -74 105 -174 142 -224 77 -101 220 -334 287 -467 58 -115
178 -249 266 -298 35 -19 88 -56 117 -82 30 -27 86 -64 125 -84 38 -20 113
-68 166 -105 166 -119 194 -122 369 -39 169 80 215 84 461 40 162 -28 197 -22
375 71 126 66 172 81 354 119 63 13 319 26 366 19 42 -7 48 -13 192 -186 42
-51 89 -98 105 -104 20 -9 78 -10 200 -6 l171 6 28 -32 c16 -18 51 -61 79 -97
60 -77 59 -53 11 -385 -17 -115 -33 -253 -37 -306 -6 -93 -6 -98 21 -140 14
-24 46 -66 69 -94 23 -27 55 -70 71 -95 61 -95 132 -173 186 -201 34 -17 40
-27 63 -101 14 -46 35 -133 45 -196 33 -190 123 -549 169 -674 16 -43 21 -81
21 -147 0 -122 -30 -215 -115 -353 -65 -107 -65 -107 -65 -182 0 -41 -9 -121
-20 -178 -11 -57 -24 -143 -30 -193 -6 -49 -15 -110 -20 -135 -6 -33 -5 -51 5
-70 8 -14 34 -66 58 -115 24 -50 70 -134 101 -188 31 -53 76 -138 100 -189 40
-86 58 -130 116 -278 15 -39 33 -149 60 -371 22 -174 43 -325 46 -335 14 -37
47 -76 99 -114 68 -50 132 -152 200 -319 29 -70 70 -160 93 -201 48 -90 53
-109 57 -249 4 -127 12 -149 94 -236 31 -34 70 -77 88 -98 38 -45 63 -47 228
-17 61 12 198 31 305 45 125 15 214 31 249 45 68 27 196 56 281 65 84 9 93 15
134 80 20 30 57 70 83 90 26 19 94 70 151 112 119 88 120 89 243 288 131 213
162 257 228 322 l58 58 6 180 c4 99 10 200 13 223 8 51 14 55 217 122 154 50
182 74 193 158 3 31 13 98 21 147 27 163 28 151 -23 260 -25 55 -57 128 -71
162 l-26 62 67 98 c36 54 117 151 178 215 l113 117 105 41 c259 103 298 134
354 280 64 170 69 207 62 460 -7 290 -21 346 -115 453 -17 18 -40 64 -52 101
-22 66 -22 67 -4 151 23 112 17 139 -50 214 -30 34 -55 64 -55 67 0 3 9 18 19
33 11 15 23 40 27 57 8 34 41 88 99 164 23 30 60 87 82 125 61 107 155 237
293 405 69 83 154 191 190 239 70 95 93 117 276 258 198 153 261 224 368 421
31 56 101 171 155 255 117 179 215 359 259 472 17 44 52 132 77 197 47 122 55
171 30 186 -19 10 -224 -34 -580 -124 -143 -37 -282 -71 -310 -76 -27 -5 -68
-13 -90 -18 -39 -9 -44 -6 -146 61 -58 38 -120 84 -138 103 l-32 33 11 82 c11
80 10 84 -14 126 -14 24 -61 76 -105 117 -43 40 -90 91 -104 114 -21 34 -36
45 -89 64 -100 37 -155 67 -177 98 -11 16 -38 78 -60 138 -21 60 -53 138 -70
174 -17 36 -31 70 -31 76 0 5 -36 43 -79 82 -51 46 -83 84 -89 104 -6 18 -12
92 -15 163 -3 80 -11 155 -22 195 -16 57 -27 74 -90 140 -85 88 -101 117 -148
267 -26 81 -79 198 -193 420 -86 170 -162 315 -170 323 -27 31 -66 131 -70
182 -4 43 -1 60 16 87 19 30 23 32 36 19 8 -8 30 -57 50 -109 19 -51 41 -104
50 -116 32 -50 81 -18 134 86 17 35 36 61 43 58 7 -2 15 -26 18 -54 7 -56 42
-130 120 -255 29 -46 97 -168 152 -273 115 -221 146 -269 226 -356 32 -35 67
-82 78 -104 34 -68 74 -213 84 -307 5 -49 13 -97 18 -107 6 -10 40 -35 76 -57
80 -46 98 -67 210 -253 190 -317 225 -403 260 -649 9 -63 27 -149 41 -192 24
-73 28 -80 60 -90 50 -17 97 -5 201 51 105 56 149 69 339 99 77 12 148 27 159
33 23 12 54 48 55 63 0 21 30 36 97 51 60 12 322 111 395 149 14 7 29 22 32
31 3 10 31 38 62 62 61 48 150 81 218 81 54 0 69 12 102 84 35 74 66 95 262
170 l149 58 6 80 c4 45 16 112 28 150 l22 68 18 -30 c10 -16 26 -30 36 -30 18
0 100 83 139 140 20 30 74 170 74 193 0 4 -20 17 -44 28 -50 22 -72 50 -85
110 -5 23 -13 45 -18 49 -11 10 -252 117 -283 125 -60 17 -89 78 -90 186 0
113 -28 127 -68 36 -23 -52 -158 -188 -219 -220 -55 -29 -174 -47 -309 -47
-145 0 -138 -6 -154 124 -10 78 -54 246 -65 246 -2 0 -2 -35 2 -77 4 -61 2
-87 -11 -118 l-17 -40 -25 40 c-59 96 -99 172 -130 252 -22 57 -51 107 -88
152 -29 36 -61 84 -70 105 -9 22 -36 62 -60 90 -42 49 -76 105 -76 124 0 5 27
44 61 86 l61 76 112 0 112 0 32 -33 c21 -22 42 -62 61 -120 16 -48 42 -110 57
-137 32 -60 105 -130 134 -130 12 0 52 -32 98 -78 106 -107 139 -117 389 -117
211 0 222 -4 255 -93 25 -66 48 -79 175 -93 54 -6 121 -19 148 -29 246 -90
253 -91 395 -102 160 -11 202 -5 330 48 61 25 116 40 195 50 61 8 126 17 146
20 35 6 37 4 62 -41 15 -26 43 -88 63 -138 20 -51 43 -100 51 -109 8 -9 45
-29 81 -43 37 -15 91 -40 120 -57 52 -29 54 -30 148 -23 90 7 96 6 92 -11 -5
-27 -85 -64 -168 -77 -38 -6 -70 -14 -70 -19 0 -5 43 -54 96 -108 118 -121
150 -137 249 -121 37 5 74 16 82 23 8 7 28 38 43 70 29 59 96 148 111 148 5 0
9 -137 9 -308 0 -400 18 -617 62 -749 35 -107 163 -366 355 -718 72 -132 155
-288 184 -347 29 -59 60 -110 67 -113 32 -12 169 93 222 170 19 27 36 71 45
117 20 97 61 220 97 292 46 92 59 176 57 367 -3 200 -1 204 96 243 122 49 175
93 450 371 94 95 226 221 295 281 154 132 163 145 148 202 -7 30 -8 46 0 54 6
6 73 16 150 24 253 23 328 44 427 119 34 26 69 44 80 43 20 -3 25 -11 95 -157
43 -88 101 -160 191 -236 87 -72 119 -122 175 -265 41 -107 41 -119 -3 -264
l-27 -89 22 -18 c27 -21 136 -35 173 -21 41 16 88 61 141 136 27 39 54 71 60
71 29 0 146 -397 189 -643 43 -242 43 -343 0 -521 -21 -85 -30 -144 -26 -163
9 -40 54 -89 149 -161 100 -75 203 -173 222 -209 8 -15 28 -85 45 -155 64
-271 96 -333 224 -430 81 -62 258 -156 283 -151 25 5 17 32 -32 108 -55 86
-71 128 -101 268 -34 160 -50 217 -68 242 -24 35 -124 117 -213 176 -76 50
-83 58 -113 124 -19 40 -44 111 -57 158 -29 106 -49 136 -95 140 -19 2 -39 8
-45 13 -20 17 -23 76 -9 184 14 108 37 165 75 185 29 16 50 73 50 139 0 76 20
101 81 101 37 0 40 -2 33 -22 -19 -57 -17 -58 126 -107 209 -72 278 -111 370
-208 108 -114 132 -166 129 -284 -1 -49 0 -92 3 -94 2 -3 27 14 55 38 27 23
87 69 133 102 159 115 339 308 388 414 23 50 24 62 19 155 -17 268 -79 382
-383 703 l-136 143 27 79 c33 99 67 137 191 209 51 30 113 73 140 96 87 76
159 99 242 77 69 -19 83 -40 80 -117 -3 -56 0 -68 17 -80 35 -26 50 -14 55 48
3 33 12 64 21 73 25 26 231 91 389 124 166 34 226 54 325 104 146 73 412 262
487 345 40 45 83 125 353 647 31 61 64 116 73 122 20 16 10 37 -58 117 -27 32
-56 79 -65 104 -21 64 -19 181 5 268 17 60 19 80 10 119 -19 87 -102 219 -214
342 -31 33 -56 68 -56 77 0 21 175 197 307 310 109 92 132 128 98 153 -30 21
-196 17 -280 -7 -83 -24 -126 -25 -164 -6 -66 34 -229 256 -216 295 9 29 92
75 202 111 94 32 156 70 265 162 127 107 176 123 228 73 26 -24 30 -36 30 -79
0 -62 17 -125 35 -132 7 -3 36 6 64 20 78 40 199 30 285 -24 44 -26 49 -43 37
-118 -18 -113 16 -185 93 -197 50 -9 73 -20 109 -53 43 -40 37 -75 -23 -134
-27 -27 -50 -53 -50 -57 0 -4 10 -16 21 -27 46 -41 53 -77 55 -284 l2 -195 59
1 c66 1 143 30 185 71 57 54 128 274 128 395 0 92 -23 154 -113 301 -75 123
-119 204 -131 244 -5 17 7 37 64 102 39 44 100 103 136 132 75 59 106 108 139
217 32 104 84 182 181 270 84 76 132 106 158 96 9 -3 26 -22 38 -42 57 -93
117 -106 229 -50 101 51 478 434 583 593 68 102 304 579 325 655 11 41 34 152
51 245 40 220 54 285 96 430 48 167 57 233 44 308 -15 78 -40 127 -98 190 -64
69 -189 167 -213 167 -17 0 -19 -7 -19 -66 0 -62 -16 -152 -29 -165 -3 -4 -52
-3 -108 1 -125 9 -161 28 -191 98 -11 26 -23 65 -27 87 -11 71 -29 83 -150
105 -112 20 -111 18 -10 114 89 86 167 143 340 249 78 48 139 104 440 403
l349 347 80 -6 c45 -4 176 -16 291 -27 116 -11 217 -20 227 -20 9 0 35 -16 58
-35 62 -52 110 -45 188 27 44 40 45 40 101 35 77 -9 360 -65 380 -77 14 -8 14
-9 -4 -16 -73 -25 -108 -45 -98 -55 26 -26 411 -41 470 -18 l28 10 -43 37
c-23 20 -42 44 -42 53 0 28 76 134 151 213 139 147 277 216 529 266 99 20 179
42 222 62 58 26 70 29 84 17 14 -11 15 -25 9 -84 -12 -112 -11 -127 6 -138 29
-19 91 23 204 139 61 61 120 117 132 123 25 13 86 14 198 4 l77 -6 -45 -17
c-25 -10 -62 -27 -81 -40 l-36 -22 0 -77 c0 -140 -36 -186 -273 -355 -262
-185 -345 -260 -393 -351 -13 -24 -78 -60 -338 -185 -126 -61 -206 -105 -218
-121 -36 -48 -43 -138 -30 -391 7 -139 20 -273 31 -333 101 -524 250 -707 412
-503 45 58 114 193 158 315 58 158 89 204 184 272 70 51 117 113 157 208 32
76 140 462 140 500 0 17 -17 30 -85 63 -134 66 -143 112 -39 211 118 113 467
309 592 332 32 6 32 6 32 -36 0 -93 24 -109 83 -57 50 43 114 70 173 70 28 0
108 -16 178 -35 71 -19 137 -35 149 -35 12 0 46 17 77 39 79 55 312 181 448
241 144 64 254 117 350 170 65 36 80 40 141 40 38 0 93 -5 122 -10 73 -15 196
-15 213 0 12 9 8 22 -24 78 -21 37 -51 99 -66 137 -24 61 -40 83 -125 167 -84
85 -95 99 -76 102 313 59 365 77 402 140 13 23 33 67 45 99 27 73 42 87 91 87
39 0 39 0 39 -40 0 -46 21 -95 45 -104 9 -3 58 -6 108 -6 165 -1 219 -25 266
-118 16 -32 37 -65 48 -74 24 -22 86 -48 114 -48 12 0 84 -25 160 -55 75 -30
139 -55 141 -55 2 0 2 17 0 39 -3 28 4 52 26 92 17 30 36 80 43 112 9 45 16
56 28 52 86 -26 245 -29 344 -6 70 16 68 18 -79 116 -133 89 -261 158 -389
210 -219 89 -392 170 -420 195 -90 81 -245 184 -470 310 -82 47 -235 141 -340
210 -285 188 -298 193 -700 261 -132 22 -285 49 -340 59 -55 10 -135 21 -177
25 -65 6 -79 5 -84 -8 -3 -9 19 -66 49 -129 68 -141 71 -152 52 -168 -8 -7
-54 -15 -104 -18 -80 -4 -93 -2 -130 19 -23 13 -67 54 -97 91 -30 37 -74 81
-98 97 l-43 30 -154 -6 c-175 -6 -302 6 -370 36 -45 20 -66 20 -139 1 -63 -18
-159 -11 -294 21 -204 48 -219 60 -198 156 29 134 21 196 -31 238 -18 14 -82
41 -147 61 -63 20 -169 54 -235 77 l-120 42 -150 -1 c-127 -1 -165 -5 -250
-28 -55 -14 -117 -26 -138 -26 -79 0 -148 57 -208 172 -19 35 -60 89 -92 121
-49 49 -84 70 -244 148 -114 55 -228 102 -293 121 -58 17 -145 48 -195 68
-107 45 -592 180 -647 180 -21 0 -53 -6 -71 -14 -36 -15 -147 -127 -147 -148
0 -8 20 -53 45 -100 72 -137 61 -165 -71 -193 -112 -24 -207 -19 -341 16 -138
37 -306 49 -403 30 -72 -14 -82 -10 -162 65 -47 45 -63 54 -92 54 -49 0 -99
-51 -151 -154 -25 -49 -51 -85 -69 -96 -26 -17 -32 -17 -80 -3 -68 20 -136 56
-162 85 -54 58 -88 171 -88 288 0 68 4 83 44 165 56 115 61 159 26 219 -14 24
-43 58 -65 75 -25 20 -50 54 -67 91 -37 80 -60 90 -201 90 -152 0 -431 -20
-473 -34 -27 -9 -41 -23 -60 -61 -14 -28 -36 -55 -51 -62 -41 -20 -189 -31
-409 -31 -411 0 -479 34 -322 161 39 32 72 62 72 67 0 16 -33 19 -247 21 -297
3 -451 19 -593 60 -107 32 -125 34 -250 33 -128 -1 -146 -4 -335 -52 -110 -28
-267 -69 -349 -92 -82 -22 -151 -39 -153 -36 -3 2 23 26 57 53 42 33 81 77
124 143 108 163 202 233 521 389 173 85 402 232 463 298 29 31 29 85 0 178
-18 56 -31 78 -68 112 -228 211 -273 233 -581 287 -162 29 -215 32 -222 14 -7
-21 22 -71 62 -105 20 -17 33 -34 29 -38 -10 -11 -188 -13 -269 -3 -78 9 -164
41 -173 64 -13 34 5 46 128 87 22 8 41 18 43 24 3 7 -43 22 -109 37 -124 30
-195 57 -204 80 -9 24 13 53 61 76 25 12 45 26 45 30 0 27 -277 49 -370 30z
m-7363 -8600 l45 -65 -7 -77 c-6 -63 -4 -83 9 -103 24 -36 78 -47 156 -31 36
8 66 13 68 11 9 -8 -123 -103 -132 -96 -6 5 -33 11 -61 15 -326 40 -369 41
-380 5 -8 -23 27 -83 61 -106 13 -8 24 -19 24 -24 0 -12 -66 -11 -108 0 -20 6
-32 6 -32 0 0 -6 18 -42 39 -82 22 -40 45 -94 51 -122 23 -104 80 -171 168
-198 l59 -18 -8 -42 c-13 -67 -10 -218 5 -252 12 -27 14 -28 20 -10 25 71 43
109 58 119 27 16 68 -21 88 -79 10 -28 29 -74 44 -104 19 -37 24 -57 17 -64
-6 -6 -43 -13 -84 -16 -97 -8 -127 -27 -127 -82 0 -46 17 -84 54 -118 32 -30
43 -65 51 -166 13 -150 42 -277 87 -383 43 -100 37 -106 -114 -110 -127 -4
-230 8 -373 45 -112 29 -141 41 -204 89 -24 19 -60 36 -80 39 -95 16 -99 31
-46 178 28 77 35 113 35 170 1 93 11 138 59 245 22 48 43 112 47 142 8 66 19
90 42 90 29 1 -12 26 -145 91 -107 52 -125 64 -142 97 -25 48 -46 123 -76 262
-25 119 -22 114 -127 225 l-47 50 57 30 c79 41 129 94 143 150 11 44 47 85 73
85 20 0 62 51 83 100 34 77 83 112 204 144 l106 28 67 -21 67 -21 57 25 c82
36 97 31 149 -45z"/>
<path d="M14355 31470 c-109 -36 -217 -57 -349 -65 -103 -7 -262 -36 -293 -53
-16 -10 -15 -11 7 -16 68 -14 402 -28 511 -22 153 8 216 22 246 52 20 20 24
32 21 77 -3 47 -5 52 -28 54 -14 2 -65 -11 -115 -27z"/>
<path d="M11425 31406 c-138 -22 -314 -91 -316 -124 -5 -87 33 -187 76 -198
30 -7 155 21 246 55 66 25 139 75 139 95 0 8 -31 25 -76 42 -86 31 -85 33 31
69 85 26 129 50 120 66 -8 12 -123 10 -220 -5z"/>
<path d="M12162 31328 c-17 -17 -15 -32 9 -88 17 -41 27 -50 65 -65 25 -9 67
-32 95 -50 l49 -34 15 29 c8 16 15 33 15 38 0 4 -37 47 -83 95 -73 77 -87 87
-118 87 -19 0 -40 -5 -47 -12z"/>
<path d="M10828 31313 c-21 -8 -38 -18 -38 -22 0 -21 124 -62 188 -62 68 -1
79 9 51 45 -43 54 -127 70 -201 39z"/>
<path d="M13537 31133 c-11 -18 108 -215 142 -232 27 -15 84 -13 156 4 159 39
229 13 323 -118 99 -137 100 -145 41 -199 -40 -37 -41 -40 -37 -90 3 -33 18
-80 39 -123 30 -62 40 -73 84 -95 l50 -25 330 3 c388 2 899 19 1005 33 96 12
170 47 295 141 126 93 155 127 155 178 0 31 -6 44 -37 71 -77 67 -278 139
-388 139 -29 0 -113 -15 -186 -34 -74 -19 -159 -37 -189 -41 -78 -9 -117 -23
-177 -62 -41 -28 -67 -37 -130 -45 -43 -5 -96 -16 -119 -24 -38 -14 -45 -14
-105 6 -150 49 -353 169 -335 198 3 5 25 12 48 16 74 11 108 26 108 46 0 23
-101 114 -160 145 -67 34 -100 38 -202 24 -92 -11 -94 -11 -193 19 -55 17
-138 38 -185 47 -107 20 -325 32 -333 18z"/>
<path d="M10526 31116 c-21 -8 -50 -26 -65 -40 -14 -14 -53 -33 -86 -44 -125
-39 -312 -176 -437 -319 -44 -51 -94 -103 -111 -115 -18 -11 -49 -37 -69 -57
-30 -28 -38 -42 -38 -71 1 -72 52 -100 139 -74 67 19 106 38 145 71 23 19 36
23 63 18 18 -3 42 -1 52 5 11 5 66 62 122 126 127 145 223 220 184 143 -9 -16
-15 -47 -13 -67 2 -30 9 -40 33 -51 55 -26 153 17 206 90 16 23 23 50 26 103
6 94 17 119 71 166 45 38 46 39 28 59 -25 27 -108 61 -164 67 -28 2 -63 -2
-86 -10z"/>
<path d="M13150 30969 c-19 -5 -77 -14 -129 -19 -100 -10 -130 -24 -97 -44 68
-41 123 -112 137 -177 5 -23 8 -44 5 -46 -2 -3 -41 25 -86 61 -129 105 -154
120 -197 113 -54 -9 -69 -28 -53 -66 9 -24 21 -32 49 -37 41 -8 51 -18 51 -57
0 -33 2 -32 -123 -44 -64 -7 -104 -15 -113 -25 -14 -14 -10 -16 34 -22 28 -3
56 -13 63 -22 40 -48 115 -54 294 -25 61 10 111 18 113 16 1 -1 -15 -22 -36
-46 -74 -84 -90 -144 -51 -193 25 -31 33 -32 91 -6 25 11 81 24 125 28 80 9
142 31 164 58 9 11 9 21 0 40 -6 14 -11 54 -11 90 l0 65 30 -21 c35 -25 35
-26 10 70 -11 41 -20 92 -20 113 0 55 -29 175 -47 192 -17 17 -143 19 -203 4z"/>
<path d="M10912 30901 c-103 -35 -94 -64 23 -69 69 -4 76 -2 100 22 21 21 24
29 15 46 -14 26 -65 26 -138 1z"/>
<path d="M11600 30836 c-38 -47 -75 -97 -80 -111 -16 -43 6 -73 90 -120 102
-57 167 -151 128 -183 -19 -14 -327 -22 -365 -8 -17 6 -47 25 -67 43 -30 27
-35 37 -30 62 9 42 -26 71 -139 116 -80 32 -102 37 -169 36 -134 -2 -312 -79
-380 -164 -44 -57 -107 -181 -115 -229 -6 -42 10 -57 102 -91 101 -37 134 -41
206 -23 81 21 136 61 169 122 15 26 31 49 37 51 19 7 36 -38 35 -94 0 -65 8
-67 107 -24 62 28 163 51 221 51 32 0 22 -9 -79 -70 -85 -50 -229 -103 -370
-135 -44 -11 -71 -21 -68 -28 6 -20 79 -55 150 -73 117 -28 153 -19 387 105
41 22 138 66 215 97 135 54 142 56 206 50 58 -6 76 -3 150 24 46 17 110 35
143 40 92 15 99 23 145 164 40 121 49 178 33 203 -12 19 -60 33 -113 33 -74 0
-93 -24 -109 -133 -7 -48 -14 -87 -16 -87 -2 0 -10 12 -18 28 -8 15 -44 68
-79 118 -36 50 -89 131 -118 180 -59 100 -89 134 -118 134 -13 0 -45 -30 -91
-84z"/>
<path d="M12393 30900 c-47 -24 -52 -38 -27 -75 9 -13 22 -44 28 -67 17 -55
42 -68 133 -68 60 0 76 4 97 23 59 51 33 129 -56 175 -67 35 -123 38 -175 12z"/>
<path d="M13738 30578 c-80 -43 -191 -150 -186 -180 5 -39 230 -138 314 -138
44 0 112 28 124 51 33 60 -6 205 -70 263 -53 47 -101 48 -182 4z"/>
<path d="M48370 30574 c-44 -19 -197 -173 -205 -207 -4 -15 -4 -38 -1 -52 11
-44 196 -253 248 -281 57 -30 133 -7 211 63 34 30 42 33 70 26 44 -11 166 -6
260 10 l77 14 6 -38 c4 -21 15 -46 26 -55 18 -17 22 -17 92 4 158 46 188 61
249 124 31 33 57 63 57 68 0 11 -323 213 -430 268 -47 24 -100 44 -119 45 -38
2 -45 -7 -76 -95 -10 -28 -23 -48 -31 -48 -8 0 -86 36 -172 80 -165 84 -208
96 -262 74z"/>
<path d="M10369 30504 c-79 -53 -177 -134 -195 -161 -23 -36 -4 -53 61 -53 67
0 104 28 130 97 10 26 29 70 41 97 13 27 22 51 20 53 -2 2 -27 -13 -57 -33z"/>
<path d="M12415 30413 c-31 -8 -64 -43 -75 -81 -16 -60 -1 -64 101 -31 72 24
99 43 99 70 0 37 -60 57 -125 42z"/>
<path d="M38322 30248 c-20 -20 -13 -62 17 -99 36 -43 129 -90 184 -92 39 -2
42 0 45 25 5 38 -60 105 -141 146 -70 35 -87 38 -105 20z"/>
<path d="M49589 30207 c-19 -12 -38 -35 -43 -50 -9 -24 -6 -32 25 -63 37 -39
166 -128 239 -165 66 -33 121 -38 255 -23 143 17 176 27 220 65 29 26 55 82
43 95 -15 14 -253 34 -337 28 l-93 -7 7 32 c6 29 4 32 -31 47 -26 11 -57 15
-94 12 -50 -5 -57 -3 -81 23 -33 35 -65 37 -110 6z"/>
<path d="M14027 30040 c-86 -22 -177 -94 -177 -140 0 -17 -7 -20 -39 -20 -21
0 -44 -6 -50 -14 -7 -8 -26 -72 -43 -143 -31 -134 -32 -143 -8 -313 6 -47 12
-145 13 -218 l2 -134 -28 -21 c-89 -68 -87 -64 -87 -185 0 -144 17 -308 36
-344 22 -43 72 -59 214 -69 69 -4 126 -8 127 -8 1 -1 9 -8 17 -17 25 -25 19
-40 -24 -54 -60 -20 -120 -75 -120 -111 0 -23 5 -30 28 -35 62 -13 72 -22 72
-61 0 -90 -82 -183 -179 -204 -31 -7 -60 -16 -65 -20 -13 -12 -8 -147 8 -206
8 -29 11 -53 7 -53 -12 0 -94 61 -138 104 -52 48 -55 77 -19 166 l25 60 -21
11 c-26 14 -160 38 -214 39 -28 0 -50 -7 -69 -22 -34 -26 -85 -132 -85 -174 0
-58 -5 -59 -283 -46 -201 9 -267 16 -327 33 -41 11 -106 28 -145 37 -65 15
-74 20 -136 83 -36 37 -81 77 -100 88 -41 25 -117 28 -178 6 -41 -14 -241
-124 -241 -132 0 -2 13 -21 30 -41 16 -21 34 -58 39 -82 5 -25 19 -81 31 -125
15 -58 20 -95 15 -135 -3 -32 -1 -69 6 -88 6 -18 9 -35 6 -38 -12 -13 -83 67
-153 172 -84 127 -118 160 -171 170 -22 4 -111 -4 -232 -22 -224 -32 -368 -35
-506 -11 -109 20 -165 35 -165 45 0 5 39 21 88 36 103 33 132 50 132 76 0 29
-52 82 -112 116 -49 27 -61 29 -153 29 -156 1 -399 51 -627 129 -208 71 -302
92 -372 82 -39 -6 -46 -10 -41 -25 10 -32 -6 -50 -58 -69 -80 -30 -122 -35
-137 -17 -7 8 -10 22 -6 30 3 8 1 26 -4 40 -20 53 -86 17 -119 -64 -8 -17 -20
-31 -29 -31 -9 0 -88 72 -177 160 -88 88 -164 160 -167 160 -3 0 -29 -42 -56
-93 -28 -51 -58 -99 -69 -108 -10 -9 -70 -39 -133 -67 -63 -27 -171 -75 -240
-105 -69 -30 -136 -58 -150 -62 -34 -9 44 44 200 135 174 102 189 112 196 134
8 25 -12 35 -55 29 -54 -8 -108 -34 -293 -140 -216 -123 -225 -126 -327 -111
-76 11 -83 11 -108 -8 -15 -11 -47 -53 -72 -94 -37 -59 -56 -79 -93 -98 l-47
-24 -153 60 c-168 65 -259 96 -328 111 -81 17 -371 35 -760 46 -270 7 -473 15
-570 20 -47 3 -141 7 -210 10 -196 9 -283 22 -298 42 -60 85 -81 110 -102 121
-25 13 -63 12 -346 -4 -95 -6 -103 -5 -154 21 -68 34 -106 30 -184 -20 -69
-44 -134 -74 -386 -180 -102 -42 -210 -92 -241 -111 -70 -42 -150 -126 -218
-229 -68 -101 -99 -134 -187 -200 -94 -70 -134 -114 -134 -146 0 -31 21 -51
108 -104 57 -34 68 -46 78 -81 36 -124 71 -147 248 -160 88 -7 90 -8 130 -49
23 -23 50 -47 61 -53 20 -12 19 -12 -5 -32 -62 -51 -192 -132 -235 -146 -62
-22 -118 -6 -200 56 l-62 47 -144 -78 c-79 -43 -152 -83 -162 -89 -27 -16 -20
-49 19 -93 35 -38 36 -43 31 -93 -7 -67 3 -78 81 -95 89 -19 181 -1 387 76
194 72 258 83 295 50 30 -27 25 -42 -30 -81 l-49 -35 38 -48 c43 -56 66 -104
58 -125 -11 -29 -101 -85 -147 -92 -186 -28 -452 -166 -514 -267 -35 -57 -37
-112 -7 -199 11 -32 22 -79 26 -105 13 -105 17 -115 56 -158 61 -66 121 -87
263 -93 107 -4 122 -7 142 -27 20 -20 22 -30 17 -81 -4 -49 -2 -63 15 -84 25
-31 67 -30 182 1 76 21 85 22 148 8 86 -18 201 -16 278 5 84 22 104 21 104 -5
0 -28 -147 -272 -215 -356 -101 -126 -255 -233 -446 -309 -205 -82 -308 -138
-441 -238 -71 -53 -128 -101 -128 -107 0 -8 16 -9 50 -5 73 10 126 31 199 81
49 33 108 59 230 100 240 81 574 254 686 355 22 20 114 99 205 175 185 154
301 264 332 313 14 24 19 43 15 67 -11 68 106 260 239 391 96 96 230 194 337
249 102 52 117 55 117 20 0 -20 -14 -32 -72 -66 -122 -70 -142 -99 -70 -99 36
0 34 -2 -48 -46 -120 -64 -145 -86 -179 -157 -33 -65 -64 -192 -59 -236 3 -23
7 -26 44 -25 57 1 130 39 254 132 129 98 246 218 284 294 15 32 46 74 67 93
69 62 118 48 319 -95 l115 -82 146 6 147 7 253 -85 c353 -118 457 -159 509
-203 76 -65 221 -236 252 -297 50 -98 161 -236 190 -236 26 0 139 -65 176
-102 23 -22 59 -71 82 -109 22 -37 46 -72 53 -76 6 -4 51 -8 98 -8 78 0 89 -2
122 -28 50 -38 71 -83 96 -207 11 -57 29 -116 39 -130 11 -14 58 -59 106 -100
81 -69 93 -85 154 -198 37 -67 79 -137 94 -156 34 -42 107 -78 218 -106 178
-45 351 -141 417 -232 22 -29 63 -92 91 -140 l51 -88 -67 27 c-139 54 -256 84
-279 74 -40 -18 -29 -58 49 -187 40 -66 78 -136 85 -157 20 -57 28 -340 14
-492 -13 -140 -30 -230 -61 -311 -43 -117 -49 -258 -21 -556 l18 -198 46 -94
c25 -51 90 -165 146 -253 122 -194 133 -217 170 -374 68 -281 105 -338 238
-359 122 -20 301 -136 390 -252 53 -69 52 -68 113 -242 77 -224 84 -235 253
-439 53 -65 97 -122 97 -127 0 -5 -14 -4 -32 2 -126 39 -178 45 -178 19 0 -11
172 -146 315 -248 55 -39 110 -81 121 -94 34 -37 74 -125 86 -187 12 -62 33
-92 88 -124 19 -12 53 -39 76 -60 41 -39 41 -39 64 -20 19 15 23 28 23 73 0
90 -48 175 -179 321 -167 185 -243 323 -429 783 -41 99 -72 182 -70 184 3 2
50 -27 106 -64 107 -71 241 -191 264 -235 7 -14 27 -74 44 -135 61 -210 99
-267 249 -374 122 -87 131 -97 183 -204 48 -102 58 -113 345 -386 247 -234
256 -249 229 -375 l-17 -79 46 -93 c62 -123 98 -154 310 -258 137 -68 202 -93
331 -130 88 -24 224 -70 303 -100 226 -89 267 -99 422 -102 74 -1 146 -3 160
-3 30 -1 142 -80 220 -155 134 -128 213 -172 403 -221 243 -63 296 -87 512
-238 229 -159 238 -168 250 -274 8 -73 49 -166 93 -209 50 -51 291 -184 332
-184 8 0 36 -11 62 -25 26 -14 77 -31 113 -39 57 -12 71 -19 101 -55 20 -23
44 -41 54 -41 21 0 72 54 128 137 55 81 80 90 153 52 37 -19 46 -32 105 -156
56 -117 64 -142 64 -193 0 -31 11 -102 25 -156 14 -54 25 -117 25 -140 0 -63
-66 -185 -147 -275 -117 -128 -139 -159 -242 -349 -66 -120 -112 -217 -130
-277 -19 -59 -44 -113 -72 -152 -62 -88 -64 -145 -14 -301 47 -145 76 -202
185 -364 157 -235 311 -516 425 -775 97 -220 129 -273 224 -373 99 -105 181
-168 432 -334 179 -118 251 -180 282 -240 8 -16 34 -83 57 -149 l43 -120 0
-200 c0 -176 -3 -216 -26 -330 -14 -71 -33 -193 -42 -270 -21 -183 -44 -305
-180 -950 -62 -297 -146 -711 -185 -920 -95 -509 -165 -859 -205 -1035 -49
-211 -73 -393 -110 -825 -9 -99 -24 -252 -35 -340 -10 -88 -22 -185 -25 -217
-3 -31 -1 -84 5 -119 12 -68 195 -536 238 -609 34 -60 188 -213 282 -282 157
-115 420 -257 539 -292 77 -23 179 -20 333 9 73 13 194 33 268 45 74 11 138
24 143 29 16 16 -25 28 -118 34 -88 6 -94 8 -260 91 -93 46 -197 94 -230 107
-88 34 -135 85 -168 186 -15 45 -38 141 -52 215 -14 73 -34 171 -45 218 -11
47 -20 92 -20 99 0 7 33 47 73 89 40 42 91 104 114 137 64 95 101 135 231 250
85 75 122 114 122 129 0 11 -14 39 -31 61 -41 54 -56 114 -65 248 l-7 115 46
48 c72 75 175 327 217 528 11 54 22 102 26 107 7 13 50 11 151 -5 130 -21 187
-26 203 -16 11 7 4 29 -38 117 -39 81 -102 259 -102 288 0 3 67 31 156 65 111
42 152 86 185 200 7 25 16 49 20 54 4 5 41 -4 83 -19 73 -27 77 -27 172 -16
53 6 118 21 145 32 87 38 187 169 175 230 -3 16 -18 47 -33 70 -19 30 -24 44
-15 47 9 3 8 11 -5 33 -9 15 -15 31 -12 33 3 3 46 -8 97 -24 89 -29 165 -38
188 -22 31 20 199 225 297 362 95 132 143 186 324 365 117 116 228 233 246
262 42 63 71 137 137 358 108 355 181 447 464 584 55 26 131 58 167 70 38 13
76 33 91 49 14 15 70 95 124 177 54 83 125 178 159 212 73 74 110 87 225 77
75 -6 78 -6 91 17 15 28 34 584 25 749 l-5 106 49 73 c59 86 64 125 25 183
-31 46 -31 58 0 58 30 0 183 79 248 128 31 24 91 98 180 221 131 184 187 277
187 312 0 9 -18 55 -41 101 l-41 83 6 101 c7 141 8 140 -134 136 l-111 -3
-172 115 c-95 63 -202 131 -238 150 -86 47 -249 100 -756 246 -228 66 -431
128 -450 137 -41 19 -54 37 -97 140 -44 103 -113 225 -155 275 -25 29 -66 55
-156 98 -144 69 -179 100 -201 178 -9 31 -29 78 -45 103 -37 59 -128 146 -172
164 -19 8 -121 33 -228 56 -298 64 -304 66 -456 180 -218 163 -313 250 -412
379 -67 88 -140 158 -186 180 -46 22 -194 53 -455 96 -90 14 -209 39 -265 54
-133 37 -277 66 -400 80 -55 6 -129 16 -165 22 -115 21 -163 15 -343 -41 -191
-60 -273 -91 -322 -121 -51 -31 -197 -269 -225 -367 l-13 -41 -54 58 c-76 82
-134 104 -263 97 -76 -3 -112 -11 -179 -37 -59 -23 -93 -31 -117 -27 -87 14
-345 165 -412 241 -43 50 -42 80 13 220 25 63 48 129 51 146 8 38 -15 359 -27
382 -5 10 -31 30 -57 45 -46 27 -51 28 -207 29 -137 0 -169 3 -221 22 -41 14
-98 23 -180 28 -65 4 -132 12 -149 18 l-29 12 46 32 c82 56 95 79 103 181 5
61 3 101 -5 126 -12 36 -11 38 24 72 20 20 51 43 69 52 30 15 32 19 38 86 5
58 14 85 52 155 26 47 47 93 47 102 0 10 -12 25 -27 35 -36 24 -174 23 -343
-2 -166 -24 -164 -22 -199 -194 -7 -31 -32 -88 -60 -135 -43 -72 -57 -102 -74
-157 -5 -15 -11 -14 -53 7 -67 34 -129 31 -264 -11 -61 -19 -117 -35 -124 -35
-7 0 -23 12 -37 26 -13 14 -49 39 -79 55 -108 58 -274 266 -385 482 -84 166
-78 213 62 485 34 68 63 135 63 148 0 14 -21 49 -54 87 -76 90 -79 96 -60 151
29 85 162 207 379 349 145 94 220 131 264 130 20 -1 74 -16 119 -32 46 -17 99
-31 117 -31 43 0 80 -14 117 -45 35 -30 82 -32 133 -8 36 17 37 17 89 -11 59
-32 76 -29 76 13 0 35 -13 46 -81 70 -49 16 -54 21 -54 47 0 22 7 32 30 43 35
17 79 18 241 7 103 -8 128 -6 173 9 65 21 116 16 244 -26 l92 -30 57 17 c74
22 114 14 161 -34 63 -64 95 -167 113 -357 5 -65 14 -93 46 -154 21 -41 43
-96 48 -123 8 -41 20 -60 68 -109 33 -32 68 -59 79 -59 27 0 57 35 83 94 36
86 37 125 2 197 -40 83 -166 474 -181 563 -10 59 -10 85 5 165 27 152 56 196
207 310 51 38 110 88 132 111 22 23 59 50 81 60 30 13 59 41 104 99 43 56 69
81 84 81 41 0 92 20 126 49 32 27 34 31 18 43 -10 7 -21 27 -24 45 -6 29 -4
33 22 38 50 11 54 14 54 34 0 26 -26 51 -61 58 -16 3 -29 7 -29 10 0 2 9 21
20 43 22 43 26 105 9 163 -8 31 -7 48 7 87 l18 49 -27 49 c-34 62 -36 146 -7
224 21 57 73 128 85 116 4 -4 1 -33 -8 -65 -30 -110 -26 -169 13 -218 34 -43
36 -57 14 -120 -8 -26 -13 -52 -11 -58 8 -22 73 59 96 119 36 96 37 128 2 228
-17 49 -31 102 -31 118 l0 28 35 -38 c39 -44 57 -84 48 -109 -4 -12 -3 -15 4
-8 21 20 84 175 104 256 22 91 34 117 58 136 9 7 73 31 143 53 125 40 152 55
215 113 28 26 36 29 73 23 23 -3 45 -4 50 -1 4 3 2 29 -6 58 -19 72 -17 130 6
222 30 118 61 176 115 221 27 21 68 56 92 78 24 21 43 33 43 27 0 -16 52 -14
76 3 11 8 38 19 61 25 49 13 93 48 123 95 18 30 27 35 75 41 37 4 58 12 64 24
5 9 36 27 68 41 32 13 82 37 112 53 49 28 53 29 47 10 -10 -31 18 -53 67 -53
23 0 52 -3 64 -6 22 -6 22 -6 -8 -44 -28 -35 -35 -38 -92 -42 -96 -6 -131 -29
-193 -122 -29 -45 -66 -96 -81 -114 -32 -40 -23 -65 25 -70 41 -4 66 10 157
93 103 93 122 105 172 105 32 0 79 19 215 88 171 88 173 89 179 126 4 25 18
48 43 70 20 19 46 56 58 82 27 62 36 181 15 208 -13 18 -16 17 -55 -18 -42
-38 -56 -72 -94 -220 -15 -57 -40 -80 -60 -54 -10 12 -35 17 -108 20 -112 5
-172 28 -262 102 -79 64 -107 114 -106 191 1 76 -11 99 -65 123 -39 17 -97 72
-97 92 0 4 26 6 58 3 52 -5 61 -2 99 26 55 40 103 106 103 142 0 30 -36 71
-102 116 -35 24 -41 25 -85 14 -139 -35 -449 -243 -664 -446 -53 -49 -111 -99
-130 -109 -32 -19 -31 -16 19 40 53 59 64 75 185 259 82 126 146 188 218 209
29 9 60 16 69 16 34 0 59 30 70 88 24 115 43 122 395 146 168 11 184 14 248
43 l67 32 25 -25 c22 -22 32 -24 117 -24 133 0 155 9 256 101 106 96 160 124
278 143 109 17 160 41 235 113 73 70 86 98 65 148 -21 50 -20 94 4 150 23 54
26 98 6 114 -7 6 -60 27 -117 45 -83 27 -115 33 -159 29 -67 -6 -165 -43 -246
-95 -34 -21 -64 -38 -68 -38 -3 0 -6 19 -6 43 0 34 6 48 28 69 41 37 87 62
187 99 50 18 96 37 103 42 40 30 -27 100 -153 158 -94 43 -87 42 -245 36 l-45
-2 3 52 c6 89 -30 137 -150 206 -64 37 -67 54 -24 133 41 74 45 110 15 148
-11 14 -60 101 -109 193 -48 93 -122 233 -163 312 -76 143 -109 191 -133 191
-20 0 -105 -101 -130 -155 -27 -58 -30 -92 -10 -140 18 -42 11 -48 -57 -51
-59 -3 -70 -11 -102 -82 -14 -31 -33 -64 -42 -74 -36 -40 -131 -13 -289 82
-54 33 -115 65 -135 70 -46 13 -51 30 -39 129 5 42 9 117 7 166 -1 79 1 95 21
127 l24 38 -25 9 c-38 15 -136 31 -185 31 -47 0 -71 18 -136 104 -16 21 -47
47 -70 57 -22 10 -79 41 -125 68 -106 64 -144 75 -208 60 -32 -7 -107 -9 -228
-4 -206 8 -323 8 -337 -1 -5 -4 -1 -16 11 -28 42 -45 53 -101 46 -236 -5 -113
-4 -134 19 -223 14 -53 32 -104 40 -113 19 -18 16 -25 -50 -122 -24 -35 -44
-69 -44 -75 0 -7 20 -39 44 -72 66 -87 144 -249 161 -330 18 -84 18 -142 5
-255 -22 -175 -46 -212 -143 -224 -100 -11 -157 -56 -143 -112 6 -22 1 -32
-30 -60 -41 -38 -41 -35 1 -152 30 -84 52 -218 61 -377 8 -140 1 -162 -74
-216 -65 -46 -70 -44 -97 41 -29 90 -62 148 -95 165 -17 9 -68 20 -113 26 -45
6 -99 16 -120 22 l-39 12 -1 126 c-2 125 -2 126 -41 203 -21 42 -37 78 -35 79
2 2 16 11 32 20 39 25 37 62 -4 76 -18 6 -39 11 -47 11 -8 0 -27 11 -44 25
-38 32 -81 43 -239 60 -71 8 -144 21 -162 28 -18 8 -73 47 -122 86 -98 79
-240 170 -323 209 -29 13 -87 31 -130 39 -90 18 -142 9 -191 -33 -67 -56 -116
-11 -226 211 -68 138 -110 196 -154 220 -16 8 -77 24 -137 36 -120 23 -144 32
-144 54 0 8 17 61 39 117 21 57 46 141 56 188 25 130 59 195 200 396 140 199
158 215 255 229 61 9 113 26 122 39 19 29 -79 91 -170 107 -53 10 -129 45
-119 56 3 2 62 -1 131 -8 149 -15 220 -5 318 41 52 25 76 30 138 30 106 0 120
11 212 167 43 72 80 137 83 146 5 12 -14 15 -132 19 -144 5 -172 11 -305 69
-83 36 -220 110 -215 115 4 4 477 -21 587 -32 47 -4 75 -2 101 9 43 18 82 75
77 114 -3 25 -11 30 -66 48 -73 24 -71 30 16 64 75 30 126 28 159 -6 26 -25
29 -25 70 -15 24 7 62 12 86 12 66 0 175 27 221 54 50 30 141 117 167 160 31
50 24 87 -38 212 -43 87 -57 125 -57 161 l-1 46 65 26 65 27 -2 69 c-2 39 -5
79 -8 90 -5 24 -179 142 -238 162 -47 16 -226 35 -292 31 -67 -4 -74 -19 -46
-105 12 -38 35 -95 50 -125 l28 -55 -74 -47 c-84 -53 -88 -67 -53 -157 19 -46
19 -54 6 -74 -8 -13 -34 -30 -58 -38 -49 -16 -49 -19 -22 -110 16 -54 16 -59
1 -75 -31 -30 -84 -19 -209 41 -168 82 -174 98 -91 255 47 90 54 141 29 191
-18 33 -93 104 -135 125 -29 15 -32 15 -50 -3 -11 -11 -25 -39 -31 -63 -31
-124 -109 -308 -129 -308 -28 0 -46 56 -52 160 -4 58 -13 124 -20 148 -10 32
-11 50 -2 71 13 35 9 37 -117 46 -97 8 -150 21 -150 39 0 6 16 42 36 79 58
110 51 164 -41 288 -29 39 -47 77 -55 112 -6 29 -19 67 -30 85 -21 34 -91 84
-147 104 -41 15 -42 32 -8 126 30 84 31 102 5 184 -11 34 -20 64 -20 64 0 1
42 4 93 7 114 7 158 20 203 59 48 42 63 75 85 185 21 106 34 136 83 187 18 20
30 39 25 42 -17 10 -304 14 -342 4z"/>
<path d="M15026 30009 c-124 -16 -228 -80 -257 -158 -44 -114 -169 -582 -214
-799 -26 -124 -24 -141 21 -184 71 -65 281 -150 444 -179 108 -19 664 -19 682
-1 11 12 9 17 -9 29 -13 9 -23 24 -23 34 0 29 59 39 223 39 82 0 168 5 193 11
48 12 84 48 84 82 0 16 13 8 63 -40 34 -33 89 -75 122 -94 75 -41 186 -153
335 -334 94 -114 139 -158 245 -243 164 -130 247 -208 269 -251 17 -31 17 -38
3 -85 -9 -28 -18 -82 -22 -121 -21 -243 -116 -364 -331 -419 -64 -16 -280 -49
-436 -65 -143 -16 -148 -19 -148 -86 0 -125 49 -164 206 -165 74 0 122 8 250
40 157 40 248 49 284 30 10 -5 44 -36 77 -68 55 -55 129 -99 248 -147 38 -16
39 -17 20 -31 -10 -8 -50 -24 -87 -36 -38 -12 -67 -26 -65 -31 1 -4 65 -32
142 -61 77 -30 187 -75 243 -100 217 -97 492 -148 492 -91 0 8 -26 32 -57 54
-62 42 -149 129 -203 201 -18 25 -54 66 -78 92 l-45 47 105 -33 c130 -41 204
-80 298 -157 41 -33 80 -58 88 -57 28 6 52 53 77 152 32 126 33 192 2 237 -13
20 -82 73 -172 133 -233 155 -350 287 -371 415 -6 38 -4 43 33 78 22 21 68 60
102 86 51 39 69 47 90 42 37 -8 227 -206 341 -355 52 -68 107 -131 123 -140
24 -13 30 -13 55 0 49 27 122 209 176 440 34 146 41 204 24 217 -7 6 -51 19
-98 28 -106 21 -244 72 -380 140 -145 73 -433 199 -502 221 l-58 18 28 18 c15
11 95 53 177 95 83 41 158 82 168 91 50 44 -5 126 -221 331 -354 335 -443 392
-652 421 -113 15 -167 45 -254 138 -184 197 -204 212 -301 219 -85 7 -190 -17
-430 -98 -158 -53 -211 -67 -225 -59 -10 5 -55 63 -101 127 -159 228 -261 363
-272 363 -7 0 -84 7 -172 15 -177 16 -247 17 -349 4z"/>
<path d="M15785 29977 c-52 -39 49 -178 176 -241 87 -44 140 -52 237 -36 80
13 226 61 258 85 17 13 11 18 -77 59 -236 110 -533 177 -594 133z"/>
<path d="M12966 29889 c-61 -15 -178 -74 -206 -104 -35 -37 -19 -55 71 -77 99
-25 163 -64 167 -103 3 -38 -63 -143 -96 -152 -28 -7 -44 7 -89 75 -20 29 -43
56 -51 60 -20 7 -120 -45 -133 -71 -16 -29 15 -65 98 -112 103 -59 249 -170
323 -246 95 -98 153 -104 303 -31 128 61 227 166 227 238 0 25 -123 189 -153
205 -14 8 -51 10 -111 5 l-90 -6 37 38 c20 21 63 53 94 72 72 42 83 55 83 97
0 18 6 42 12 53 11 16 10 23 -5 37 -15 15 -38 18 -150 19 -73 0 -168 4 -212 7
-44 3 -98 2 -119 -4z"/>
<path d="M9725 29875 c-144 -21 -294 -56 -318 -76 l-21 -17 27 -38 c14 -22 38
-53 51 -69 14 -17 36 -56 50 -87 l25 -56 -25 -33 c-44 -58 -74 -127 -87 -198
-15 -74 -39 -120 -122 -225 -95 -122 -87 -151 68 -224 67 -33 123 -69 164
-105 76 -68 112 -77 191 -52 56 17 205 92 255 127 44 31 61 74 67 173 5 83 6
90 25 86 69 -15 75 -11 120 77 55 108 86 139 208 204 56 30 155 94 220 143
157 117 162 137 43 197 -34 17 -80 44 -103 60 -98 67 -203 77 -299 28 -69 -35
-64 -34 -64 -15 0 20 -32 39 -130 75 -103 38 -200 45 -345 25z"/>
<path d="M48694 29861 c-23 -10 -45 -24 -49 -30 -9 -16 16 -52 70 -102 50 -47
54 -58 25 -84 -29 -27 -25 -42 14 -43 70 -3 143 -41 235 -124 80 -73 110 -84
204 -79 36 1 35 19 -5 93 -41 78 -96 138 -160 178 -118 73 -130 84 -158 141
-16 31 -36 59 -45 63 -31 11 -90 6 -131 -13z"/>
<path d="M12085 29802 c-88 -42 -99 -93 -24 -103 60 -9 95 -28 144 -79 53 -55
89 -74 115 -60 29 16 49 62 56 128 6 55 5 61 -24 93 -30 34 -31 34 -129 37
-79 2 -106 -1 -138 -16z"/>
<path d="M11873 29518 c4 -46 13 -114 21 -153 17 -76 21 -242 7 -264 -17 -26
-49 0 -112 90 -100 143 -130 157 -240 108 -54 -23 -94 -33 -148 -37 -71 -5
-73 -4 -67 16 15 46 -41 111 -102 119 -34 5 -52 -2 -124 -41 -80 -43 -221 -87
-235 -72 -4 3 9 23 29 44 20 20 39 47 42 58 9 30 -30 131 -54 139 -63 20 -304
-107 -423 -223 -65 -64 -210 -253 -227 -296 -23 -61 35 -111 165 -142 94 -22
147 -44 142 -58 -2 -6 -49 -30 -106 -53 -170 -69 -184 -89 -96 -133 68 -33
207 -39 377 -15 150 22 238 16 408 -25 69 -16 160 -33 203 -36 90 -8 87 -13
-28 -50 -74 -25 -98 -27 -335 -34 -257 -8 -384 -24 -512 -66 -82 -27 -82 -37
-4 -111 114 -108 236 -153 419 -153 75 0 117 -4 136 -15 32 -16 51 -59 51
-116 0 -28 5 -39 19 -44 24 -7 156 9 331 41 157 29 212 45 260 78 19 13 69 34
110 47 68 21 82 30 146 95 76 78 100 94 136 94 18 0 29 -9 40 -33 13 -28 29
-39 95 -65 43 -17 102 -36 132 -43 30 -6 77 -22 105 -35 80 -37 173 -27 293
32 47 23 54 29 48 48 -4 11 -10 44 -14 71 -6 48 -7 50 -35 47 -16 -2 -55 -17
-88 -33 -66 -33 -82 -25 -54 29 37 72 123 100 238 78 88 -17 105 -9 94 47 -11
60 -57 111 -122 137 -33 13 -112 57 -176 99 -65 42 -135 87 -156 100 -50 30
-72 68 -72 123 0 28 -20 99 -59 203 -133 364 -155 395 -303 435 -46 12 -95 28
-110 36 -49 25 -51 21 -45 -68z"/>
<path d="M36527 29113 c-4 -3 -7 -13 -7 -20 0 -18 87 -111 163 -174 90 -76
121 -62 91 40 -31 107 -92 161 -185 161 -31 0 -59 -3 -62 -7z"/>
<path d="M19997 28870 c-70 -21 -157 -119 -157 -175 0 -25 8 -40 34 -63 41
-36 79 -46 126 -32 19 5 50 10 68 10 46 0 87 24 101 58 14 34 6 62 -38 116
-17 21 -31 47 -31 58 0 11 -11 23 -26 28 -29 11 -39 11 -77 0z"/>
<path d="M35155 28787 c-88 -29 -135 -68 -135 -109 0 -24 54 -56 108 -64 36
-5 62 0 157 36 63 24 121 51 130 60 20 23 10 47 -29 67 -41 22 -178 27 -231
10z"/>
<path d="M13328 28483 c-9 -10 -31 -52 -50 -93 -31 -69 -40 -78 -96 -113 -58
-36 -91 -71 -78 -85 4 -3 41 -8 84 -11 70 -5 84 -10 134 -44 48 -34 64 -39
129 -44 140 -10 317 39 327 91 7 37 -206 216 -335 280 -82 41 -94 43 -115 19z"/>
<path d="M54315 28311 c-11 -37 5 -138 27 -166 17 -22 27 -25 86 -25 37 0 94
4 127 9 33 5 105 12 160 16 115 7 223 21 278 36 34 9 36 12 26 31 -20 37 -97
107 -126 114 -15 4 -62 0 -108 -9 -89 -19 -179 -21 -240 -7 -22 5 -81 12 -131
16 -89 7 -92 6 -99 -15z"/>
<path d="M16564 28091 c-92 -43 -114 -88 -76 -158 31 -57 145 -194 175 -209
26 -14 31 -14 48 2 33 30 65 186 54 271 -3 29 -16 67 -28 85 -31 46 -88 49
-173 9z"/>
<path d="M25415 27939 c-119 -47 -205 -72 -345 -99 -57 -11 -114 -27 -127 -35
-13 -9 -33 -36 -43 -60 -26 -62 -57 -79 -123 -71 -68 9 -73 4 -131 -144 -52
-129 -59 -139 -81 -120 -23 19 -103 185 -110 228 -12 74 -16 84 -57 128 -56
61 -108 86 -190 92 -52 4 -73 1 -93 -12 -14 -9 -25 -21 -25 -27 0 -6 20 -29
45 -52 30 -27 45 -48 43 -61 -2 -12 -42 -47 -108 -92 -57 -39 -106 -77 -108
-83 -7 -21 29 -23 114 -8 90 17 120 13 158 -21 34 -31 76 -95 76 -117 0 -12
-19 -43 -41 -69 -23 -26 -39 -49 -36 -52 3 -3 49 -9 102 -14 81 -7 101 -12
122 -32 25 -24 26 -36 7 -112 l-7 -28 74 5 c41 2 119 10 174 17 97 13 103 12
170 -10 105 -35 162 -31 350 23 188 55 228 74 357 164 53 37 143 97 198 133
125 79 141 100 145 184 3 74 8 86 37 86 19 0 20 4 15 51 -12 97 -56 129 -179
129 -107 0 -140 12 -188 70 -52 62 -63 62 -195 9z"/>
<path d="M15175 27344 c-42 -90 -81 -228 -95 -343 -6 -43 -19 -105 -30 -137
-11 -31 -20 -63 -20 -69 0 -7 18 -15 41 -18 49 -6 82 -35 115 -99 13 -27 27
-48 31 -48 3 0 40 33 83 73 142 136 233 158 422 104 58 -17 113 -27 140 -25
38 3 43 6 46 29 4 33 -32 77 -107 132 -31 22 -99 84 -151 137 -96 98 -140 125
-274 176 -31 11 -68 37 -101 71 -28 29 -59 53 -67 53 -9 0 -23 -16 -33 -36z"/>
<path d="M15554 26612 c-131 -28 -157 -59 -120 -147 20 -47 48 -60 100 -45 67
20 154 70 191 112 82 90 19 119 -171 80z"/>
<path d="M16042 26479 c-40 -12 -57 -45 -48 -92 8 -40 41 -87 62 -87 45 0 128
107 122 157 -3 26 -6 28 -53 30 -27 1 -65 -3 -83 -8z"/>
<path d="M55759 26193 c-26 -69 21 -103 148 -106 71 -2 83 -6 141 -41 51 -32
72 -39 110 -39 44 1 122 25 122 37 0 8 -87 51 -184 93 -75 32 -264 83 -307 83
-12 0 -23 -10 -30 -27z"/>
<path d="M27118 25985 c-53 -14 -126 -38 -162 -54 -90 -41 -106 -68 -106 -183
0 -120 -13 -171 -76 -295 -29 -60 -54 -114 -54 -121 0 -24 84 9 167 66 126 85
148 87 145 11 -2 -45 -25 -90 -66 -128 -14 -13 -28 -38 -31 -55 -8 -45 29
-168 56 -186 12 -8 81 -29 152 -47 71 -18 132 -34 135 -37 2 -3 -2 -20 -11
-37 -19 -40 -15 -63 28 -165 40 -93 41 -97 19 -118 -24 -25 -65 -19 -148 20
-42 20 -83 34 -91 30 -23 -8 -18 -63 11 -131 14 -33 33 -81 41 -106 15 -45 15
-48 -5 -81 -13 -20 -46 -48 -82 -69 -137 -77 -147 -88 -104 -115 22 -15 43
-17 123 -14 225 8 283 6 295 -12 18 -30 -19 -56 -95 -67 -77 -11 -107 -28
-142 -79 -32 -49 -88 -103 -161 -155 -89 -63 -127 -98 -120 -109 10 -16 108
-3 236 31 140 37 232 54 513 96 194 29 238 39 375 87 164 57 220 82 220 98 0
18 -50 22 -126 11 -113 -17 -117 -9 -46 106 80 130 96 189 72 274 -15 54 -33
64 -108 61 -80 -3 -102 10 -138 79 -41 81 -21 96 91 69 39 -9 76 -15 83 -12
45 16 -25 88 -201 205 -142 93 -184 134 -193 184 -21 123 -157 227 -312 240
l-68 6 51 51 c29 29 76 97 112 161 110 195 123 240 81 269 -30 22 -59 20 -209
-10 -71 -14 -136 -23 -145 -20 -22 8 12 70 79 143 62 67 87 102 87 120 0 20
-62 15 -172 -12z"/>
<path d="M3270 25429 c-45 -21 -82 -31 -118 -32 -52 -1 -53 -1 -30 -19 30 -23
134 -58 172 -58 65 0 106 12 106 30 0 10 -7 23 -15 30 -8 7 -15 21 -15 30 0
28 -11 50 -24 50 -6 -1 -40 -15 -76 -31z"/>
<path d="M26465 25114 c-76 -32 -145 -87 -145 -115 0 -6 15 -26 34 -43 l33
-32 -85 -44 c-94 -49 -183 -124 -201 -169 -30 -71 6 -128 85 -133 l40 -3 -44
-68 c-24 -37 -68 -118 -98 -180 -85 -176 -75 -225 45 -214 89 8 185 46 295
114 55 35 119 68 141 74 67 18 108 42 129 79 28 48 35 195 12 273 -9 30 -16
59 -16 64 0 5 22 44 49 87 27 43 52 95 56 116 12 70 -36 127 -138 166 -38 15
-78 35 -88 45 -11 11 -20 19 -21 18 -2 0 -39 -16 -83 -35z"/>
<path d="M5207 25080 c-26 -16 -47 -35 -47 -41 0 -19 85 -4 116 20 18 14 41
21 70 21 47 0 66 14 31 24 -57 15 -123 6 -170 -24z"/>
<path d="M5069 24942 c-89 -57 -111 -120 -69 -190 l21 -34 38 34 c114 99 141
117 197 134 109 31 138 68 57 70 -27 1 -82 5 -123 9 -72 6 -77 5 -121 -23z"/>
<path d="M49052 24440 c-23 -22 -28 -45 -13 -54 13 -9 34 -143 27 -172 -4 -14
-24 -42 -45 -62 -25 -24 -43 -53 -51 -81 -37 -140 -41 -291 -8 -354 21 -40 22
-52 19 -226 -3 -153 -7 -194 -23 -240 -18 -50 -20 -89 -24 -393 -4 -228 -2
-338 5 -338 6 0 18 12 28 28 25 38 32 42 85 42 41 0 52 -5 83 -36 35 -35 65
-40 65 -11 0 27 -38 124 -94 236 -62 127 -64 137 -41 280 25 152 49 181 147
181 50 0 82 -22 115 -78 15 -25 28 -41 30 -35 2 5 -17 68 -43 139 -45 126 -56
168 -89 348 -18 97 -49 169 -89 203 -33 29 -34 72 -5 140 32 73 35 168 10 304
-23 130 -41 191 -56 196 -6 2 -21 -6 -33 -17z"/>
<path d="M8160 24297 c-21 -11 -25 -19 -22 -52 9 -111 138 -314 239 -376 55
-34 61 -16 28 88 -16 53 -31 126 -35 183 -4 52 -10 102 -14 111 -18 42 -147
73 -196 46z"/>
<path d="M19567 23994 c-99 -81 -190 -205 -321 -435 -59 -104 -99 -159 -167
-232 -56 -61 -86 -102 -83 -111 8 -22 49 -33 244 -66 201 -35 337 -68 436
-105 56 -21 79 -25 121 -20 76 9 95 -15 105 -130 6 -61 62 -32 105 53 14 29
18 59 17 137 0 89 -4 110 -35 190 -42 110 -99 214 -140 254 -35 35 -72 39
-154 17 -29 -7 -60 -10 -72 -5 -22 8 -23 11 -43 87 -6 24 -26 60 -45 81 l-34
37 51 75 c83 122 121 219 84 219 -7 0 -39 -21 -69 -46z"/>
<path d="M8790 23590 c71 -85 174 -173 266 -228 150 -89 346 -138 388 -96 9 8
16 18 16 22 -1 15 -27 52 -72 101 -53 58 -68 64 -258 101 -82 16 -122 30 -190
67 -186 102 -213 108 -150 33z"/>
<path d="M18333 23584 c-14 -37 163 -163 249 -178 43 -8 110 7 127 28 6 7 9
20 5 29 -7 20 -197 103 -277 122 -79 19 -96 19 -104 -1z"/>
<path d="M18378 22965 c-14 -23 -19 -96 -8 -133 12 -46 39 -69 112 -97 56 -21
99 -10 143 35 16 17 27 30 24 31 -2 0 -31 2 -65 3 -65 4 -138 31 -167 63 -10
11 -21 40 -25 64 -4 24 -10 40 -14 34z"/>
<path d="M48967 22363 c-4 -3 -7 -39 -7 -80 0 -57 -5 -84 -24 -121 -14 -28
-26 -74 -29 -114 -10 -108 -28 -127 -98 -103 -23 8 -43 15 -44 15 -2 0 -6 -15
-9 -34 -9 -46 -36 -79 -85 -100 -60 -27 -69 -60 -41 -139 12 -34 33 -83 47
-110 l24 -47 37 29 c20 16 49 33 65 37 38 12 37 25 -3 51 -78 50 -80 52 -80
91 l0 37 133 0 c121 0 135 -2 164 -23 75 -53 163 -78 163 -46 0 28 21 89 39
113 14 18 32 24 97 32 81 10 199 43 209 60 3 5 -1 30 -10 56 -8 27 -20 74 -26
106 -6 32 -17 61 -25 64 -7 3 -35 -7 -60 -22 -108 -63 -197 -16 -339 176 -57
77 -78 93 -98 72z"/>
<path d="M29275 22130 c-8 -16 -15 -43 -15 -60 0 -46 -24 -94 -64 -130 -20
-18 -36 -42 -36 -52 0 -23 110 -132 122 -120 18 18 38 152 38 254 0 141 -12
171 -45 108z"/>
<path d="M29310 21693 c-48 -9 -147 -61 -188 -98 -45 -40 -72 -106 -72 -175 0
-41 14 -60 45 -60 36 0 42 -16 31 -71 -11 -55 -2 -81 29 -87 25 -5 96 24 144
58 67 49 76 71 76 185 1 55 5 127 9 161 8 57 7 62 -15 78 -13 9 -26 15 -29 15
-3 -1 -16 -4 -30 -6z"/>
<path d="M48838 21525 c-26 -14 -53 -33 -60 -44 -8 -11 -28 -21 -48 -23 -28
-2 -39 -10 -57 -43 -27 -48 -31 -133 -8 -169 19 -29 11 -70 -40 -213 -57 -156
-100 -236 -161 -293 -68 -64 -128 -92 -192 -88 -57 4 -64 22 -27 66 l26 31
-24 6 c-13 4 -43 5 -68 3 l-44 -3 0 -55 c0 -44 -8 -70 -38 -128 -30 -57 -36
-80 -32 -106 7 -37 -6 -53 -52 -62 -23 -4 -37 0 -62 22 l-33 27 -114 -18
c-143 -22 -188 -44 -234 -113 -43 -64 -75 -86 -163 -113 -85 -27 -104 -42
-131 -109 -16 -40 -33 -62 -66 -85 -53 -37 -80 -84 -80 -142 0 -34 4 -43 18
-43 24 0 37 11 53 45 10 21 22 31 43 33 52 6 52 -10 3 -113 -26 -53 -47 -106
-47 -116 0 -11 17 -38 38 -61 29 -31 43 -39 59 -34 29 9 171 168 190 213 17
42 13 145 -7 184 -6 11 -38 32 -71 46 -32 14 -59 29 -59 32 0 4 16 23 36 42
31 30 41 34 87 34 l52 0 1 -50 c2 -69 53 -235 72 -235 8 0 39 14 68 31 54 31
88 67 118 126 20 41 56 52 92 28 25 -16 28 -16 53 2 14 11 40 40 58 66 l31 46
12 -49 c7 -28 16 -50 21 -50 16 0 169 80 169 88 0 5 -7 17 -15 28 -17 23 -19
58 -4 85 10 19 10 19 36 -1 41 -32 87 -26 187 26 87 44 89 45 125 31 32 -13
40 -13 65 0 31 17 56 11 56 -12 0 -12 6 -15 23 -9 26 8 137 63 153 75 12 10 1
70 -31 166 -14 43 -15 60 -6 104 6 29 16 95 21 148 9 86 13 99 39 123 17 16
31 42 36 65 3 21 18 57 31 81 47 80 45 226 -4 284 -25 30 -27 38 -26 125 1 63
-2 93 -10 93 -6 -1 -32 -12 -58 -25z"/>
<path d="M28263 21400 c-123 -25 -104 -84 34 -106 34 -5 44 -1 91 36 29 23 51
47 49 53 -8 24 -94 32 -174 17z"/>
<path d="M31600 20479 c-36 -4 -88 -5 -116 -2 -105 11 -167 -40 -89 -73 87
-36 478 -57 529 -28 16 10 4 18 -85 63 -110 54 -117 55 -239 40z"/>
<path d="M32870 20419 c-50 -14 -84 -17 -151 -13 -92 6 -123 -2 -134 -35 -9
-29 11 -69 47 -92 29 -18 43 -20 123 -15 130 9 129 9 175 92 22 40 40 76 40
79 0 8 -30 4 -100 -16z"/>
<path d="M45910 18617 c-132 -69 -221 -128 -230 -153 -14 -35 5 -87 82 -227
49 -90 75 -127 86 -125 41 8 110 193 147 397 17 91 17 95 -1 108 -23 16 -52
17 -84 0z"/>
<path d="M15570 18251 c-84 -29 -210 -90 -210 -103 0 -19 196 -3 264 21 35 12
83 21 118 21 59 0 128 -21 128 -38 0 -16 -29 -22 -55 -12 -20 8 -25 6 -25 -7
0 -31 68 -80 164 -117 137 -54 166 -81 181 -176 4 -25 20 -71 36 -103 16 -32
29 -64 29 -71 0 -7 -18 -21 -40 -31 -22 -10 -40 -21 -40 -25 0 -11 158 -87
205 -99 65 -16 229 -31 238 -22 12 12 0 33 -102 175 -120 167 -182 260 -221
335 -96 180 -241 259 -490 267 -104 4 -134 1 -180 -15z"/>
<path d="M44310 17765 c-9 -11 -33 -15 -94 -15 -81 0 -83 -1 -139 -42 -31 -24
-59 -51 -63 -61 -3 -11 2 -39 11 -63 17 -45 42 -65 100 -78 17 -4 37 -9 46
-12 9 -2 29 8 46 23 17 16 42 36 56 45 14 10 32 38 41 65 9 26 26 57 38 70 21
22 21 26 8 50 -19 33 -33 38 -50 18z"/>
<path d="M45796 17548 c-17 -26 -52 -155 -62 -228 -4 -32 -1 -58 10 -84 26
-62 21 -72 -20 -41 -19 15 -37 25 -40 23 -7 -8 -24 -110 -24 -150 0 -52 29
-79 113 -107 64 -22 67 -24 78 -64 21 -78 26 -85 71 -97 65 -17 98 -31 129
-57 31 -26 33 -24 43 29 4 21 11 40 16 43 18 11 70 -26 110 -79 38 -50 57 -66
81 -66 5 0 0 18 -11 40 -21 42 -26 80 -10 80 20 0 9 29 -21 54 -40 34 -119 56
-208 58 l-72 1 -19 37 c-30 60 -43 125 -36 184 7 50 10 55 34 58 39 4 73 93
82 218 4 52 11 105 15 118 5 15 3 22 -6 23 -60 4 -189 19 -211 24 -21 6 -29 2
-42 -17z"/>
<path d="M16678 17402 c-23 -5 -23 -11 3 -39 28 -29 47 -103 40 -156 -8 -55
-20 -56 -163 -19 -156 41 -168 44 -168 33 0 -10 152 -90 222 -116 56 -21 77
-41 82 -82 1 -16 6 -35 10 -41 14 -23 84 9 147 65 l40 37 52 -12 c160 -37 422
-81 430 -73 6 6 6 24 0 48 -5 23 -5 54 1 80 12 54 5 63 -91 108 -175 83 -533
182 -605 167z"/>
<path d="M15862 17388 c-16 -16 -15 -93 1 -107 8 -6 43 -18 79 -28 53 -14 71
-15 92 -5 37 17 33 48 -11 90 -59 55 -133 78 -161 50z"/>
<path d="M17593 16920 c-49 -20 -10 -98 61 -125 35 -14 63 -16 123 -12 43 4
84 6 91 7 33 1 5 33 -55 63 -56 28 -186 79 -196 76 -1 0 -12 -4 -24 -9z"/>
<path d="M46380 16653 c-63 -11 -60 -30 14 -84 49 -35 60 -52 50 -82 -5 -16
-12 -19 -46 -14 -53 7 -58 -11 -19 -70 17 -25 31 -56 31 -67 0 -32 11 -66 21
-66 5 0 9 41 9 90 0 75 3 92 16 97 11 4 23 -2 35 -18 l18 -24 11 30 c18 45 7
162 -16 185 -20 19 -82 31 -124 23z"/>
<path d="M45870 16644 c-57 -24 -64 -73 -22 -155 34 -68 75 -92 147 -86 28 2
59 7 70 11 15 6 14 3 -5 -11 -87 -63 -118 -116 -96 -164 16 -36 103 -112 120
-106 8 3 33 37 55 76 23 39 66 96 95 128 29 32 56 67 59 78 12 37 18 165 8
165 -5 0 -30 -28 -55 -62 -25 -34 -46 -56 -46 -50 0 19 -99 125 -141 150 -38
23 -156 39 -189 26z"/>
<path d="M45607 16457 c-10 -7 -25 -39 -33 -72 -24 -91 -38 -111 -162 -237
-64 -65 -113 -120 -109 -124 10 -11 166 78 205 117 20 21 42 55 48 75 9 31 17
40 50 51 61 21 71 39 64 117 -7 79 -25 101 -63 73z"/>
<path d="M46514 16200 c3 -16 9 -44 12 -61 6 -31 6 -32 -26 -26 -24 5 -38 2
-57 -13 -14 -11 -32 -20 -39 -20 -7 0 -42 -23 -78 -50 l-66 -51 0 40 c0 23 -7
46 -16 56 -15 15 -20 13 -63 -33 -25 -27 -64 -59 -86 -70 -63 -32 -96 -73
-102 -126 -5 -38 -2 -47 13 -53 13 -5 26 3 48 31 87 108 86 108 158 113 62 5
67 4 79 -18 8 -15 14 -61 14 -121 1 -86 3 -100 23 -121 29 -31 86 -49 119 -36
13 5 39 9 58 9 19 0 36 4 40 9 3 5 -4 33 -15 61 -27 69 -26 94 7 120 26 20 28
21 35 3 53 -136 60 -138 83 -19 14 75 11 155 -11 274 -4 22 -110 132 -127 132
-5 0 -6 -13 -3 -30z"/>
<path d="M39715 16200 c-7 -11 8 -41 29 -59 23 -19 29 5 9 39 -18 31 -28 37
-38 20z"/>
<path d="M39772 16108 c-33 -42 -47 -403 -18 -473 29 -68 109 -83 193 -35 56
32 83 71 83 118 0 45 -135 306 -185 358 -44 46 -56 52 -73 32z"/>
<path d="M45207 15789 c-15 -12 -63 -64 -107 -117 -74 -88 -80 -98 -77 -136
l2 -41 -72 -35 c-49 -24 -97 -60 -150 -111 -91 -88 -135 -119 -260 -183 -136
-70 -180 -132 -137 -194 14 -21 14 -22 -9 -22 -46 0 -130 34 -164 66 -38 36
-61 35 -96 -3 -22 -25 -67 -136 -67 -166 0 -13 13 -36 30 -52 37 -35 37 -50 4
-78 -26 -22 -26 -24 -15 -79 14 -67 28 -80 83 -82 59 -1 75 -28 88 -145 6 -52
16 -101 22 -108 7 -9 36 -13 88 -13 56 0 94 -6 134 -22 53 -20 62 -20 125 -8
78 15 135 9 191 -20 100 -51 283 -78 310 -45 7 8 19 63 26 122 16 121 39 172
103 222 47 37 57 61 70 170 13 103 45 166 81 165 14 -1 32 -4 42 -8 12 -6 23
2 42 31 14 21 26 43 26 50 0 7 -22 24 -49 38 -66 33 -81 57 -81 127 0 36 -9
82 -24 124 l-25 68 24 28 c13 16 38 40 54 54 17 14 36 43 42 65 9 29 25 49 61
74 26 19 48 39 48 44 0 5 -15 13 -32 17 -23 5 -66 39 -144 115 -120 117 -137
125 -187 88z"/>
<path d="M42020 15536 c0 -23 88 -136 163 -210 67 -66 71 -68 109 -63 52 7 67
-9 108 -114 34 -89 59 -123 126 -170 23 -15 46 -41 51 -56 6 -15 19 -50 29
-78 12 -35 36 -68 77 -108 49 -49 65 -74 97 -151 21 -52 53 -122 73 -157 19
-35 40 -81 47 -102 8 -27 36 -59 98 -115 101 -91 154 -143 281 -281 92 -100
128 -124 155 -102 7 6 39 10 71 9 50 -2 59 1 75 22 20 26 57 165 67 250 8 67
-13 145 -51 188 -17 19 -57 47 -89 61 -56 25 -60 29 -105 116 -39 74 -54 93
-85 108 -35 18 -37 21 -37 68 0 28 5 59 11 70 9 18 0 30 -71 100 -68 67 -94
85 -168 117 -49 21 -106 52 -128 68 -21 17 -79 55 -127 85 -106 65 -296 234
-336 299 -48 78 -108 105 -309 140 -136 24 -132 24 -132 6z"/>
<path d="M46887 15109 c-62 -51 -97 -87 -97 -100 0 -11 11 -41 24 -67 18 -36
26 -72 31 -150 l8 -103 36 -25 c19 -13 41 -24 47 -24 6 0 15 23 18 52 4 28 14
65 23 81 17 33 14 138 -8 267 -10 55 -9 71 5 104 9 22 15 41 13 43 -2 1 -47
-33 -100 -78z"/>
<path d="M46655 15009 c-96 -81 -196 -149 -219 -149 -12 0 -37 10 -56 23 -54
36 -65 38 -101 11 -18 -13 -41 -24 -51 -24 -10 0 -62 18 -117 40 -113 46 -162
50 -224 19 -71 -36 -143 -95 -161 -133 -16 -34 -16 -40 -1 -93 11 -36 14 -70
10 -96 -4 -22 -52 -128 -106 -236 -64 -127 -99 -207 -99 -228 0 -37 51 -103
79 -103 9 0 27 -7 39 -16 18 -13 22 -25 22 -72 0 -63 -14 -164 -32 -231 -11
-41 -10 -45 11 -63 26 -20 85 -24 144 -7 40 11 45 23 22 53 -20 26 -19 52 5
138 16 56 20 103 20 210 0 108 3 138 13 138 25 0 56 -45 102 -148 91 -205 136
-246 211 -189 46 33 107 88 103 91 -2 2 -20 11 -39 21 -63 32 -71 43 -64 96
10 74 -2 110 -66 208 -32 49 -56 92 -53 95 4 3 20 6 36 6 49 0 94 29 128 81
39 61 71 79 146 79 l58 1 -23 19 c-42 35 -87 36 -202 6 -58 -15 -144 -45 -191
-67 -47 -21 -95 -39 -107 -39 -37 0 -53 41 -59 148 -9 161 2 175 117 161 47
-5 83 -3 130 8 53 12 89 13 205 5 148 -11 230 -4 271 23 26 17 91 100 120 155
33 63 53 110 46 109 -4 0 -34 -23 -67 -50z"/>
<path d="M47575 14704 c-64 -14 -212 -67 -227 -82 -13 -13 232 -107 326 -126
44 -8 84 -20 89 -25 5 -5 -17 -22 -60 -42 -83 -41 -91 -63 -38 -103 20 -15 77
-45 128 -66 51 -21 146 -63 212 -95 70 -33 166 -69 230 -86 60 -16 121 -37
135 -47 27 -20 141 -228 137 -251 -1 -8 -42 -39 -91 -70 -49 -31 -91 -61 -93
-67 -5 -15 27 -21 187 -34 179 -15 212 -25 226 -70 17 -52 41 -63 143 -62 155
1 218 28 317 136 82 88 102 98 164 81 237 -64 238 -65 375 -169 55 -42 120
-85 144 -97 37 -17 278 -105 346 -126 37 -12 -328 358 -473 479 -145 121 -188
168 -222 245 -48 109 -221 244 -436 340 -131 59 -220 88 -482 154 -343 87
-372 83 -509 -81 -69 -83 -103 -101 -152 -80 -39 16 -69 55 -131 175 -28 53
-58 107 -68 120 -39 52 -93 67 -177 49z"/>
<path d="M46985 14369 c-38 -11 -78 -29 -87 -39 -36 -44 -44 -174 -11 -187 24
-10 127 28 173 64 44 34 46 35 120 30 41 -3 111 -17 155 -31 97 -31 95 -31 95
-4 0 32 -86 110 -166 149 -87 43 -174 49 -279 18z"/>
<path d="M46501 14313 c-35 -28 -42 -112 -12 -142 18 -18 33 -21 110 -21 97 0
147 12 173 42 27 31 7 55 -78 95 -96 44 -160 53 -193 26z"/>
<path d="M50377 14293 c-4 -3 -7 -33 -7 -66 0 -55 -3 -62 -35 -92 -59 -56
-118 -70 -282 -68 -81 2 -145 -2 -148 -7 -8 -14 66 -110 90 -116 79 -20 171
-4 313 52 180 71 174 67 193 144 7 29 4 42 -17 77 -33 57 -88 96 -107 76z"/>
<path d="M50727 14163 c-4 -3 5 -27 20 -52 84 -146 113 -173 221 -204 56 -17
65 -11 31 19 -12 10 -39 46 -62 79 -70 105 -137 165 -185 165 -10 0 -22 -3
-25 -7z"/>
<path d="M43632 13806 c-26 -20 -64 -95 -56 -108 3 -4 21 -8 40 -8 45 0 74
-16 74 -40 0 -14 19 -26 79 -49 138 -53 210 -62 294 -37 46 14 48 13 115 -20
101 -52 185 -65 396 -63 100 1 204 -3 231 -9 52 -11 72 -4 62 22 -9 23 -107
96 -157 118 -25 11 -65 32 -90 48 -60 39 -117 58 -218 74 l-83 13 -10 -25 c-9
-25 -11 -25 -92 -19 -45 4 -100 7 -123 7 -33 0 -59 11 -130 58 l-89 57 -109 0
c-93 0 -113 -3 -134 -19z"/>
<path d="M46225 13550 c-33 -4 -90 -16 -127 -28 -69 -22 -83 -21 -258 8 -54 8
-133 2 -158 -14 -22 -13 4 -32 71 -51 80 -24 189 -24 242 -1 57 25 152 43 290
56 153 14 182 19 164 31 -16 10 -136 10 -224 -1z"/>
<path d="M46548 13534 c-28 -9 -63 -29 -82 -49 -19 -19 -67 -50 -108 -69 -95
-45 -109 -61 -111 -126 l-2 -51 35 6 c54 10 105 41 174 104 44 39 84 65 124
80 51 18 182 101 182 115 0 11 -170 2 -212 -10z"/>
<path d="M45385 13515 c-50 -17 -97 -18 -144 -4 -30 9 -45 7 -93 -11 -32 -12
-58 -27 -58 -35 0 -7 18 -20 40 -29 33 -13 56 -14 152 -5 187 17 319 53 292
79 -17 16 -147 19 -189 5z"/>
<path d="M45585 13393 c-6 -4 -18 -20 -28 -35 -20 -33 -23 -31 113 -83 98 -38
128 -43 136 -20 21 53 -174 174 -221 138z"/>
<path d="M48955 13163 c-87 -149 -105 -263 -66 -423 40 -164 21 -274 -74 -421
-55 -86 -93 -129 -113 -129 -31 0 -125 65 -190 130 -62 62 -76 71 -177 109
-237 90 -322 136 -349 189 -13 26 -13 32 9 78 13 27 39 80 57 119 22 46 52 88
91 126 31 31 57 63 57 71 0 22 -39 54 -101 82 -71 33 -219 50 -390 44 -107 -3
-131 -7 -148 -22 -27 -24 -27 -56 0 -108 l21 -41 -49 7 c-100 13 -202 18 -236
12 -40 -7 -89 -53 -117 -107 -25 -48 -60 -188 -60 -239 l0 -43 -43 5 c-24 3
-111 35 -194 72 -151 66 -195 76 -236 55 -12 -7 -71 -56 -132 -109 -178 -156
-295 -250 -382 -307 -45 -29 -92 -66 -106 -82 -14 -17 -43 -87 -68 -163 -63
-195 -90 -217 -322 -263 -153 -30 -238 -60 -387 -136 -140 -71 -253 -144 -313
-203 -37 -35 -47 -54 -57 -100 -13 -62 -17 -63 -65 -7 l-22 24 -18 -44 c-31
-77 -31 -172 0 -279 33 -113 34 -212 4 -343 -31 -132 -25 -166 52 -290 102
-164 180 -330 191 -406 6 -36 26 -130 45 -209 45 -182 42 -194 -57 -283 -39
-34 -70 -68 -70 -75 0 -22 140 -142 202 -174 50 -24 74 -30 128 -30 111 0 227
44 314 120 31 26 67 45 104 56 31 8 103 29 160 45 71 21 139 32 226 39 166 11
193 26 238 130 24 53 29 57 124 109 186 102 169 96 271 93 114 -3 138 6 222
84 l64 59 160 3 c255 5 408 -23 582 -108 116 -56 170 -100 224 -179 56 -82 72
-94 106 -81 15 6 50 31 78 56 66 59 209 165 215 160 11 -12 -12 -101 -39 -154
-29 -55 -51 -152 -34 -152 5 0 31 18 57 41 27 23 51 39 53 37 2 -2 9 -35 15
-73 16 -111 18 -115 51 -127 41 -14 142 -137 180 -218 82 -174 285 -268 524
-241 84 10 122 26 155 66 7 8 26 15 42 15 29 0 54 -20 92 -75 l19 -27 101 4
c122 6 192 29 279 91 71 51 79 54 124 43 18 -4 41 -5 52 -1 24 7 157 172 176
218 7 18 19 80 25 137 6 58 16 125 21 150 15 66 87 194 146 262 70 78 82 103
142 307 98 330 103 353 108 511 5 137 3 154 -31 320 -20 96 -44 185 -52 198
-16 24 -109 87 -202 137 -80 43 -106 90 -118 213 -4 37 -12 70 -18 74 -6 5
-35 5 -64 2 -75 -8 -94 8 -147 121 -64 139 -102 173 -246 219 -63 20 -131 48
-151 61 l-37 24 6 125 c7 150 -4 203 -52 245 -19 16 -49 34 -69 41 -32 10 -34
13 -26 36 13 33 13 210 0 234 -6 11 -34 26 -67 35 -89 26 -127 51 -162 110
-26 42 -108 221 -171 373 -16 38 -38 24 -85 -55z"/>
<path d="M35122 12727 c-6 -7 -20 -64 -32 -127 -34 -194 -64 -275 -124 -338
-44 -47 -88 -68 -219 -101 -63 -16 -134 -39 -158 -52 -24 -12 -84 -61 -133
-110 -105 -103 -105 -103 -26 -234 70 -116 90 -163 90 -217 0 -39 -6 -54 -39
-95 -21 -26 -48 -57 -59 -67 -65 -57 -119 -188 -129 -307 -7 -91 3 -127 58
-200 52 -69 73 -110 110 -217 37 -105 70 -152 106 -152 37 0 249 68 315 101
51 26 58 33 63 66 29 182 61 315 174 721 62 224 96 396 111 567 14 160 36 265
56 265 7 0 21 -11 30 -25 9 -14 23 -25 32 -25 13 0 14 14 9 98 -12 190 -84
400 -151 441 -38 24 -69 27 -84 8z"/>
<path d="M53490 9907 c0 -19 53 -91 82 -111 12 -9 35 -16 50 -16 33 0 49 -22
84 -113 15 -38 43 -90 63 -115 35 -46 36 -49 39 -150 l4 -103 -42 -88 c-51
-108 -51 -141 0 -153 95 -22 110 -29 110 -49 0 -29 -36 -94 -65 -117 -14 -11
-25 -25 -25 -31 0 -14 93 -41 122 -34 32 8 79 54 150 148 69 91 91 136 90 183
-1 30 4 37 61 73 53 33 70 51 105 112 24 41 42 86 42 103 0 63 -49 71 -119 20
-65 -47 -100 -53 -171 -26 -65 24 -83 41 -120 108 -31 56 -42 61 -57 22 -13
-34 -33 -38 -55 -12 -17 19 -102 203 -121 260 -14 44 -62 72 -123 72 -22 0
-49 7 -60 15 -24 18 -44 19 -44 2z"/>
<path d="M53468 8873 c-75 -79 -140 -172 -175 -251 -41 -94 -95 -139 -298
-248 -73 -39 -126 -76 -158 -109 -66 -68 -277 -346 -271 -356 6 -10 62 -25
127 -34 44 -6 48 -9 43 -28 -15 -52 -19 -127 -6 -127 15 0 152 89 162 106 5 8
33 12 77 11 111 -2 133 22 275 294 86 164 93 174 170 242 231 206 326 314 326
371 0 36 -27 136 -37 136 -4 0 -17 -9 -29 -21 -51 -47 -134 -17 -136 49 -1 18
-2 32 -3 32 -1 0 -31 -30 -67 -67z"/>
<path d="M49892 8648 c-27 -24 -81 -59 -118 -78 -97 -50 -146 -48 -257 9 -100
51 -146 54 -161 8 -15 -43 17 -187 62 -277 48 -96 88 -121 204 -128 107 -6
130 10 227 162 93 147 123 219 119 288 -2 28 -8 53 -14 55 -6 2 -34 -15 -62
-39z"/>
</g>
</svg>
