<?xml version="1.0" encoding="UTF-8"?>
<svg version="1.1" xmlns="http://www.w3.org/2000/svg" width="1158" height="215">
<path d="M0 0 C7.62431744 9.37022206 7.62431744 9.37022206 8.4375 15.0625 C7.92333351 18.51476071 6.60648436 20.91555004 5 24 C4.29241674 27.2366963 4.29241674 27.2366963 4 30 C4.57105469 29.71125 5.14210938 29.4225 5.73046875 29.125 C17.76741267 23.61364889 28.8804125 25.656198 41 30 C44.60501565 31.41762616 48.17458399 32.91752524 51.74633789 34.41650391 C62.1138293 38.75167955 70.81039945 41.54441383 82.19921875 40.84765625 C83.12347656 40.89792969 84.04773437 40.94820312 85 41 C87 44 87 44 86.8125 46.0625 C86 48 86 48 83 50 C80.3125 50.125 80.3125 50.125 78 50 C82.42242565 61.88914632 86.8548162 73.76416224 91.61328125 85.5234375 C93.33960892 89.85141392 94.98491676 94.20746388 96.59472656 98.57983398 C98.06394456 102.55856489 99.59804043 106.50274172 101.19140625 110.43359375 C101.56346191 111.36671387 101.93551758 112.29983398 102.31884766 113.26123047 C103.04902869 115.08971086 103.79166716 116.91327957 104.54833984 118.73095703 C106.59462311 123.90452289 107.50773915 127.43889699 106 133 C101.61520581 141.18494916 93.59299897 145.88973943 85 149 C74.73878175 151.4431472 64.58209267 150.33226735 55 146 C49.21620715 142.32465598 42.90613671 137.765127 40.42041016 131.11499023 C39.65096339 127.24407423 41.645323 123.5956321 43 120 C43.41185547 118.8764209 43.82371094 117.7528418 44.24804688 116.59521484 C45.70856689 112.61869142 47.19664227 108.65272983 48.6875 104.6875 C48.95322815 103.97890839 49.2189563 103.27031677 49.49273682 102.54025269 C52.98911463 93.22091253 56.57548061 83.94725997 60.32495117 74.72631836 C63.48386151 66.91102116 66.27292449 58.9746299 69 51 C65.00586507 49.31904191 61.00443652 47.65626262 57 46 C55.78570313 45.49597656 54.57140625 44.99195313 53.3203125 44.47265625 C32.17881914 35.11203221 32.17881914 35.11203221 10 37 C5.91174826 40.78163286 5.12200707 44.29945236 4.87695217 49.72358418 C4.87787396 50.71451163 4.87879576 51.70543909 4.87974548 52.72639465 C4.87837082 53.86917877 4.87699615 55.01196289 4.87557983 56.18937683 C4.87917511 57.43375015 4.88277039 58.67812347 4.88647461 59.96020508 C4.88632858 61.27766724 4.88618256 62.59512939 4.8860321 63.95251465 C4.88574556 67.55748919 4.89161926 71.16243037 4.89860606 74.76739717 C4.90486332 78.537694 4.90544528 82.30799162 4.90663147 86.07829285 C4.90973779 93.21445111 4.91794175 100.35059403 4.92798096 107.48674554 C4.93916381 115.61246051 4.94465802 123.73817621 4.94967639 131.86389697 C4.96012494 148.57594029 4.97771085 165.28796819 5 182 C5.83249268 181.98428955 6.66498535 181.9685791 7.52270508 181.95239258 C10.61447856 181.90123358 13.70603618 181.8636352 16.7980957 181.83520508 C18.79327701 181.81271667 20.78826213 181.77459802 22.78320312 181.73632812 C24.03681641 181.72666016 25.29042969 181.71699219 26.58203125 181.70703125 C27.73936768 181.6913208 28.8967041 181.67561035 30.08911133 181.65942383 C33 182 33 182 34.9128418 183.38549805 C36 185 36 185 35.8125 187.125 C35 189 35 189 33 190 C30.53447402 190.15765719 28.093293 190.25878546 25.625 190.31640625 C24.87621582 190.3373233 24.12743164 190.35824036 23.35595703 190.37979126 C20.90407994 190.44626883 18.45210411 190.50504367 16 190.5625 C15.16919922 190.58301422 14.33839844 190.60352844 13.48242188 190.62466431 C2.65641459 190.89048145 -8.17079714 191.11721127 -19 191.1875 C-20.05316406 191.20047119 -21.10632813 191.21344238 -22.19140625 191.22680664 C-23.15949219 191.22801514 -24.12757813 191.22922363 -25.125 191.23046875 C-26.36636719 191.23663208 -26.36636719 191.23663208 -27.6328125 191.24291992 C-30.36363939 190.96268346 -32.50583274 190.11976793 -35 189 C-34.1875 186.0625 -34.1875 186.0625 -33 183 C-29.76248322 181.92082774 -27.42248229 181.88574399 -24.01953125 181.90234375 C-22.85615234 181.90556641 -21.69277344 181.90878906 -20.49414062 181.91210938 C-19.27919922 181.92048828 -18.06425781 181.92886719 -16.8125 181.9375 C-15.58595703 181.94201172 -14.35941406 181.94652344 -13.09570312 181.95117188 C-10.06375332 181.96296935 -7.03190094 181.97943079 -4 182 C-4.06052459 163.9628975 -4.13801741 145.92595157 -4.23571491 127.88901234 C-4.28068183 119.51415579 -4.3200944 111.13934185 -4.34643555 102.7644043 C-4.3694084 95.46486342 -4.40279838 88.16545728 -4.44870156 80.86602324 C-4.4726435 77.00095633 -4.49136587 73.13602294 -4.49761391 69.27088356 C-4.50366045 65.63221267 -4.52364429 61.99388347 -4.55427551 58.35533905 C-4.56724983 56.38467381 -4.56548462 54.41392876 -4.5632782 52.44322205 C-4.57581635 51.26678131 -4.58835449 50.09034058 -4.60127258 48.87825012 C-4.60588155 47.85782529 -4.61049051 46.83740046 -4.61523914 45.78605366 C-5.06417833 42.53528469 -6.08978655 40.64575392 -8 38 C-14.00202276 34.10712178 -20.86065095 34.76339585 -27.5625 36.0625 C-34.93838636 37.80545918 -41.87579665 40.39184185 -48.90625 43.17529297 C-52.54923377 44.61022757 -56.21193751 45.99232873 -59.875 47.375 C-60.55933105 47.63772705 -61.24366211 47.9004541 -61.94873047 48.17114258 C-66.77288677 50 -66.77288677 50 -69 50 C-68.74943848 50.62116699 -68.49887695 51.24233398 -68.24072266 51.88232422 C-62.12845081 67.05350961 -56.07937264 82.24700493 -50.30712891 97.55126953 C-49.3933567 99.96216721 -48.47228697 102.36905386 -47.54052734 104.77294922 C-46.30221332 107.97032635 -45.08802468 111.17599973 -43.88891602 114.38827515 C-43.20218928 116.21101117 -42.492923 118.02520452 -41.78320312 119.83911133 C-41.37392578 120.94923584 -40.96464844 122.05936035 -40.54296875 123.203125 C-40.17196045 124.17926758 -39.80095215 125.15541016 -39.41870117 126.16113281 C-38.85888279 129.95679935 -40.04947274 131.77494152 -42 135 C-42.36738281 135.61746094 -42.73476563 136.23492187 -43.11328125 136.87109375 C-48.44644577 143.83721418 -58.36531528 148.84117161 -67 150 C-78.0341099 150.89372853 -88.1287306 148.80535735 -97 142 C-101.13598833 138.42801008 -103.74869545 134.93555228 -106 130 C-105.59950601 125.78182413 -104.43417164 122.06249462 -102.9609375 118.10546875 C-102.54875977 116.99349121 -102.13658203 115.88151367 -101.71191406 114.73583984 C-101.27073242 113.5648877 -100.82955078 112.39393555 -100.375 111.1875 C-99.92350586 109.97787598 -99.47201172 108.76825195 -99.00683594 107.52197266 C-96.27497932 100.24770057 -93.42703357 93.03787805 -90.40820312 85.87866211 C-88.10150071 80.36736925 -86.09405304 74.77373647 -84.14111328 69.12866211 C-81.91283182 62.69115243 -79.49209968 56.34051909 -77 50 C-78.670625 49.814375 -78.670625 49.814375 -80.375 49.625 C-84 49 -84 49 -86 47 C-85.44444444 42.44444444 -85.44444444 42.44444444 -84 41 C-82.16579243 41.06114025 -80.33251125 41.15020978 -78.5 41.25 C-65.26734398 41.30759589 -52.97263236 35.81940884 -40.95092773 30.76757812 C-30.5805403 26.44120361 -19.16509744 23.38583826 -8.1875 27.5 C-7.135625 27.995 -6.08375 28.49 -5 29 C-5.11617644 27.62422639 -5.24345777 26.24938955 -5.375 24.875 C-5.47941406 23.72644531 -5.47941406 23.72644531 -5.5859375 22.5546875 C-5.90598513 19.88011873 -5.90598513 19.88011873 -7.28125 17.15625 C-8.14114531 13.38018799 -7.28930166 11.75821111 -5.33203125 8.49609375 C-4.93371094 7.87863281 -4.53539062 7.26117187 -4.125 6.625 C-3.73441406 5.98433594 -3.34382813 5.34367188 -2.94140625 4.68359375 C-1.97914056 3.11111079 -0.99195689 1.55392388 0 0 Z M73 57 C68.95742435 67.48629917 64.96256908 77.97526867 61.29711914 88.59985352 C59.02908271 95.08838326 56.45643014 101.44761273 53.80273438 107.78735352 C51.3052413 113.86211597 49.76313504 119.53517152 48 126 C65.16 126 82.32 126 100 126 C97.5566789 118.67003671 94.9973249 111.4283446 92.3125 104.1875 C91.87478271 103.00494629 91.43706543 101.82239258 90.98608398 100.60400391 C87.98115848 92.52870962 84.87247151 84.50302656 81.60083008 76.53198242 C79.51325426 71.41924304 77.68556855 66.25897388 76 61 C75.34 61 74.68 61 74 61 C73.67 59.68 73.34 58.36 73 57 Z M-73 58 C-78.87367965 71.89351148 -84.53203992 85.88381918 -89.76782227 100.03076172 C-91.11896031 103.67545544 -92.50356655 107.30424353 -93.92578125 110.921875 C-94.2498999 111.74671387 -94.57401855 112.57155273 -94.90795898 113.42138672 C-95.54129971 115.02832293 -96.17742687 116.63416436 -96.81665039 118.23876953 C-98.42280039 122.00381202 -98.42280039 122.00381202 -99 126 C-81.84 126 -64.68 126 -47 126 C-47.80553838 121.97230808 -48.76674477 118.70211237 -50.22265625 114.90625 C-50.90110596 113.12831055 -50.90110596 113.12831055 -51.59326172 111.31445312 C-52.08293473 110.0429406 -52.57268241 108.77145683 -53.0625 107.5 C-53.56303837 106.19220099 -54.063198 104.88425696 -54.56298828 103.57617188 C-55.56656182 100.95106678 -56.5721666 98.32675507 -57.57958984 95.703125 C-59.18780479 91.51037761 -60.78527478 87.31362512 -62.38061523 83.1159668 C-65.56606054 74.73589155 -68.77236502 66.36391949 -72 58 C-72.33 58 -72.66 58 -73 58 Z M-98 132 C-91.36863174 139.95764191 -85.30569175 143.00760005 -75 144 C-66.02847324 144.11551322 -57.4976984 142.01310787 -50.375 136.375 C-49.59125 135.59125 -48.8075 134.8075 -48 134 C-48 133.34 -48 132.68 -48 132 C-64.5 132 -81 132 -98 132 Z M49 132 C53.08267441 138.80445735 57.58554802 140.8431844 65.16015625 142.828125 C75.4841807 144.74772907 83.86986548 143.66387008 93.02734375 138.51171875 C95.5883036 136.67431319 95.5883036 136.67431319 99 132 C82.5 132 66 132 49 132 Z " fill="#FDFDFD" transform="translate(1045,6)"/>
<path d="M0 0 C10.89 0 21.78 0 33 0 C33 1.32 33 2.64 33 4 C30.69 4.66 28.38 5.32 26 6 C25.81760508 11.00175343 26.35322973 15.04645299 27.79296875 19.83203125 C27.97928864 20.46198502 28.16560852 21.09193878 28.35757446 21.74098206 C28.95883576 23.76754013 29.57294856 25.78993699 30.1875 27.8125 C30.81405357 29.90892116 31.4376133 32.00621784 32.0610199 34.10357666 C32.47196764 35.48522056 32.8840385 36.86653093 33.29725647 38.24749756 C34.89569042 43.59996548 36.37369681 48.97800777 37.8125 54.375 C39.38388147 60.19713552 41.29936119 65.59872237 44 71 C44.2475 69.845 44.495 68.69 44.75 67.5 C45.79885787 62.82509062 46.88196902 58.15880814 48 53.5 C48.1659668 52.78134766 48.33193359 52.06269531 48.50292969 51.32226562 C48.93901342 49.53166642 49.46273961 47.76288565 50 46 C50.66 45.67 51.32 45.34 52 45 C52.48035283 42.94134502 52.94790021 40.87897944 53.35546875 38.8046875 C54.09678587 35.57883483 55.13339512 32.51195815 56.1875 29.375 C57.71445766 24.44527154 58.55635411 21.05815084 57 16 C56.7834375 15.24847656 56.566875 14.49695312 56.34375 13.72265625 C55.06401779 10.0671249 54.05464251 7.68006258 50.734375 5.5390625 C48.51212282 4.55372427 46.32364301 3.71000203 44 3 C44 2.01 44 1.02 44 0 C55.55 0 67.1 0 79 0 C78.67 1.32 78.34 2.64 78 4 C74.9375 5.25 74.9375 5.25 72 6 C71.77240067 11.87848318 72.43197936 16.60649195 74.16015625 22.20703125 C74.38567169 22.96669189 74.61118713 23.72635254 74.84353638 24.5090332 C75.57156783 26.94719625 76.31618477 29.37987752 77.0625 31.8125 C77.56642838 33.48193462 78.0700899 35.15144982 78.57348633 36.82104492 C81.97847442 48.03458049 85.6380973 59.1175738 90 70 C90.31710938 68.87851563 90.63421875 67.75703125 90.9609375 66.6015625 C91.43193689 64.94260757 91.90333019 63.28376445 92.375 61.625 C92.63176514 60.72120605 92.88853027 59.81741211 93.15307617 58.88623047 C94.92707557 52.67290573 96.74476278 46.47373959 98.58984375 40.28125 C99.04317708 38.75571015 99.49646464 37.23015671 99.94970703 35.70458984 C100.62754845 33.42350821 101.30708749 31.1430059 101.99212646 28.86407471 C102.64107182 26.70493852 103.28390633 24.54405943 103.92578125 22.3828125 C104.48906128 20.50166748 104.48906128 20.50166748 105.0637207 18.58251953 C107.04171055 12.21924406 107.04171055 12.21924406 106 6 C103.6859378 5.26924352 101.35171131 4.59861742 99 4 C99 2.68 99 1.36 99 0 C107.91 0 116.82 0 126 0 C125.67 1.32 125.34 2.64 125 4 C123.01753602 5.03432904 121.01586684 6.03238392 119 7 C116.02571829 10.20246116 114.98422599 13.6069212 113.72265625 17.74609375 C113.41146095 18.75277855 113.41146095 18.75277855 113.09397888 19.77980042 C112.64498189 21.23487269 112.19955958 22.6910518 111.75732422 24.14819336 C110.56353373 28.08149392 109.34447284 32.00697988 108.12890625 35.93359375 C107.87626007 36.75225922 107.62361389 37.57092468 107.36331177 38.41439819 C104.26436922 48.43017758 100.99882729 58.39199419 97.72732544 68.35250854 C94.93800808 76.84750934 92.21816922 85.33322912 90 94 C87.36 94 84.72 94 82 94 C78.80163839 84.68169647 75.85967281 75.30244848 73 65.875 C70.5937765 57.94828483 68.1294075 50.15452627 64.91015625 42.515625 C63.88952498 39.69465274 63.46118296 36.95868563 63 34 C61.49720613 38.47823297 59.9974686 42.95748381 58.5 47.4375 C58.27546143 48.10917206 58.05092285 48.78084412 57.81958008 49.47286987 C54.29734435 60.01838715 50.85663534 70.58718269 47.51367188 81.19116211 C47.21009766 82.15030518 46.90652344 83.10944824 46.59375 84.09765625 C46.33271484 84.92789307 46.07167969 85.75812988 45.80273438 86.61352539 C44.96032052 89.11796439 44.00316822 91.5560015 43 94 C39.535 94.495 39.535 94.495 36 95 C33.05849766 88.1165859 30.85381886 81.24674644 29 74 C27.88533883 69.8385983 26.57932043 65.84011788 25.0625 61.8125 C23.2356409 56.87998042 21.92924936 51.93140642 20.70703125 46.8203125 C19.91964743 43.67947761 18.94038959 40.65818993 17.87890625 37.6015625 C16.70611983 34.1301147 15.64036589 30.62674175 14.5625 27.125 C12.78281217 21.35802975 10.85466438 15.67900324 8.69921875 10.0390625 C8 8 8 8 8 6 C5.36 5.34 2.72 4.68 0 4 C0 2.68 0 1.36 0 0 Z " fill="#FDFDFD" transform="translate(164,18)"/>
<path d="M0 0 C10.89 0 21.78 0 33 0 C33 1.32 33 2.64 33 4 C31.329375 4.309375 31.329375 4.309375 29.625 4.625 C25.81266962 5.58343906 25.81266962 5.58343906 24.79931641 8.65283203 C23.96073244 12.16443442 23.68170464 15.32245844 23.5859375 18.9296875 C23.55032715 20.09226074 23.5147168 21.25483398 23.47802734 22.45263672 C23.44402832 23.9120166 23.4100293 25.37139648 23.375 26.875 C23.25125 31.53625 23.1275 36.1975 23 41 C35.54 41 48.08 41 61 41 C60.87625 35.9675 60.7525 30.935 60.625 25.75 C60.59100098 24.16799805 60.55700195 22.58599609 60.52197266 20.95605469 C60.4863623 19.70727539 60.45075195 18.45849609 60.4140625 17.171875 C60.3826416 15.8940918 60.3512207 14.61630859 60.31884766 13.29980469 C60.02323435 10.24045596 59.80980802 8.45674631 58 6 C54.45411499 4.70079254 54.45411499 4.70079254 51 4 C51 2.68 51 1.36 51 0 C61.89 0 72.78 0 84 0 C84 1.32 84 2.64 84 4 C83.43410156 4.18175781 82.86820312 4.36351562 82.28515625 4.55078125 C81.55167969 4.80214844 80.81820312 5.05351562 80.0625 5.3125 C79.33160156 5.55613281 78.60070312 5.79976562 77.84765625 6.05078125 C75.64067976 6.91240441 75.64067976 6.91240441 75 10 C74.90493012 12.32984028 74.87205353 14.66236192 74.87060547 16.99414062 C74.86885315 17.70177048 74.86710083 18.40940033 74.86529541 19.13847351 C74.86089389 21.47775728 74.86380891 23.81696546 74.8671875 26.15625 C74.86651397 27.7814536 74.86554354 29.4066571 74.86428833 31.03186035 C74.86281366 34.43807942 74.86495852 37.84427226 74.86962891 41.25048828 C74.87532606 45.61867612 74.87204582 49.98680251 74.86605644 54.3549881 C74.86244462 57.71096256 74.86359229 61.06692244 74.86618423 64.42289734 C74.86685178 66.03366605 74.86603108 67.64443608 74.86370468 69.25520325 C74.861168 71.5054577 74.86503313 73.75561236 74.87060547 76.00585938 C74.87140106 77.28698608 74.87219666 78.56811279 74.87301636 79.88806152 C74.85733836 83.03415789 74.85733836 83.03415789 76 86 C77.8653245 87.01754868 77.8653245 87.01754868 80.0625 87.6875 C80.79597656 87.93886719 81.52945313 88.19023438 82.28515625 88.44921875 C82.85105469 88.63097656 83.41695313 88.81273438 84 89 C84 90.32 84 91.64 84 93 C73.11 93 62.22 93 51 93 C50.67 91.68 50.34 90.36 50 89 C50.7425 88.87625 51.485 88.7525 52.25 88.625 C54.84871755 88.03438237 56.76445586 87.43713552 59 86 C60.22310252 82.33069244 60.23126337 78.87679856 60.31640625 75.05078125 C60.33505737 74.36576538 60.3537085 73.68074951 60.3729248 72.97497559 C60.44112075 70.42094577 60.50133438 67.86670785 60.5625 65.3125 C60.706875 59.599375 60.85125 53.88625 61 48 C48.46 48 35.92 48 23 48 C23.144375 53.32125 23.28875 58.6425 23.4375 64.125 C23.48060303 65.79320801 23.52370605 67.46141602 23.56811523 69.18017578 C23.6062804 70.51856407 23.64475303 71.85694364 23.68359375 73.1953125 C23.70006958 73.877146 23.71654541 74.55897949 23.73352051 75.26147461 C23.85396219 79.25552275 24.24978301 83.0753773 25 87 C27.64 87.66 30.28 88.32 33 89 C33 90.32 33 91.64 33 93 C22.11 93 11.22 93 0 93 C0.33 91.35 0.66 89.7 1 88 C1.94875 87.896875 2.8975 87.79375 3.875 87.6875 C7.29107501 87.31460705 7.29107501 87.31460705 9 84 C9.20396384 81.53967894 9.29373623 79.19157414 9.29052734 76.73046875 C9.29724457 75.99357819 9.30396179 75.25668762 9.31088257 74.49746704 C9.32988657 72.06074287 9.33378761 69.62429366 9.3359375 67.1875 C9.34236263 65.49503465 9.34909078 63.80257042 9.35610962 62.11010742 C9.36808757 58.56263655 9.3717898 55.01526311 9.37060547 51.46777344 C9.37040199 46.91774759 9.39773141 42.36834431 9.43214989 37.81846619 C9.45436241 34.3234977 9.45844479 30.82868054 9.45738602 27.33364868 C9.45974946 25.65587208 9.46861465 23.97809177 9.48405075 22.30038452 C9.50360214 19.95631965 9.49791731 17.61361708 9.48583984 15.26953125 C9.49707886 14.57437408 9.50831787 13.87921692 9.51989746 13.16299438 C9.4782572 9.98988651 9.39912225 8.41048005 7.14151001 6.08862305 C4.76172275 4.87887327 2.63666669 4.36620371 0 4 C0 2.68 0 1.36 0 0 Z " fill="#FDFDFD" transform="translate(323,18)"/>
<path d="M0 0 C6.22553948 -0.09948619 12.45060782 -0.17175931 18.67675781 -0.21972656 C20.79109772 -0.23974016 22.90538299 -0.26695972 25.01953125 -0.30175781 C28.07305448 -0.35072941 31.12584078 -0.37307182 34.1796875 -0.390625 C35.11239471 -0.41127014 36.04510193 -0.43191528 37.006073 -0.45318604 C44.87919993 -0.45582847 51.11297391 1.71848469 57.875 5.6875 C63.52038732 11.83100973 64.73237229 18.59047744 64.4453125 26.78125 C63.3773414 34.50062008 59.71460057 40.07562587 53.74609375 44.94140625 C51.84609481 46.09330717 50.17128802 46.57714522 48 47 C48 47.66 48 48.32 48 49 C48.99 49.495 48.99 49.495 50 50 C51.30102606 52.37773729 52.51139098 54.74880748 53.6875 57.1875 C54.03981689 57.90276855 54.39213379 58.61803711 54.75512695 59.35498047 C56.49155151 62.88234841 58.2029578 66.42138765 59.90625 69.96484375 C60.20700439 70.58270752 60.50775879 71.20057129 60.81762695 71.8371582 C61.63935848 73.5260552 62.45086294 75.2199171 63.26171875 76.9140625 C65.83511583 81.48256518 68.64597205 86.05151955 73.8125 87.875 C74.864375 88.24625 75.91625 88.6175 77 89 C77 90.32 77 91.64 77 93 C73.62684918 93.29210605 70.25693816 93.46842879 66.875 93.625 C65.92367187 93.70878906 64.97234375 93.79257813 63.9921875 93.87890625 C61.0603066 93.98070767 58.80316457 93.87832677 56 93 C53.07491447 90.13879706 51.6626125 86.6984416 50 83 C49.39089103 81.75982765 48.77633491 80.52232031 48.15722656 79.28710938 C46.11754852 75.19386676 44.14942286 71.06844023 42.1875 66.9375 C41.16987954 64.80292623 40.15085298 62.66904658 39.12947083 60.53627014 C38.49936207 59.21974453 37.87157924 57.90210258 37.24638367 56.58323669 C35.93664557 53.58510995 35.93664557 53.58510995 34 51 C32.14712498 50.92773498 30.29166122 50.9161878 28.4375 50.9375 C27.42558594 50.94652344 26.41367187 50.95554688 25.37109375 50.96484375 C24.58863281 50.97644531 23.80617188 50.98804688 23 51 C23.09342811 55.80585058 23.19949659 60.61119094 23.31738281 65.41650391 C23.35570852 67.0518424 23.39055507 68.68726624 23.421875 70.32275391 C23.46744842 72.6712091 23.52545367 75.01907495 23.5859375 77.3671875 C23.59748871 78.10057343 23.60903992 78.83395935 23.62094116 79.58956909 C23.61868097 83.74977105 23.61868097 83.74977105 26 87 C28.31765729 87.71927295 30.65095874 88.3909893 33 89 C33 90.32 33 91.64 33 93 C22.11 93 11.22 93 0 93 C0 91.68 0 90.36 0 89 C3.96 88.01 3.96 88.01 8 87 C8.02313695 76.73422536 8.04092201 66.46845689 8.05181217 56.20266151 C8.05703803 51.4362051 8.06413031 46.66976648 8.07543945 41.90332031 C8.08627885 37.3062561 8.09227908 32.70920903 8.09487724 28.11213303 C8.09672958 26.35539861 8.10034657 24.59866516 8.10573006 22.84193802 C8.11295443 20.38760576 8.11399035 17.93334503 8.11352539 15.47900391 C8.11712067 14.74748611 8.12071594 14.01596832 8.12442017 13.26228333 C8.17586897 9.50599835 8.17586897 9.50599835 7 6 C4.6859378 5.26924352 2.35171131 4.59861742 0 4 C0 2.68 0 1.36 0 0 Z M23 6 C23 18.54 23 31.08 23 44 C35.68677349 45.03952272 35.68677349 45.03952272 45 40 C49.63488331 33.81537243 50.69264753 27.53254194 50 20 C48.81155272 15.02774632 47.09565088 11.22687645 43 8 C40.02349329 6.27273379 37.54255835 5.63722128 34.125 5.3125 C33.30257812 5.22613281 32.48015625 5.13976562 31.6328125 5.05078125 C28.41930698 4.90829772 28.41930698 4.90829772 23 6 Z " fill="#FDFDFD" transform="translate(499,18)"/>
<path d="M0 0 C12.71179749 13.80332929 14.3301638 28.6399388 13.73046875 46.68701172 C13.08844555 59.14054215 7.70886254 69.44288746 -0.37890625 78.80859375 C-1.03890625 78.80859375 -1.69890625 78.80859375 -2.37890625 78.80859375 C-2.87390625 80.29359375 -2.87390625 80.29359375 -3.37890625 81.80859375 C-5.9609375 83.16015625 -5.9609375 83.16015625 -9.19140625 84.43359375 C-10.24972656 84.85898438 -11.30804688 85.284375 -12.3984375 85.72265625 C-21.85895082 89.16960606 -31.14147013 88.6396974 -40.5546875 85.1328125 C-51.11688825 80.18041132 -57.24905728 72.38112313 -61.19140625 61.62109375 C-67.32428028 43.61942144 -65.51774714 24.8153765 -57.3671875 7.79296875 C-57.04105469 7.138125 -56.71492188 6.48328125 -56.37890625 5.80859375 C-55.71890625 5.80859375 -55.05890625 5.80859375 -54.37890625 5.80859375 C-54.13140625 5.2259375 -53.88390625 4.64328125 -53.62890625 4.04296875 C-52.19365179 1.47745139 -50.60227612 -0.02865423 -48.37890625 -1.94140625 C-47.67765625 -2.555 -46.97640625 -3.16859375 -46.25390625 -3.80078125 C-44.37890625 -5.19140625 -44.37890625 -5.19140625 -42.37890625 -5.19140625 C-42.04890625 -5.85140625 -41.71890625 -6.51140625 -41.37890625 -7.19140625 C-38.46397217 -8.20731722 -35.41338595 -8.65347576 -32.37890625 -9.19140625 C-31.22648437 -9.43310547 -31.22648437 -9.43310547 -30.05078125 -9.6796875 C-19.08296873 -11.47739187 -8.06823913 -7.43231881 0 0 Z M-41.37890625 4.80859375 C-48.38151939 14.50451964 -48.57869798 26.39222824 -48.62890625 37.87109375 C-48.64953125 39.02287109 -48.67015625 40.17464844 -48.69140625 41.36132812 C-48.74302055 52.8648647 -47.18324256 65.16766711 -40.37890625 74.80859375 C-34.93266157 80.03102015 -30.17711439 82.15767048 -22.6484375 82.01171875 C-17.38636782 81.54075898 -14.27297122 78.93663858 -10.75390625 75.24609375 C-2.16069895 64.88481503 -2.19876871 52.82886662 -2.19140625 39.99609375 C-2.17916016 38.88427734 -2.16691406 37.77246094 -2.15429688 36.62695312 C-2.13165207 23.72695981 -3.65418356 11.07530548 -12.75 1.25 C-17.03076378 -2.53801399 -21.83519351 -3.72405691 -27.3984375 -3.4765625 C-33.46715882 -2.60276239 -37.47215078 0.25071236 -41.37890625 4.80859375 Z " fill="#FDFDFD" transform="translate(478.37890625,25.19140625)"/>
<path d="M0 0 C4.27829235 3.12199712 6.76528989 5.28987776 8.45703125 10.41796875 C9.11703125 10.41796875 9.77703125 10.41796875 10.45703125 10.41796875 C19.17301085 26.6097095 21.8207767 42.92787776 17.48828125 61 C14.25973202 71.70068401 8.45586973 82.25130771 -1.390625 88.11328125 C-11.73308765 92.98523539 -22.25999938 94.12543929 -33.19921875 90.38671875 C-42.95929772 86.35255278 -50.13660803 79.04738635 -54.54296875 69.41796875 C-61.37938522 52.9373219 -61.59182909 35.2615515 -54.73046875 18.66796875 C-49.4699437 7.84915308 -43.02379222 0.53373565 -31.54296875 -3.58203125 C-21.1201846 -6.12547516 -9.24487996 -5.75142301 0 0 Z M-35.79296875 8.91796875 C-45.69290203 23.37672689 -45.34115359 44.75581517 -42.41796875 61.41796875 C-40.51969664 69.56102388 -37.8528319 78.38199887 -30.91796875 83.60546875 C-25.34576155 86.59795039 -19.68682334 87.51510359 -13.4921875 85.875 C-7.1485742 83.25133081 -3.6842254 78.35885997 -0.54296875 72.41796875 C5.91586346 55.36002727 6.02530762 31.58866379 -1.2109375 14.8125 C-4.56033747 8.79143788 -8.81838538 3.48546488 -15.54296875 1.41796875 C-23.76411423 0.1486357 -30.46602383 2.50961396 -35.79296875 8.91796875 Z " fill="#FDFDFD" transform="translate(745.54296875,20.58203125)"/>
<path d="M0 0 C19.57740155 -1.95348256 19.57740155 -1.95348256 24.703125 2.1796875 C26.449496 5.37571598 27.70247866 8.59818903 29 12 C30.42679001 14.51585044 32.01693771 16.90961488 33.625 19.3125 C34.39356244 20.49978433 35.16180417 21.68727634 35.9296875 22.875 C37.49097584 25.23166165 39.07513112 27.53720642 40.75 29.8125 C43.02630744 33.03726888 44.92361944 36.31726225 46.796875 39.78515625 C47.92617527 41.86409538 49.10976602 43.9004752 50.3125 45.9375 C52 49 52 49 52 51 C52.99 51.33 53.98 51.66 55 52 C55 52.99 55 53.98 55 55 C55.66 55 56.32 55 57 55 C57 55.99 57 56.98 57 58 C57.66 58 58.32 58 59 58 C59.433125 58.969375 59.86625 59.93875 60.3125 60.9375 C61.7014861 64.27731765 61.7014861 64.27731765 65 65 C64.88159199 58.34705455 64.75678588 51.69425039 64.62768555 45.04150391 C64.58457063 42.78176545 64.54288078 40.52199931 64.50268555 38.26220703 C64.44441046 35.00024092 64.38088578 31.73841118 64.31640625 28.4765625 C64.29969376 27.47823395 64.28298126 26.4799054 64.26576233 25.45132446 C64.13695095 19.24984178 63.69127015 13.16485051 63 7 C58.545 5.02 58.545 5.02 54 3 C54 2.01 54 1.02 54 0 C63.24 0 72.48 0 82 0 C82.495 1.485 82.495 1.485 83 3 C82.36191406 3.25394531 81.72382812 3.50789063 81.06640625 3.76953125 C80.24011719 4.11371094 79.41382813 4.45789063 78.5625 4.8125 C77.73878906 5.14894531 76.91507813 5.48539063 76.06640625 5.83203125 C73.66627512 6.88403088 73.66627512 6.88403088 73 10 C72.88003546 12.69147956 72.81468151 15.3590364 72.79467773 18.05151367 C72.78477814 18.87125168 72.77487854 19.69098969 72.76467896 20.53556824 C72.73307991 23.24633898 72.7083128 25.95712725 72.68359375 28.66796875 C72.66302285 30.54698646 72.64202634 32.42599955 72.62062073 34.30500793 C72.56541414 39.2517015 72.5159986 44.19843674 72.46777344 49.14520264 C72.41754813 54.19254262 72.36186743 59.23982207 72.30664062 64.28710938 C72.19907632 74.19135454 72.09762747 84.09565225 72 94 C64.21835327 94.16772461 64.21835327 94.16772461 62.25317383 92.65820312 C61.90794678 92.03880859 61.56271973 91.41941406 61.20703125 90.78125 C60.80419922 90.09546875 60.40136719 89.4096875 59.98632812 88.703125 C59.59896484 87.97609375 59.21160156 87.2490625 58.8125 86.5 C58.21405273 85.45585937 58.21405273 85.45585937 57.60351562 84.390625 C56.79346711 82.97729318 55.99364232 81.55805524 55.20385742 80.13330078 C51.91746286 74.30963101 48.19743519 68.73495416 44.5625 63.125 C42.01644859 59.1826426 39.50938707 55.23059112 37.125 51.1875 C33.84887895 45.64400704 30.31375713 40.27005056 26.78173828 34.88745117 C26.3226709 34.18467041 25.86360352 33.48188965 25.390625 32.7578125 C24.97844727 32.1302002 24.56626953 31.50258789 24.14160156 30.85595703 C23 29 23 29 21.97558594 26.89013672 C21.03446458 24.83177949 21.03446458 24.83177949 19 23 C18.67 22.01 18.34 21.02 18 20 C17.95356816 27.71937307 17.91807578 35.43873156 17.89637566 43.15821266 C17.88595833 46.743058 17.87183684 50.32780748 17.84912109 53.91259766 C17.82731922 57.37501334 17.81541596 60.83733707 17.81024551 64.29981613 C17.80477616 66.2573322 17.78917496 68.21481152 17.77340698 70.17227173 C17.77325592 71.37306366 17.77310486 72.57385559 17.77294922 73.81103516 C17.76628738 75.38988998 17.76628738 75.38988998 17.75949097 77.00064087 C18.02383673 80.29726499 18.74297301 82.94557717 20 86 C21.89471006 87.33852137 21.89471006 87.33852137 24.125 87.875 C24.84945312 88.09929687 25.57390625 88.32359375 26.3203125 88.5546875 C26.87460937 88.70164062 27.42890625 88.84859375 28 89 C28 90.32 28 91.64 28 93 C18.76 93 9.52 93 0 93 C0 91.68 0 90.36 0 89 C0.56589844 88.84144531 1.13179687 88.68289062 1.71484375 88.51953125 C2.81505859 88.16955078 2.81505859 88.16955078 3.9375 87.8125 C4.66839844 87.59207031 5.39929688 87.37164062 6.15234375 87.14453125 C8.21507541 86.15382883 8.21507541 86.15382883 8.60639954 83.86732483 C9.06299318 80.54110338 9.13492429 77.33668451 9.14526367 73.97827148 C9.14862228 73.29146301 9.1519809 72.60465454 9.15544128 71.89703369 C9.16490094 69.63836841 9.16689154 67.37977758 9.16796875 65.12109375 C9.17118362 63.5459846 9.17454787 61.97087574 9.17805481 60.39576721 C9.18403274 57.09985664 9.18589597 53.80397225 9.18530273 50.50805664 C9.18520092 46.2857074 9.19887918 42.06352559 9.21607494 37.84121609 C9.22719136 34.59071582 9.22922209 31.34025618 9.22869301 28.08973885 C9.22987266 26.53282148 9.23429362 24.97590305 9.24202538 23.41900444 C9.25182281 21.24332774 9.24894891 19.06801657 9.24291992 16.89233398 C9.24434494 15.65499008 9.24576996 14.41764618 9.24723816 13.14280701 C9.00972017 10.12355946 8.7839079 8.42593408 7 6 C3.45411499 4.70079254 3.45411499 4.70079254 0 4 C0 2.68 0 1.36 0 0 Z M63 66 C63.99 67.485 63.99 67.485 65 69 C65 68.01 65 67.02 65 66 C64.34 66 63.68 66 63 66 Z " fill="#FDFDFD" transform="translate(770,18)"/>
<path d="M0 0 C18.50693614 -2.36739212 18.50693614 -2.36739212 23.91064453 1.29492188 C27.02346681 4.66689778 28.95462778 8.59836438 30.86938477 12.73242188 C33.18709455 17.38085384 36.16386206 21.6562174 39 26 C40.27479397 27.97652742 41.54953307 29.95309024 42.82421875 31.9296875 C44.1113369 33.91187553 45.39909941 35.8936453 46.6875 37.875 C47.33783203 38.88046875 47.98816406 39.8859375 48.65820312 40.921875 C49.60663086 42.37980469 49.60663086 42.37980469 50.57421875 43.8671875 C51.13713623 44.73456543 51.70005371 45.60194336 52.2800293 46.49560547 C54.07085 49.10316243 56.01746225 51.53656498 58 54 C59.33125935 56.27030632 60.53908387 58.58001032 61.75390625 60.9140625 C62.97947688 62.96564468 64.28951292 64.35264678 66 66 C66.0254094 58.58016696 66.04289188 51.16034521 66.05493164 43.74047852 C66.05995228 41.21768779 66.0667701 38.69489996 66.07543945 36.17211914 C66.08760442 32.54052006 66.0932511 28.90895953 66.09765625 25.27734375 C66.10281754 24.15416245 66.10797882 23.03098114 66.11329651 21.87376404 C66.11368124 16.47149169 65.9615784 11.32029018 65 6 C60.545 5.01 60.545 5.01 56 4 C56 2.68 56 1.36 56 0 C65.57 0 75.14 0 85 0 C84.67 1.32 84.34 2.64 84 4 C82.1875 4.9765625 82.1875 4.9765625 80 5.625 C77.8567034 6.24419219 77.8567034 6.24419219 76 7 C74.42241209 10.15517581 74.76941484 13.56076975 74.70288086 17.02978516 C74.67340111 18.27380348 74.67340111 18.27380348 74.64332581 19.54295349 C74.57931768 22.29157421 74.52206334 25.04029276 74.46484375 27.7890625 C74.42184707 29.69193446 74.37843058 31.59479698 74.33460999 33.49765015 C74.22027461 38.51171343 74.1116596 43.52588512 74.00421143 48.5401001 C73.8936136 53.65441481 73.77763933 58.76860724 73.66210938 63.8828125 C73.43612628 73.92176229 73.21618256 83.96083472 73 94 C67.22070312 94.17578125 67.22070312 94.17578125 65.234375 92.59375 C64.74453125 91.9028125 64.2546875 91.211875 63.75 90.5 C63.16734375 89.68402344 62.5846875 88.86804688 61.984375 88.02734375 C59.15478873 83.71055367 56.40514693 79.34718439 53.70117188 74.95068359 C50.82073094 70.26831797 47.77580549 65.75543703 44.57421875 61.28515625 C42.95408776 58.9333532 41.50196964 56.52850831 40.0625 54.0625 C37.28939375 49.31607825 34.09271693 44.98824594 30.734375 40.640625 C28.89155951 37.83489692 28.03396323 35.17444851 27 32 C26.34 31.67 25.68 31.34 25 31 C24.33333333 29.66666667 23.66666667 28.33333333 23 27 C22.34 26.67 21.68 26.34 21 26 C21 25.34 21 24.68 21 24 C20.34 23.67 19.68 23.34 19 23 C18.23561052 38.40738795 17.85810581 53.70793988 18.375 69.125 C18.39642059 69.80225128 18.41784119 70.47950256 18.43991089 71.17727661 C18.50071996 78.70472274 18.50071996 78.70472274 20 86 C22.09719872 87.02281518 22.09719872 87.02281518 24.5625 87.6875 C25.38878906 87.93886719 26.21507813 88.19023438 27.06640625 88.44921875 C27.70449219 88.63097656 28.34257813 88.81273438 29 89 C29 90.32 29 91.64 29 93 C19.43 93 9.86 93 0 93 C0.66 91.35 1.32 89.7 2 88 C5.465 87.505 5.465 87.505 9 87 C9.7565506 82.27563512 10.13380886 77.73338232 10.16113281 72.95068359 C10.16609772 72.2846965 10.17106262 71.61870941 10.17617798 70.93254089 C10.19064879 68.75449555 10.19757286 66.57652278 10.203125 64.3984375 C10.20595238 63.64985096 10.20877975 62.90126442 10.21169281 62.12999344 C10.22661703 58.17552596 10.23589164 54.22109439 10.24023438 50.26660156 C10.24573729 46.19006278 10.26982248 42.11385492 10.29820633 38.03742027 C10.31684071 34.89239535 10.32203853 31.74745049 10.32357025 28.60237503 C10.3265909 27.09930215 10.33459961 25.59623047 10.34775543 24.09321213 C10.3648482 21.99205966 10.36292944 19.89172149 10.35644531 17.79052734 C10.36191376 16.0001857 10.36191376 16.0001857 10.36749268 14.17367554 C9.96287325 10.67937246 9.08050327 8.80643369 7 6 C5.23419884 4.80126145 5.23419884 4.80126145 3.3125 4.1875 C2.219375 3.795625 1.12625 3.40375 0 3 C0 2.01 0 1.02 0 0 Z M17 18 C18 20 18 20 18 20 Z " fill="#FDFDFD" transform="translate(5,18)"/>
<path d="M0 0 C0 7.59 0 15.18 0 23 C-1.32 23 -2.64 23 -4 23 C-4.21914062 22.33613281 -4.43828125 21.67226563 -4.6640625 20.98828125 C-6.82563963 14.96925551 -8.62848077 11.54291694 -14 8 C-16.98367726 7.00544091 -19.2004192 6.80440368 -22.32421875 6.68359375 C-23.25065186 6.64548584 -24.17708496 6.60737793 -25.1315918 6.56811523 C-26.3050415 6.52501221 -27.47849121 6.48190918 -28.6875 6.4375 C-34.2871875 6.2209375 -34.2871875 6.2209375 -40 6 C-40 17.55 -40 29.1 -40 41 C-34.555 40.505 -34.555 40.505 -29 40 C-26.7415625 39.814375 -26.7415625 39.814375 -24.4375 39.625 C-23.303125 39.41875 -22.16875 39.2125 -21 39 C-18.87491756 35.81237635 -18.4979837 33.73487777 -18 30 C-16.35 29.67 -14.7 29.34 -13 29 C-13 39.23 -13 49.46 -13 60 C-14.32 60 -15.64 60 -17 60 C-17 59.34 -17 58.68 -17 58 C-17.99 57.505 -17.99 57.505 -19 57 C-19.144375 56.030625 -19.28875 55.06125 -19.4375 54.0625 C-19.623125 53.051875 -19.80875 52.04125 -20 51 C-22.96348429 49.0243438 -23.68020373 48.73623141 -27.01171875 48.5859375 C-27.76904297 48.54726562 -28.52636719 48.50859375 -29.30664062 48.46875 C-30.48516602 48.42234375 -30.48516602 48.42234375 -31.6875 48.375 C-32.48478516 48.33632812 -33.28207031 48.29765625 -34.10351562 48.2578125 C-36.06863475 48.16367506 -38.0342854 48.08075368 -40 48 C-39.93126669 53.09082151 -39.84337289 58.18081025 -39.73754883 63.27099609 C-39.70425357 65.00332421 -39.67623603 66.735762 -39.65356445 68.46826172 C-39.62010193 70.95588007 -39.56779342 73.44248904 -39.51171875 75.9296875 C-39.50532883 76.70682098 -39.4989389 77.48395447 -39.49235535 78.28463745 C-39.46033102 80.69967927 -39.46033102 80.69967927 -39 84 C-34.78775373 86.80816418 -31.26420394 86.33037619 -26.3125 86.3125 C-25.43916016 86.32861328 -24.56582031 86.34472656 -23.66601562 86.36132812 C-17.27532275 86.36610086 -11.25978534 85.78704591 -6.1953125 81.45703125 C-3.33762594 77.06620628 -1.99466925 73.15419523 -1 68 C0.98 68.495 0.98 68.495 3 69 C3.29448852 77.39292285 2.15303508 84.3522369 1 93 C-20.12 93 -41.24 93 -63 93 C-63 91.35 -63 89.7 -63 88 C-60.36 87.67 -57.72 87.34 -55 87 C-54.93054967 76.75153503 -54.87721404 66.50312587 -54.84456348 56.25447369 C-54.8288944 51.49581795 -54.80763351 46.73732297 -54.77368164 41.97875977 C-54.74113242 37.38816048 -54.72315635 32.79771602 -54.71536827 28.20701027 C-54.70981677 26.4538714 -54.69897625 24.70074119 -54.68280983 22.94766808 C-54.66109425 20.49576754 -54.65803057 18.04451022 -54.65942383 15.5925293 C-54.648638 14.86460678 -54.63785217 14.13668427 -54.6267395 13.38670349 C-54.64994988 9.51646493 -54.64994988 9.51646493 -56.29081726 6.09968567 C-58.98698711 4.36497394 -61.91247197 3.7573182 -65 3 C-64.67 2.01 -64.34 1.02 -64 0 C-55.95084699 -0.15371555 -47.90161947 -0.30189705 -39.85223579 -0.4429636 C-36.11481259 -0.50863748 -32.37744464 -0.57623581 -28.64013672 -0.64819336 C-25.03517435 -0.71753258 -21.43015459 -0.78186742 -17.82503891 -0.84269524 C-16.44786192 -0.86681885 -15.07071559 -0.89276262 -13.69360733 -0.92053413 C-11.76864694 -0.95904661 -9.8435503 -0.99055769 -7.91845703 -1.02172852 C-6.27298386 -1.05170677 -6.27298386 -1.05170677 -4.5942688 -1.08229065 C-2 -1 -2 -1 0 0 Z " fill="#FDFDFD" transform="translate(160,18)"/>
<path d="M0 0 C0.4125 1.20011719 0.825 2.40023437 1.25 3.63671875 C5.00428303 14.49539599 8.94782564 25.26332239 13.078125 35.984375 C14.32224455 39.21511259 15.54264427 42.45270008 16.734375 45.703125 C17.00241943 46.43176758 17.27046387 47.16041016 17.54663086 47.91113281 C18.25976637 49.85617183 18.96797164 51.80301654 19.67578125 53.75 C21.94527022 59.6174076 21.94527022 59.6174076 26.6875 63.3125 C27.450625 63.539375 28.21375 63.76625 29 64 C29 65.32 29 66.64 29 68 C20.42 68 11.84 68 3 68 C3 66.68 3 65.36 3 64 C4.98 63.34 6.96 62.68 9 62 C8.22231918 55.77855342 6.47899864 50.21849796 3 45 C0.87305335 44.58472876 0.87305335 44.58472876 -1.5703125 44.70703125 C-2.46621094 44.71669922 -3.36210938 44.72636719 -4.28515625 44.73632812 C-5.69087891 44.7740332 -5.69087891 44.7740332 -7.125 44.8125 C-8.54232422 44.83280273 -8.54232422 44.83280273 -9.98828125 44.85351562 C-12.32608779 44.88893694 -14.66276237 44.93832729 -17 45 C-17.8655047 47.26708325 -18.71759315 49.53775079 -19.5625 51.8125 C-19.9327832 52.77639648 -19.9327832 52.77639648 -20.31054688 53.75976562 C-21.84788661 57.81514729 -21.84788661 57.81514729 -21 62 C-18.49552484 63.21869929 -18.49552484 63.21869929 -16 64 C-16 65.32 -16 66.64 -16 68 C-22.93 68 -29.86 68 -37 68 C-37 67.01 -37 66.02 -37 65 C-37.99 65 -38.98 65 -40 65 C-40 65.99 -40 66.98 -40 68 C-55.51 68 -71.02 68 -87 68 C-87 66.68 -87 65.36 -87 64 C-84.03 63.505 -84.03 63.505 -81 63 C-81 44.85 -81 26.7 -81 8 C-82.98 7.01 -84.96 6.02 -87 5 C-87 4.01 -87 3.02 -87 2 C-74.625 1.505 -74.625 1.505 -62 1 C-61.67 2.32 -61.34 3.64 -61 5 C-63.31 5.33 -65.62 5.66 -68 6 C-67.99419922 7.06009277 -67.98839844 8.12018555 -67.98242188 9.21240234 C-67.93859585 21.0246958 -68.17017972 32.81787684 -68.5 44.625 C-68.54839723 46.42186908 -68.59657528 48.21874409 -68.64453125 50.015625 C-68.76050832 54.34382201 -68.87940162 58.6719294 -69 63 C-67.515 62.505 -67.515 62.505 -66 62 C-64.24998471 61.98049346 -62.49922174 62.00630992 -60.75 62.0625 C-54.90512003 62.09338444 -50.07034718 62.01439186 -45.6875 57.75 C-43.93189364 54.88901185 -42.90019628 52.22570333 -42 49 C-40.68 49 -39.36 49 -38 49 C-38.33 53.62 -38.66 58.24 -39 63 C-34.86764797 63.07096677 -34.86764797 63.07096677 -31 62 C-29.81276184 60.43392086 -29.81276184 60.43392086 -29.09375 58.35546875 C-28.76536133 57.53941162 -28.43697266 56.72335449 -28.09863281 55.88256836 C-27.73608398 54.9313208 -27.37353516 53.98007324 -27 53 C-26.5678418 51.90888916 -26.13568359 50.81777832 -25.69042969 49.69360352 C-24.45434476 46.55700623 -23.2352419 43.41490896 -22.02612305 40.2678833 C-21.23771861 38.21806897 -20.44452012 36.17016109 -19.65039062 34.12255859 C-17.23393019 27.88067829 -14.84862008 21.63280288 -12.578125 15.3359375 C-12.22202148 14.35979492 -11.86591797 13.38365234 -11.49902344 12.37792969 C-10.84801342 10.583993 -10.20996149 8.78528421 -9.58691406 6.98144531 C-8.71875 4.6015625 -8.71875 4.6015625 -7 1 C-4.51065563 0.05984832 -2.6880054 0 0 0 Z M-7 14 C-8.36625373 17.95426641 -9.71593627 21.91398949 -11.0625 25.875 C-11.64741211 27.56689453 -11.64741211 27.56689453 -12.24414062 29.29296875 C-12.60830078 30.36933594 -12.97246094 31.44570312 -13.34765625 32.5546875 C-13.68804932 33.54968262 -14.02844238 34.54467773 -14.37915039 35.56982422 C-15.27919947 37.98717622 -15.27919947 37.98717622 -14 40 C-8.39 40 -2.78 40 3 40 C1.87685665 36.60354242 0.75155928 33.20782449 -0.375 29.8125 C-0.69210937 28.85279297 -1.00921875 27.89308594 -1.3359375 26.90429688 C-1.6453125 25.97294922 -1.9546875 25.04160156 -2.2734375 24.08203125 C-2.55622559 23.22843018 -2.83901367 22.3748291 -3.13037109 21.49536133 C-4.01284396 18.96314483 -4.98546475 16.48191861 -6 14 C-6.33 14 -6.66 14 -7 14 Z " fill="#FDFDFD" transform="translate(806,139)"/>
<path d="M0 0 C1.04590805 0.00222061 2.0918161 0.00444122 3.16941833 0.00672913 C4.35056717 0.00680466 5.531716 0.00688019 6.74865723 0.00695801 C8.03404892 0.01211929 9.31944061 0.01728058 10.64378357 0.02259827 C12.60601112 0.02472069 12.60601112 0.02472069 14.60787964 0.02688599 C18.09150591 0.03071042 21.57509071 0.04054005 25.05870056 0.05158997 C28.6111444 0.06180569 32.16359491 0.06638395 35.71604919 0.07142639 C42.69067564 0.0821624 49.66527449 0.09923792 56.63987732 0.12025452 C55.62295562 6.69659675 55.62295562 6.69659675 53.71409607 9.70619202 C53.32931091 10.32752014 52.94452576 10.94884827 52.54808044 11.58900452 C52.14524841 12.21806702 51.74241638 12.84712952 51.32737732 13.49525452 C48.93520891 17.294349 46.62295098 21.05521689 44.65940857 25.09681702 C42.26069292 30.01122972 39.30957567 34.52969223 36.35081482 39.12025452 C33.87663486 43.00608316 31.69199326 46.91626706 29.67649841 51.05726624 C27.76661041 54.85815027 25.59728677 58.51102468 23.45237732 62.18275452 C22.97695496 63.00042297 22.50153259 63.81809143 22.01170349 64.66053772 C17.62369425 72.18879146 13.15245681 79.66614173 8.63987732 87.12025452 C13.14058871 87.03885676 17.63999661 86.92605495 22.13987732 86.80775452 C23.40831482 86.78519592 24.67675232 86.76263733 25.98362732 86.73939514 C36.92408865 86.71189904 36.92408865 86.71189904 46.1782074 81.5684967 C49.6241821 77.31368524 51.18639969 72.33150356 52.63987732 67.12025452 C54.28987732 67.12025452 55.93987732 67.12025452 57.63987732 67.12025452 C57.33472648 71.26666361 57.01953221 75.4122477 56.70237732 79.55775452 C56.6153656 80.74175842 56.52835388 81.92576233 56.43870544 83.14564514 C56.35169373 84.27035217 56.26468201 85.3950592 56.17503357 86.55384827 C56.0572052 88.11703796 56.0572052 88.11703796 55.93699646 89.71180725 C55.63987732 92.12025452 55.63987732 92.12025452 54.63987732 93.12025452 C52.64556002 93.21430593 50.64788189 93.23768701 48.65135193 93.23377991 C47.37009933 93.23370438 46.08884674 93.23362885 44.76876831 93.23355103 C43.35991884 93.22844361 41.95106976 93.2232276 40.54222107 93.21791077 C39.10875498 93.21604654 37.67528825 93.21462266 36.24182129 93.21362305 C32.46227775 93.20979824 28.68277242 93.19996828 24.90324402 93.18891907 C21.04918434 93.17870415 17.1951185 93.17412525 13.34104919 93.16908264 C5.77397445 93.15834597 -1.79306877 93.14127001 -9.36012268 93.12025452 C-7.97279886 87.9701204 -6.2128802 83.78881512 -3.36012268 79.30775452 C0.10895009 73.6992434 3.40541755 68.02699135 6.57737732 62.24525452 C12.74419235 51.04856351 19.18440238 40.02675189 25.95237732 29.18275452 C28.73066809 24.7106567 31.21282705 20.20814222 33.43675232 15.43666077 C34.95695958 12.50976822 36.77769773 9.83919321 38.63987732 7.12025452 C34.80669113 7.03235808 30.97376804 6.97956365 27.13987732 6.93275452 C26.06222107 6.9076178 24.98456482 6.88248108 23.87425232 6.85658264 C17.41834051 6.79753467 12.40210279 7.07705851 6.63987732 10.12025452 C4.70261223 12.37259643 4.70261223 12.37259643 3.70237732 15.05775452 C3.32210388 15.91240295 2.94183044 16.76705139 2.55003357 17.64759827 C1.75847344 19.79805992 1.1325694 21.88498833 0.63987732 24.12025452 C-1.01012268 23.79025452 -2.66012268 23.46025452 -4.36012268 23.12025452 C-4.22195309 19.47408781 -4.07330734 15.82842377 -3.92262268 12.18275452 C-3.86364807 10.62137756 -3.86364807 10.62137756 -3.80348206 9.02845764 C-3.76158752 8.03910217 -3.71969299 7.0497467 -3.67652893 6.03041077 C-3.62154236 4.65574646 -3.62154236 4.65574646 -3.56544495 3.25331116 C-3.27532031 0.23925767 -3.04147253 0.1549711 0 0 Z " fill="#FDFDFD" transform="translate(623.3601226806641,17.879745483398438)"/>
<path d="M0 0 C6.93 0.33 13.86 0.66 21 1 C22.6190314 4.89135616 24.23694599 8.78314365 25.85229492 12.67602539 C26.39953897 13.99398614 26.94736906 15.31170374 27.49584961 16.62915039 C30.76290622 24.4778721 33.9427849 32.34401394 36.93286133 40.30395508 C37.92629688 42.9523873 37.92629688 42.9523873 39.1394043 45.17456055 C40 47 40 47 40 50 C40.66 50 41.32 50 42 50 C42.09748535 49.34692871 42.1949707 48.69385742 42.29541016 48.02099609 C43.22141836 44.05064768 44.72393579 40.42774954 46.2734375 36.6640625 C46.76005356 35.46769669 46.76005356 35.46769669 47.25650024 34.24716187 C48.29187128 31.70473455 49.33341508 29.16488699 50.375 26.625 C51.06809968 24.92463863 51.76081204 23.22411934 52.453125 21.5234375 C53.73259146 18.38529779 55.01282182 15.24748256 56.29833984 12.11181641 C56.55513519 11.48514069 56.81193054 10.85846497 57.07650757 10.21279907 C58.36205545 7.13247154 59.68516777 4.06794186 61 1 C67.6 1 74.2 1 81 1 C81 1.99 81 2.98 81 4 C78.36 4.66 75.72 5.32 73 6 C73.26294509 12.0833322 73.52959815 18.16648688 73.79956055 24.24951172 C73.89072809 26.31522311 73.98091488 28.38097805 74.07006836 30.44677734 C74.19902481 33.43078647 74.3316082 36.41461673 74.46484375 39.3984375 C74.50343002 40.30927094 74.5420163 41.22010437 74.58177185 42.15853882 C74.78452756 46.6237626 75.04438025 51.08245543 75.40844727 55.53759766 C75.47322769 56.34685699 75.53800812 57.15611633 75.60475159 57.98989868 C75.84952233 60.22111854 75.84952233 60.22111854 78 62 C79.64991582 62.70710678 81.31562256 63.37943989 83 64 C82.505 65.485 82.505 65.485 82 67 C73.75 67 65.5 67 57 67 C57 65.68 57 64.36 57 63 C59.97 62.505 59.97 62.505 63 62 C63.18332315 53.29214112 63.18332315 53.29214112 62.5 44.625 C61.78038296 39.24786156 61.9734288 33.86420057 62.0625 28.453125 C62.00806656 25.44567756 61.85304562 22.87902896 61 20 C60.34 19.67 59.68 19.34 59 19 C58.87181885 19.72493652 58.7436377 20.44987305 58.61157227 21.19677734 C58.0227262 23.89583144 57.22410112 26.28369552 56.21484375 28.8515625 C55.85253662 29.77702881 55.49022949 30.70249512 55.11694336 31.65600586 C54.72772705 32.63577393 54.33851074 33.61554199 53.9375 34.625 C53.53990479 35.63377197 53.14230957 36.64254395 52.73266602 37.68188477 C48.96802153 47.1833434 45.02307949 56.60550647 41 66 C39.35 66 37.7 66 36 66 C35.52373169 64.86570557 35.52373169 64.86570557 35.0378418 63.70849609 C33.58981097 60.26311763 32.13868605 56.81905061 30.6875 53.375 C30.18798828 52.18519531 29.68847656 50.99539062 29.17382812 49.76953125 C28.44389648 48.03896484 28.44389648 48.03896484 27.69921875 46.2734375 C27.25408936 45.21560059 26.80895996 44.15776367 26.3503418 43.06787109 C24.99606312 39.99105572 23.50519963 37.00508052 22 34 C21.48724824 32.4691759 21.00420195 30.92781557 20.5625 29.375 C19.39251519 25.68456918 18.10229302 23.46043929 15 21 C13.98874945 29.74326995 13.88042289 38.39323439 13.9375 47.1875 C13.94253037 48.53450352 13.94709053 49.88150889 13.95117188 51.22851562 C13.96284646 54.48572537 13.97922117 57.74283778 14 61 C15.98 61.66 17.96 62.32 20 63 C20 64.32 20 65.64 20 67 C13.07 67 6.14 67 -1 67 C-1 65.68 -1 64.36 -1 63 C-0.030625 62.71125 0.93875 62.4225 1.9375 62.125 C5.10664203 61.35785318 5.10664203 61.35785318 6 59 C6.07250298 57.35563243 6.08375172 55.70832798 6.0625 54.0625 C6.05476563 53.08539063 6.04703125 52.10828125 6.0390625 51.1015625 C6.02617188 50.07804687 6.01328125 49.05453125 6 48 C5.97454936 45.97921954 5.95349639 43.95837741 5.9375 41.9375 C5.92589844 41.03902344 5.91429687 40.14054687 5.90234375 39.21484375 C6 37 6 37 7 35 C7.37146131 30.50966419 7.4686338 26.00242668 7.625 21.5 C7.6765625 20.23800781 7.728125 18.97601563 7.78125 17.67578125 C7.82507812 16.47308594 7.86890625 15.27039063 7.9140625 14.03125 C7.9752124 12.36932617 7.9752124 12.36932617 8.03759766 10.67382812 C8.19407524 8.02598901 8.19407524 8.02598901 7 6 C4.69034152 4.94647157 2.3570226 3.94280904 0 3 C0 2.01 0 1.02 0 0 Z M14 13 C14.33 14.65 14.66 16.3 15 18 C15.33 17.01 15.66 16.02 16 15 C15.34 14.34 14.68 13.68 14 13 Z M61 15 C62 18 62 18 62 18 Z " fill="#FDFDFD" transform="translate(41,140)"/>
<path d="M0 0 C0.43237305 2.33837891 0.43237305 2.33837891 0.51171875 5.2265625 C0.54716797 6.2578125 0.58261719 7.2890625 0.61914062 8.3515625 C0.65297852 9.97191406 0.65297852 9.97191406 0.6875 11.625 C0.72166016 12.71296875 0.75582031 13.8009375 0.79101562 14.921875 C0.87368334 17.61448063 0.94277087 20.30675291 1 23 C-0.65 23 -2.3 23 -4 23 C-4.24234375 22.20335938 -4.4846875 21.40671875 -4.734375 20.5859375 C-7.72202268 10.26175424 -7.72202268 10.26175424 -15.25 3.125 C-20.79991579 1.46002526 -24.91244558 1.07219803 -30.375 3.5 C-31.24125 3.995 -32.1075 4.49 -33 5 C-33.66 5 -34.32 5 -35 5 C-37.51426123 11.12851174 -37.9048982 16.76822073 -36.125 23.125 C-31.57014101 29.28745629 -24.80405111 32.69789373 -18 35.9375 C-8.21616721 40.67201883 0.28113595 47.0086353 4.3125 57.375 C5.9113422 65.80525886 5.43585026 73.57328323 0.74609375 80.98046875 C-4.42223679 87.58522903 -11.76414441 90.84183281 -20 92 C-30.98360811 92.88929782 -41.08688969 90.73125719 -51 86 C-51.68271293 77.64895793 -52.15392039 69.38011029 -52 61 C-50.68 61 -49.36 61 -48 61 C-47.78085937 61.7734375 -47.56171875 62.546875 -47.3359375 63.34375 C-44.90759753 71.31976097 -42.22632321 77.88057096 -35.375 82.9375 C-29.51701486 85.55817756 -23.88337688 85.82452453 -17.75 83.75 C-14.51067884 82.42169036 -12.68628999 81.17419293 -11 78 C-9.03387552 72.10162657 -9.27017319 66.08521945 -11.3125 60.25 C-15.75564079 53.71780354 -24.14716071 50.36405569 -31.0625 47.125 C-39.4506637 43.04013903 -46.18762235 37.63668269 -50 29 C-52.18658092 21.44635681 -51.37903926 14.02285398 -48 7 C-43.80309168 0.76493792 -38.9378559 -2.99297647 -31.48828125 -4.6484375 C-21.17337128 -6.10580312 -8.92229457 -5.94819638 0 0 Z " fill="#FDFDFD" transform="translate(912,21)"/>
<path d="M0 0 C6.93 0.33 13.86 0.66 21 1 C23.60939422 6.59155903 26.09971998 12.15347151 28.25 17.9375 C30.84251479 24.8342541 33.87919136 31.50870562 36.96582031 38.19702148 C37.34319336 39.02016846 37.72056641 39.84331543 38.109375 40.69140625 C38.61936035 41.79270874 38.61936035 41.79270874 39.13964844 42.91625977 C39.9711902 44.93022371 40.53123512 46.87527221 41 49 C45.2805173 40.00311725 49.10227789 30.92150601 52.6875 21.625 C53.62793378 19.20014346 54.56931081 16.77565248 55.51171875 14.3515625 C55.91865967 13.29791504 56.32560059 12.24426758 56.74487305 11.15869141 C58.10057644 7.74688622 59.55380931 4.37444495 61 1 C67.6 1 74.2 1 81 1 C81 1.99 81 2.98 81 4 C78.36 4.66 75.72 5.32 73 6 C73.26330303 11.92259357 73.52995107 17.84502414 73.79956055 23.76733398 C73.89062626 25.77771024 73.98081332 27.78812652 74.07006836 29.79858398 C74.19928862 32.70567886 74.33177766 35.61261016 74.46484375 38.51953125 C74.50343002 39.40332962 74.5420163 40.28712799 74.58177185 41.19770813 C74.70269002 43.79984825 74.8474868 46.39953136 75 49 C75.04899445 49.99744232 75.09798889 50.99488464 75.14846802 52.02255249 C75.24428665 53.50545273 75.24428665 53.50545273 75.34204102 55.01831055 C75.39449478 55.91929977 75.44694855 56.820289 75.50099182 57.74858093 C75.82297884 60.38899665 75.82297884 60.38899665 79.0625 62.1875 C80.031875 62.455625 81.00125 62.72375 82 63 C82 64.32 82 65.64 82 67 C73.75 67 65.5 67 57 67 C57 65.68 57 64.36 57 63 C58.98 62.34 60.96 61.68 63 61 C63.02941647 56.72918152 63.04693715 52.45838966 63.0625 48.1875 C63.07506836 46.3940918 63.07506836 46.3940918 63.08789062 44.56445312 C63.10538079 38.14556252 62.88907732 31.86524748 62.22045898 25.48168945 C61.90878146 21.97316005 61.93358393 18.52005156 62 15 C58.53406728 23.28542497 55.11036701 31.57361743 52 40 C49.83664726 45.80927268 47.65200064 51.6092044 45.375 57.375 C45.09785156 58.1071875 44.82070312 58.839375 44.53515625 59.59375 C42.50059996 64.66567706 42.50059996 64.66567706 39.7890625 66.4765625 C39.19867188 66.64929688 38.60828125 66.82203125 38 67 C34.33001252 62.42378548 32.31300692 57.28802924 30 51.9375 C29.56171875 50.95072266 29.1234375 49.96394531 28.671875 48.94726562 C26.11705307 43.0719447 24.130761 37.32758678 22.67578125 31.08422852 C22.34126953 30.0525354 22.34126953 30.0525354 22 29 C21.34 28.67 20.68 28.34 20 28 C19.87625 27.030625 19.7525 26.06125 19.625 25.0625 C19.41875 24.051875 19.2125 23.04125 19 22 C17.0195839 20.7802945 17.0195839 20.7802945 15 20 C13.64499008 33.30813314 13.90205736 46.64062374 14 60 C15.98 60.99 17.96 61.98 20 63 C20 64.32 20 65.64 20 67 C13.07 67 6.14 67 -1 67 C-1 65.68 -1 64.36 -1 63 C-0.030625 62.71125 0.93875 62.4225 1.9375 62.125 C5.10664203 61.35785318 5.10664203 61.35785318 6 59 C7.06686325 52.56572547 7.26111978 46.00141129 7.53515625 39.49609375 C7.57813339 38.5322023 7.62111053 37.56831085 7.66539001 36.57521057 C7.80055606 33.52942263 7.93159665 30.48347382 8.0625 27.4375 C8.15402305 25.35871188 8.2458173 23.27993569 8.33789062 21.20117188 C8.5617284 16.13424697 8.78186927 11.06717367 9 6 C6.03 5.01 3.06 4.02 0 3 C0 2.01 0 1.02 0 0 Z M14 13 C14.33 14.65 14.66 16.3 15 18 C15.33 17.01 15.66 16.02 16 15 C15.34 14.34 14.68 13.68 14 13 Z " fill="#FDFDFD" transform="translate(133,140)"/>
<path d="M0 0 C8.58 0 17.16 0 26 0 C25.67 0.99 25.34 1.98 25 3 C22.4375 4.1875 22.4375 4.1875 20 5 C21.60648539 14.28807067 24.34845207 23.13648158 27.125 32.125 C27.59809821 33.66913549 28.07075795 35.2134054 28.54296875 36.7578125 C29.69026488 40.50677661 30.84347348 44.25387362 32 48 C33.63310228 43.6178805 35.23482773 39.22593887 36.80957031 34.82250977 C37.34846678 33.32892756 37.89553811 31.83826691 38.45117188 30.35083008 C42.97804911 18.84643414 42.97804911 18.84643414 41 7 C38.67994969 4.97357892 38.67994969 4.97357892 36 4 C35.01 3.34 34.02 2.68 33 2 C33.33 1.34 33.66 0.68 34 0 C42.58 0 51.16 0 60 0 C60 0.99 60 1.98 60 3 C58.02 3.66 56.04 4.32 54 5 C54.45520404 13.60145973 57.20138605 21.25392206 60 29.3125 C60.69839612 31.35005139 61.39420144 33.38846592 62.08886719 35.42729187 C62.71631358 37.2646376 63.35016418 39.09979267 63.984375 40.93481445 C64.76347542 43.28616199 65.45302033 45.58726969 66 48 C67.44264106 43.73088628 68.87815332 39.45940692 70.3125 35.1875 C70.71662109 33.99189453 71.12074219 32.79628906 71.53710938 31.56445312 C76.35545176 18.57592668 76.35545176 18.57592668 78 5 C76.02 4.34 74.04 3.68 72 3 C72.33 2.01 72.66 1.02 73 0 C79.6 0 86.2 0 93 0 C93 0.99 93 1.98 93 3 C91.63875 3.433125 91.63875 3.433125 90.25 3.875 C85.48743002 6.98898807 84.74765821 10.74326427 83 16 C82.61070312 17.04671875 82.22140625 18.0934375 81.8203125 19.171875 C79.2432686 26.118689 77.05722386 33.1022786 75.02685547 40.22265625 C72.40445587 49.27700859 69.18890051 58.13272788 66 67 C64.35 67 62.7 67 61 67 C59.44099751 62.73543312 57.89319621 58.46702082 56.35522461 54.19482422 C55.8315232 52.74484711 55.3048833 51.29592756 54.77514648 49.84814453 C54.0101309 47.75570793 53.2560924 45.65957758 52.50390625 43.5625 C52.26845596 42.92570312 52.03300568 42.28890625 51.79042053 41.6328125 C50.16532075 37.05587494 49.4676559 32.80219789 49 28 C48.34 28 47.68 28 47 28 C46.505 27.01 46.505 27.01 46 26 C45.64695801 27.06436279 45.29391602 28.12872559 44.93017578 29.2253418 C43.6159577 33.18613977 42.29973263 37.14626838 40.98291016 41.10620117 C40.41400545 42.81793409 39.84564017 44.52984638 39.27783203 46.24194336 C38.46008877 48.7073462 37.64038744 51.17209067 36.8203125 53.63671875 C36.56814972 54.39836838 36.31598694 55.16001801 36.05618286 55.94474792 C34.81117719 59.6801566 33.51521545 63.36285419 32 67 C30.35 67 28.7 67 27 67 C24.56604613 61.3434368 22.52514494 55.62961289 20.71875 49.7421875 C18.89402285 43.83594836 17.02389548 37.9467881 15.10546875 32.0703125 C14.86544632 31.33367371 14.62542389 30.59703491 14.37812805 29.83807373 C13.39572463 26.82418617 12.41219766 23.81067681 11.42504883 20.79833984 C10.69091525 18.55650512 9.96040347 16.31351725 9.23046875 14.0703125 C9.00554245 13.38711945 8.78061615 12.70392639 8.5488739 12.00003052 C7 7.22710973 7 7.22710973 7 5 C4.69 4.34 2.38 3.68 0 3 C0 2.01 0 1.02 0 0 Z " fill="#FDFDFD" transform="translate(826,141)"/>
<path d="M0 0 C2.91097398 2.74383672 4.03655252 5.62479109 4.6328125 9.5390625 C4.75395741 15.03717759 3.81786588 19.97381932 0.6328125 24.5390625 C-1.62308448 26.03581898 -3.98256705 27.24762256 -6.3671875 28.5390625 C-3.74797095 33.89715524 -1.08278129 39.22916377 1.6328125 44.5390625 C2.16777344 45.58964844 2.70273437 46.64023438 3.25390625 47.72265625 C5.50165037 51.8222004 7.12506692 54.74057296 11.5078125 56.6640625 C13.0546875 57.0971875 13.0546875 57.0971875 14.6328125 57.5390625 C14.6328125 58.8590625 14.6328125 60.1790625 14.6328125 61.5390625 C12.0477258 61.67432866 9.46972498 61.77323903 6.8828125 61.8515625 C6.15320313 61.89345703 5.42359375 61.93535156 4.671875 61.97851562 C1.03764597 62.06111174 -0.88168262 61.97434274 -3.6328125 59.5078125 C-5.69681784 55.97483038 -7.59194622 52.41226852 -9.3671875 48.7265625 C-9.6971875 48.05302734 -10.0271875 47.37949219 -10.3671875 46.68554688 C-11.03085327 45.33099467 -11.69233343 43.97536932 -12.3515625 42.61865234 C-13.99854993 39.24628721 -15.6842739 35.89362018 -17.3671875 32.5390625 C-18.4809375 32.5596875 -19.5946875 32.5803125 -20.7421875 32.6015625 C-24.3671875 32.5390625 -24.3671875 32.5390625 -26.3671875 31.5390625 C-26.0371875 39.7890625 -25.7071875 48.0390625 -25.3671875 56.5390625 C-21.9021875 57.0340625 -21.9021875 57.0340625 -18.3671875 57.5390625 C-18.3671875 58.8590625 -18.3671875 60.1790625 -18.3671875 61.5390625 C-26.9471875 61.5390625 -35.5271875 61.5390625 -44.3671875 61.5390625 C-44.3671875 60.2190625 -44.3671875 58.8990625 -44.3671875 57.5390625 C-43.5628125 57.2296875 -42.7584375 56.9203125 -41.9296875 56.6015625 C-39.47638345 55.77570905 -39.47638345 55.77570905 -38.3671875 54.5390625 C-38.27371835 52.88167807 -38.24973773 51.22031606 -38.25366211 49.56030273 C-38.25373764 48.49927841 -38.25381317 47.43825409 -38.25389099 46.34507751 C-38.25905228 45.1909285 -38.26421356 44.03677948 -38.26953125 42.84765625 C-38.2709462 41.67268082 -38.27236115 40.49770538 -38.27381897 39.28712463 C-38.27943758 35.51691186 -38.29199324 31.74675746 -38.3046875 27.9765625 C-38.3097001 25.42773523 -38.31426342 22.87890703 -38.31835938 20.33007812 C-38.32941306 14.06638617 -38.34616929 7.80272851 -38.3671875 1.5390625 C-40.06875 0.889375 -40.06875 0.889375 -41.8046875 0.2265625 C-42.9803125 -0.3303125 -44.1559375 -0.8871875 -45.3671875 -1.4609375 C-45.6971875 -2.4509375 -46.0271875 -3.4409375 -46.3671875 -4.4609375 C-43.05486644 -4.63128803 -39.74230836 -4.79652842 -36.4296875 -4.9609375 C-35.50349609 -5.00863281 -34.57730469 -5.05632812 -33.62304688 -5.10546875 C-9.11363533 -6.30943984 -9.11363533 -6.30943984 0 0 Z M-26.3671875 -0.4609375 C-26.3671875 8.4490625 -26.3671875 17.3590625 -26.3671875 26.5390625 C-17.63445718 26.7462016 -17.63445718 26.7462016 -10.3671875 23.5390625 C-7.29249174 19.84942759 -6.61270482 16.28573075 -6.3671875 11.5390625 C-7.27019463 6.6956606 -8.30400434 3.47358367 -12.3671875 0.5390625 C-17.15091413 -0.76559022 -21.27323247 -0.4609375 -26.3671875 -0.4609375 Z " fill="#FDFDFD" transform="translate(377.3671875,145.4609375)"/>
<path d="M0 0 C7.58093929 6.02770173 11.11405041 14.23806118 12.48046875 23.68359375 C13.31103962 34.29158661 11.27894329 44.81852683 5.203125 53.7265625 C-0.04970082 59.54760265 -7.049274 63.03013293 -14.80078125 63.9375 C-25.02629836 64.19120754 -31.91825944 63.07900183 -39.546875 56.08984375 C-47.60512692 47.36634673 -50.0268527 38.74253083 -49.81689453 27.11157227 C-49.3429325 17.17627482 -46.53091011 9.72976246 -39.5859375 2.47265625 C-27.93549221 -7.42823411 -12.823883 -8.22211546 0 0 Z M-31.546875 4.65234375 C-38.52423174 16.1151441 -38.65830857 30.07265279 -35.796875 42.83984375 C-34.31544901 48.86087304 -32.25221341 52.74635602 -27.19921875 56.4609375 C-22.70352502 58.98111078 -18.31359044 59.00597031 -13.296875 58.52734375 C-8.89702312 56.72740434 -5.75992536 53.56435119 -3.296875 49.52734375 C-0.56014403 42.77316827 0.22360723 36.26206656 0.140625 29.02734375 C0.13377686 28.10679199 0.12692871 27.18624023 0.11987305 26.23779297 C-0.03606115 19.66052378 -0.78904285 14.21757311 -4.296875 8.52734375 C-4.68230469 7.84414062 -5.06773437 7.1609375 -5.46484375 6.45703125 C-7.34954738 3.44394519 -8.98407027 1.68374611 -12.171875 0.08984375 C-19.64654615 -1.25559706 -25.80241046 -0.77298387 -31.546875 4.65234375 Z " fill="#FDFDFD" transform="translate(607.296875,144.47265625)"/>
<path d="M0 0 C14.80721221 -1.51437398 14.80721221 -1.51437398 19.6640625 1.83984375 C21.73705768 4.45379982 23.38263206 7.0832418 25 10 C26.11878354 11.75398073 27.24384412 13.50397269 28.375 15.25 C28.93703125 16.1575 29.4990625 17.065 30.078125 18 C33.43436551 23.23900958 37.11426984 28.2492344 40.76269531 33.28710938 C42.85421119 36.18254651 44.92601323 39.09199008 47 42 C47.99 41.34 48.98 40.68 50 40 C49.7215625 41.2065625 49.7215625 41.2065625 49.4375 42.4375 C49.293125 43.283125 49.14875 44.12875 49 45 C49.33 45.33 49.66 45.66 50 46 C50 32.47 50 18.94 50 5 C47.36 4.34 44.72 3.68 42 3 C42 2.01 42 1.02 42 0 C49.26 0 56.52 0 64 0 C64 0.99 64 1.98 64 3 C63.030625 3.28875 62.06125 3.5775 61.0625 3.875 C57.89335797 4.64214682 57.89335797 4.64214682 57 7 C56.8800592 8.90908186 56.82268712 10.82222248 56.79467773 12.73486328 C56.77473251 13.93595734 56.75478729 15.13705139 56.73423767 16.37454224 C56.70916893 18.32769852 56.70916893 18.32769852 56.68359375 20.3203125 C56.66302375 21.66267538 56.64202727 23.00503179 56.62062073 24.34738159 C56.56540469 27.88188438 56.51599342 31.41644557 56.46777344 34.9510498 C56.41755496 38.55726322 56.36187071 42.16339172 56.30664062 45.76953125 C56.19906483 52.84628049 56.09761858 59.92310584 56 67 C51.18725586 67.15625 51.18725586 67.15625 49.50195312 65.75 C48.89770508 64.88375 48.89770508 64.88375 48.28125 64 C47.59869141 63.04528809 47.59869141 63.04528809 46.90234375 62.07128906 C46.43957031 61.38776367 45.97679687 60.70423828 45.5 60 C45.01660156 59.31389648 44.53320312 58.62779297 44.03515625 57.92089844 C40.85915969 53.3785348 37.90439777 48.71964638 35 44 C34.52949219 43.54109375 34.05898438 43.0821875 33.57421875 42.609375 C31.60095016 40.59203837 30.28522882 38.40673973 28.8125 36 C26.22565402 31.8808185 23.56324856 27.84359741 20.75 23.875 C20.10546875 22.96492188 19.4609375 22.05484375 18.796875 21.1171875 C17.09802911 18.74452287 17.09802911 18.74452287 14 18 C14.33 32.19 14.66 46.38 15 61 C16.98 61.33 18.96 61.66 21 62 C21 63.32 21 64.64 21 66 C14.07 66 7.14 66 0 66 C0.33 64.68 0.66 63.36 1 62 C3.5 60.875 3.5 60.875 6 60 C7.25274723 57.49450555 7.12029624 55.80264368 7.11352539 52.99951172 C7.11344986 51.95858368 7.11337433 50.91765564 7.11329651 49.84518433 C7.10813522 48.71807037 7.10297394 47.59095642 7.09765625 46.4296875 C7.09553383 44.70264084 7.09553383 44.70264084 7.09336853 42.94070435 C7.08775716 39.25211014 7.0752027 35.56357595 7.0625 31.875 C7.05748647 29.37890712 7.05292331 26.8828133 7.04882812 24.38671875 C7.03778403 18.25779191 7.0210348 12.12890024 7 6 C4.69 5.01 2.38 4.02 0 3 C0 2.01 0 1.02 0 0 Z M14 15 C14 15.66 14 16.32 14 17 C14.66 16.67 15.32 16.34 16 16 C15.34 15.67 14.68 15.34 14 15 Z " fill="#FDFDFD" transform="translate(627,141)"/>
<path d="M0 0 C1.09324002 5.664971 1.11988438 11.24554986 1 17 C-0.32 17.33 -1.64 17.66 -3 18 C-3.24234375 17.25234375 -3.4846875 16.5046875 -3.734375 15.734375 C-4.06953125 14.74953125 -4.4046875 13.7646875 -4.75 12.75 C-5.07484375 11.77546875 -5.3996875 10.8009375 -5.734375 9.796875 C-7.71456773 5.42089353 -9.83488048 3.43966774 -14.3125 1.75 C-20.99212908 0.39143137 -26.59897048 0.83015949 -33 3 C-34.14614551 4.79599691 -34.14614551 4.79599691 -35 7 C-35.41378906 7.79277344 -35.82757813 8.58554688 -36.25390625 9.40234375 C-36.90166016 10.65724609 -36.90166016 10.65724609 -37.5625 11.9375 C-37.99691406 12.77152344 -38.43132812 13.60554688 -38.87890625 14.46484375 C-42.85255145 23.45054317 -42.15077608 35.79769636 -38.9140625 44.91796875 C-36.60564023 50.1760417 -33.711566 53.73814662 -29 57 C-23.48673401 58.83775533 -17.94991924 58.61576397 -12.4375 56.875 C-9.75499758 55.21730407 -9.75499758 55.21730407 -9.3515625 52.3125 C-8.98791369 48.88612012 -8.90235 45.56969982 -8.9375 42.125 C-8.94652344 40.97257812 -8.95554687 39.82015625 -8.96484375 38.6328125 C-8.97644531 37.76398438 -8.98804688 36.89515625 -9 36 C-11.64 35.34 -14.28 34.68 -17 34 C-17 33.01 -17 32.02 -17 31 C-8.75 31 -0.5 31 8 31 C8 31.99 8 32.98 8 34 C6.35 34.66 4.7 35.32 3 36 C2.67 43.26 2.34 50.52 2 58 C-10.02334652 63.09685341 -22.93668506 67.42930448 -35.875 62.234375 C-43.28070578 57.9325312 -49.10474591 52.09661173 -52 44 C-52.4125 42.948125 -52.825 41.89625 -53.25 40.8125 C-55.65164293 28.60414842 -53.68549502 17.6114204 -47.37109375 6.96875 C-42.86574395 0.49952978 -35.87286707 -2.50065629 -28.5625 -4.75 C-19.06934008 -5.67616194 -8.15720552 -5.43813701 0 0 Z " fill="#FDFDFD" transform="translate(316,144)"/>
<path d="M0 0 C11.22 0 22.44 0 34 0 C34 1.32 34 2.64 34 4 C31.03 4.99 28.06 5.98 25 7 C24.24489066 11.70363459 23.87381503 16.21143182 23.87060547 20.97338867 C23.86885315 21.63122849 23.86710083 22.2890683 23.86529541 22.96684265 C23.8609336 25.11724573 23.86379368 27.267565 23.8671875 29.41796875 C23.86651307 30.92295853 23.86554189 32.42794821 23.86428833 33.93293762 C23.86281926 37.0756637 23.86494134 40.21836124 23.86962891 43.36108398 C23.87534051 47.38603313 23.87203316 51.4109158 23.86605644 55.43586254 C23.86244205 58.53880819 23.86359321 61.64173809 23.86618423 64.74468422 C23.86685031 66.22902751 23.86603627 67.71337224 23.86370468 69.19771385 C23.86116214 71.2701128 23.86504067 73.34240399 23.87060547 75.41479492 C23.87140106 76.59281174 23.87219666 77.77082855 23.87301636 78.98454285 C23.98040776 81.53474672 24.10524637 83.6173244 25 86 C27.08034294 87.1375213 27.08034294 87.1375213 29.5625 87.75 C30.80193359 88.11351563 30.80193359 88.11351563 32.06640625 88.484375 C32.70449219 88.65453125 33.34257813 88.8246875 34 89 C34 90.32 34 91.64 34 93 C22.78 93 11.56 93 0 93 C0 91.68 0 90.36 0 89 C0.56589844 88.80664062 1.13179687 88.61328125 1.71484375 88.4140625 C2.81505859 88.02347656 2.81505859 88.02347656 3.9375 87.625 C4.66839844 87.36976562 5.39929688 87.11453125 6.15234375 86.8515625 C8.18682116 86.14728587 8.18682116 86.14728587 9 84 C9.09793123 81.59975529 9.13633289 79.22858989 9.12939453 76.828125 C9.13114685 76.08977417 9.13289917 75.35142334 9.13470459 74.59069824 C9.13911512 72.1437751 9.13618792 69.69692391 9.1328125 67.25 C9.13348577 65.5537108 9.13445599 63.85742169 9.13571167 62.16113281 C9.13718756 58.60350629 9.13503757 55.04590486 9.13037109 51.48828125 C9.12467387 46.92154952 9.12795345 42.35487655 9.13394356 37.78814697 C9.1375521 34.28466344 9.13640923 30.78119391 9.13381577 27.27770996 C9.13314731 25.59354648 9.13397209 23.90938174 9.13629532 22.22521973 C9.13882662 19.87407043 9.13497447 17.52301713 9.12939453 15.171875 C9.13243088 14.12138977 9.13243088 14.12138977 9.13552856 13.04968262 C9.16399683 9.40185809 9.16399683 9.40185809 8 6 C5.88672575 5.09274566 5.88672575 5.09274566 3.4375 4.375 C2.19806641 3.98441406 2.19806641 3.98441406 0.93359375 3.5859375 C0.29550781 3.39257812 -0.34257813 3.19921875 -1 3 C-0.67 2.01 -0.34 1.02 0 0 Z " fill="#FDFDFD" transform="translate(577,18)"/>
<path d="M0 0 C0.29656494 0.81452637 0.59312988 1.62905273 0.89868164 2.46826172 C8.15619027 22.46145907 8.15619027 22.46145907 15.78076172 42.31640625 C17.67563414 47.10638382 19.40069121 51.93317962 20.98046875 56.8359375 C22.90179411 60.91415302 25.92063558 63.25170096 30 65 C30 65.99 30 66.98 30 68 C21.42 68 12.84 68 4 68 C3.67 66.68 3.34 65.36 3 64 C5.31 63.67 7.62 63.34 10 63 C9.72285156 62.13117188 9.44570313 61.26234375 9.16015625 60.3671875 C8.61681641 58.63855469 8.61681641 58.63855469 8.0625 56.875 C7.70285156 55.73804688 7.34320313 54.60109375 6.97265625 53.4296875 C6.08101661 50.28567301 5.46648986 47.23105607 5 44 C4.01 44.33 3.02 44.66 2 45 C0.59175107 45.08021999 -0.81997231 45.10765977 -2.23046875 45.09765625 C-3.03291016 45.09443359 -3.83535156 45.09121094 -4.66210938 45.08789062 C-5.49548828 45.07951172 -6.32886719 45.07113281 -7.1875 45.0625 C-8.4549707 45.05573242 -8.4549707 45.05573242 -9.74804688 45.04882812 C-11.83206155 45.03705403 -13.91603977 45.0191189 -16 45 C-16.84442881 46.89091736 -17.67511587 48.78797515 -18.5 50.6875 C-18.9640625 51.74324219 -19.428125 52.79898438 -19.90625 53.88671875 C-20.94950801 56.85627816 -21.23065301 58.89195063 -21 62 C-19.02 62.99 -17.04 63.98 -15 65 C-15.33 65.99 -15.66 66.98 -16 68 C-22.6 68 -29.2 68 -36 68 C-36 66.68 -36 65.36 -36 64 C-35.0925 63.690625 -34.185 63.38125 -33.25 63.0625 C-26.39398613 58.71156812 -25.04239068 49.37124441 -22.49438477 42.00219727 C-20.17306818 35.33911894 -17.56937868 28.80537829 -14.90039062 22.27490234 C-13.33766869 18.43057628 -11.82745404 14.59549137 -10.51953125 10.65625 C-10.30111572 10.00164795 -10.0827002 9.3470459 -9.85766602 8.67260742 C-9.29128274 6.93886931 -8.74634299 5.19816653 -8.203125 3.45703125 C-7 1 -7 1 -5.046875 0.13671875 C-3.36770774 0.02456063 -1.68290883 0 0 0 Z M-7 15 C-7 15.66 -7 16.32 -7 17 C-6.34 17 -5.68 17 -5 17 C-5 16.34 -5 15.68 -5 15 C-5.66 15 -6.32 15 -7 15 Z M-8 18 C-9.17171756 21.28989086 -10.33651088 24.58219102 -11.5 27.875 C-11.83386719 28.81214844 -12.16773438 29.74929687 -12.51171875 30.71484375 C-12.98544922 32.05869141 -12.98544922 32.05869141 -13.46875 33.4296875 C-13.76201172 34.25710449 -14.05527344 35.08452148 -14.35742188 35.93701172 C-15.09912901 37.95812785 -15.09912901 37.95812785 -15 40 C-9.06 40 -3.12 40 3 40 C1.52311435 35.00671993 0.03520198 30.01863676 -1.5625 25.0625 C-1.79066406 24.35222656 -2.01882813 23.64195312 -2.25390625 22.91015625 C-3.02904455 20.72463806 -3.02904455 20.72463806 -5 18 C-5.99 18 -6.98 18 -8 18 Z " fill="#FDFDFD" transform="translate(431,139)"/>
<path d="M0 0 C18.48 0 36.96 0 56 0 C56.95891957 3.83567829 57.10177189 6.82281141 57.0625 10.75 C57.05347656 11.92046875 57.04445313 13.0909375 57.03515625 14.296875 C57.02355469 15.18890625 57.01195312 16.0809375 57 17 C56.01 17.33 55.02 17.66 54 18 C53.67386719 17.30132812 53.34773438 16.60265625 53.01171875 15.8828125 C52.57472656 14.97273437 52.13773437 14.06265625 51.6875 13.125 C51.25824219 12.22007812 50.82898438 11.31515625 50.38671875 10.3828125 C49.0800612 7.73550524 49.0800612 7.73550524 46 6 C43.32802965 5.57885802 43.32802965 5.57885802 40.4375 5.4375 C35.19236641 5.09618321 35.19236641 5.09618321 33 4 C33.06680715 11.79653825 33.15653635 19.59256738 33.26245117 27.38867188 C33.29577133 30.04258171 33.32378085 32.69656363 33.34643555 35.35058594 C33.37985092 39.15851659 33.43216085 42.96578238 33.48828125 46.7734375 C33.49467117 47.96617279 33.5010611 49.15890808 33.50764465 50.38778687 C33.53733589 52.03927231 33.53733589 52.03927231 33.56762695 53.72412109 C33.58428154 55.1830629 33.58428154 55.1830629 33.60127258 56.67147827 C33.73285263 57.43989044 33.86443268 58.20830261 34 59 C36.91765 60.9451 38.62537285 61.45276317 42 62 C42 63.32 42 64.64 42 66 C32.76 66 23.52 66 14 66 C14 64.68 14 63.36 14 62 C16.31 61.34 18.62 60.68 21 60 C21 41.85 21 23.7 21 5 C9.47956318 4.6591805 9.47956318 4.6591805 5 10 C4.11753997 12.09989111 4.11753997 12.09989111 3.75 14.25 C3.5025 15.4875 3.255 16.725 3 18 C1.68 18 0.36 18 -1 18 C-1.02746229 16.31259486 -1.04660111 14.6250537 -1.0625 12.9375 C-1.07410156 11.99777344 -1.08570313 11.05804688 -1.09765625 10.08984375 C-0.99078405 6.70840748 -0.47844609 3.34912261 0 0 Z " fill="#FDFDFD" transform="translate(458,141)"/>
<path d="M0 0 C1.06701141 -0.00571014 2.13402283 -0.01142029 3.23336792 -0.01730347 C4.40900803 -0.01842133 5.58464813 -0.01953918 6.7959137 -0.02069092 C8.64717865 -0.02813828 8.64717865 -0.02813828 10.5358429 -0.03573608 C13.92632945 -0.04785722 17.31675423 -0.0553059 20.70725513 -0.05974674 C22.82427981 -0.06267607 24.94129905 -0.06678058 27.058321 -0.07125092 C33.67859225 -0.08492622 40.29885111 -0.09459318 46.91913551 -0.09845281 C54.56790173 -0.10293628 62.21648948 -0.12049731 69.86520141 -0.1494534 C75.77352372 -0.17104657 81.68179573 -0.18115579 87.59015709 -0.18249393 C91.12094958 -0.1835435 94.65157432 -0.18948354 98.18232536 -0.20731354 C102.11868469 -0.22680519 106.05481965 -0.2225147 109.9912262 -0.21600342 C111.16484207 -0.2252182 112.33845795 -0.23443298 113.54763794 -0.243927 C114.61746918 -0.23835785 115.68730042 -0.2327887 116.78955078 -0.22705078 C117.72072944 -0.22851734 118.65190809 -0.2299839 119.61130428 -0.2314949 C121.95826721 0.14044189 121.95826721 0.14044189 123.79303074 1.53059769 C124.95826721 3.14044189 124.95826721 3.14044189 124.77076721 5.26544189 C123.95826721 7.14044189 123.95826721 7.14044189 121.95826721 8.14044189 C120.29482511 8.23758399 118.62750081 8.27112644 116.96122742 8.27415466 C115.90407532 8.27841965 114.84692322 8.28268463 113.75773621 8.28707886 C112.01065872 8.28639908 112.01065872 8.28639908 110.22828674 8.28570557 C108.39406158 8.29074348 108.39406158 8.29074348 106.52278137 8.29588318 C103.16321531 8.3037714 99.80371104 8.3070617 96.44413996 8.30769897 C93.64096363 8.30864757 90.83779325 8.31232536 88.03461921 8.31587106 C81.4211121 8.32401942 74.80761861 8.32645498 68.19410706 8.32574463 C61.36971258 8.32514395 54.54539719 8.33569294 47.72102273 8.35148829 C41.86448898 8.36456099 36.00798109 8.36992863 30.15143287 8.36928922 C26.65250807 8.36903412 23.15365348 8.37189167 19.65474319 8.38246727 C15.75214291 8.39394044 11.84965116 8.38940306 7.94703674 8.38336182 C6.78636688 8.38898132 5.62569702 8.39460083 4.42985535 8.40039062 C3.3670636 8.39619614 2.30427185 8.39200165 1.20927429 8.38768005 C0.28639177 8.38822482 -0.63649075 8.38876959 -1.5873394 8.38933086 C-4.17656087 8.12676959 -5.81460513 7.45202068 -8.04173279 6.14044189 C-7.66673279 3.70294189 -7.66673279 3.70294189 -7.04173279 1.14044189 C-4.52976232 -0.11554334 -2.81213567 0.00898704 0 0 Z " fill="#FEFEFE" transform="translate(987.0417327880859,199.85955810546875)"/>
<path d="M0 0 C12.87 0.495 12.87 0.495 26 1 C26 1.99 26 2.98 26 4 C22.535 5.485 22.535 5.485 19 7 C19 25.15 19 43.3 19 62 C22.465 62.495 22.465 62.495 26 63 C26 64.32 26 65.64 26 67 C17.42 67 8.84 67 0 67 C0 65.68 0 64.36 0 63 C1.98 62.34 3.96 61.68 6 61 C6 42.85 6 24.7 6 6 C3.69 5.01 1.38 4.02 -1 3 C-0.67 2.01 -0.34 1.02 0 0 Z " fill="#FEFEFE" transform="translate(226,140)"/>
<path d="M0 0 C8.58 0 17.16 0 26 0 C26 0.99 26 1.98 26 3 C24.02 3.66 22.04 4.32 20 5 C20 23.15 20 41.3 20 60 C21.98 60.66 23.96 61.32 26 62 C26 63.32 26 64.64 26 66 C17.42 66 8.84 66 0 66 C0 64.68 0 63.36 0 62 C3.465 61.505 3.465 61.505 7 61 C7 42.85 7 24.7 7 6 C4.36 4.68 1.72 3.36 -1 2 C-0.67 1.34 -0.34 0.68 0 0 Z " fill="#FDFDFD" transform="translate(522,141)"/>
<path d="M0 0 C1.07636719 0.04833984 2.15273437 0.09667969 3.26171875 0.14648438 C4.38964844 0.20255859 5.51757812 0.25863281 6.6796875 0.31640625 C7.81535156 0.36861328 8.95101563 0.42082031 10.12109375 0.47460938 C12.93255381 0.60455081 15.74368215 0.73952539 18.5546875 0.87890625 C18.5546875 1.86890625 18.5546875 2.85890625 18.5546875 3.87890625 C17.5853125 4.12640625 16.6159375 4.37390625 15.6171875 4.62890625 C14.6065625 5.04140625 13.5959375 5.45390625 12.5546875 5.87890625 C11.45479538 8.75058206 11.42827432 11.53364568 11.42529297 14.58398438 C11.42214081 15.51174683 11.41898865 16.43950928 11.41574097 17.39538574 C11.4177652 18.39026001 11.41978943 19.38513428 11.421875 20.41015625 C11.42091827 21.43822388 11.41996155 22.4662915 11.41897583 23.5255127 C11.41829582 25.69751039 11.42013764 27.86951013 11.42431641 30.04150391 C11.42966714 33.36625737 11.42436534 36.69087574 11.41796875 40.015625 C11.41862956 42.12630238 11.41991079 44.23697968 11.421875 46.34765625 C11.41985077 47.34253052 11.41782654 48.33740479 11.41574097 49.36242676 C11.41889313 50.29018921 11.42204529 51.21795166 11.42529297 52.17382812 C11.42608856 52.98783081 11.42688416 53.8018335 11.42770386 54.64050293 C11.55604855 56.90289815 11.74275046 58.75904382 12.5546875 60.87890625 C15.55084696 62.18347185 15.55084696 62.18347185 18.5546875 62.87890625 C18.5546875 64.19890625 18.5546875 65.51890625 18.5546875 66.87890625 C10.3046875 66.87890625 2.0546875 66.87890625 -6.4453125 66.87890625 C-6.7753125 65.55890625 -7.1053125 64.23890625 -7.4453125 62.87890625 C-5.1353125 61.88890625 -2.8253125 60.89890625 -0.4453125 59.87890625 C-0.4453125 42.38890625 -0.4453125 24.89890625 -0.4453125 6.87890625 C-3.9103125 4.89890625 -3.9103125 4.89890625 -7.4453125 2.87890625 C-7.4453125 2.21890625 -7.4453125 1.55890625 -7.4453125 0.87890625 C-4.79709238 -0.44520381 -2.95593056 -0.14001776 0 0 Z " fill="#FDFDFD" transform="translate(11.4453125,140.12109375)"/>
<path d="M0 0 C0.66 0.66 1.32 1.32 2 2 C1.34 2 0.68 2 0 2 C0 1.34 0 0.68 0 0 Z " fill="#FFFFFF" transform="translate(200,18)"/>
<path d="M0 0 C2 1 2 1 2 1 Z " fill="#FFFFFF" transform="translate(857,185)"/>
<path d="" fill="#FFFFFF" transform="translate(0,0)"/>
<path d="" fill="#FFFFFF" transform="translate(0,0)"/>
<path d="" fill="#FFFFFF" transform="translate(0,0)"/>
<path d="" fill="#FFFFFF" transform="translate(0,0)"/>
<path d="" fill="#FFFFFF" transform="translate(0,0)"/>
<path d="" fill="#FFFFFF" transform="translate(0,0)"/>
<path d="" fill="#FFFFFF" transform="translate(0,0)"/>
<path d="" fill="#FFFFFF" transform="translate(0,0)"/>
<path d="" fill="#FFFFFF" transform="translate(0,0)"/>
<path d="" fill="#FFFFFF" transform="translate(0,0)"/>
</svg>
