<?xml version="1.0" standalone="no"?> <!DOCTYPE svg PUBLIC "-//W3C//DTD SVG 20010904//EN" "http://www.w3.org/TR/2001/REC-SVG-20010904/DTD/svg10.dtd"> <svg version="1.0" xmlns="http://www.w3.org/2000/svg" width="204.000000pt" height="38.000000pt" viewBox="0 0 204.000000 38.000000" preserveAspectRatio="xMidYMid meet"> <g transform="translate(0.000000,38.000000) scale(0.100000,-0.100000)" fill="#ffffff" stroke="none"> <path d="M10 348 c-1 -2 -2 -38 -3 -81 -2 -66 0 -77 15 -77 14 0 16 8 11 55 -3 30 -4 55 -2 55 3 0 22 -25 44 -55 40 -55 54 -66 56 -42 9 150 10 147 -12 147 -16 0 -19 -4 -15 -17 12 -31 17 -83 8 -83 -5 0 -21 18 -36 40 -21 32 -65 70 -66 58z"/> <path d="M165 330 c8 -26 8 -104 0 -123 -7 -16 -2 -18 51 -15 52 3 59 5 62 26 4 25 -13 30 -22 7 -3 -8 -17 -15 -31 -15 -20 0 -25 5 -25 26 0 23 3 25 25 20 22 -6 25 -3 25 21 0 21 -3 24 -12 15 -20 -20 -38 -14 -38 13 0 20 5 25 25 25 15 0 28 -7 32 -16 6 -15 7 -15 19 1 13 17 14 17 19 -1 4 -10 13 -34 21 -52 8 -18 14 -42 14 -52 0 -35 29 -22 36 15 8 43 25 41 36 -3 5 -18 12 -32 17 -32 5 0 19 26 31 58 13 31 29 64 37 73 15 18 8 29 -18 29 -13 0 -17 -8 -17 -28 1 -15 -6 -41 -15 -57 l-15 -30 -11 42 c-6 23 -10 47 -9 53 2 7 -7 14 -19 16 -24 4 -29 -7 -14 -34 6 -11 4 -28 -4 -47 l-13 -30 -11 28 c-6 16 -11 42 -11 58 0 31 -10 35 -40 19 -13 -7 -21 -7 -25 0 -3 5 -28 9 -56 8 -39 -2 -48 -6 -44 -18z"/> <path d="M545 270 c0 -77 1 -80 24 -80 21 0 23 3 17 35 -7 35 -7 35 30 35 36 0 37 0 31 -35 -5 -31 -3 -35 16 -35 21 0 22 4 22 79 0 74 -1 79 -22 79 -19 0 -21 -5 -16 -34 6 -33 5 -34 -31 -34 -36 0 -37 1 -34 33 2 26 -1 33 -17 35 -19 3 -20 -3 -20 -78z"/> <path d="M730 325 c-32 -34 -33 -91 -1 -116 53 -43 121 -10 121 59 0 43 -6 55 -37 71 -34 17 -57 13 -83 -14z m74 -11 c35 -35 27 -104 -12 -104 -33 0 -54 24 -55 64 -1 52 34 73 67 40z"/> <path d="M875 270 c0 -77 1 -80 24 -80 20 0 22 4 17 24 -9 37 11 41 29 6 9 -18 23 -30 35 -30 25 0 25 12 0 35 l-20 18 21 20 c11 10 18 26 15 34 -3 8 -6 18 -6 23 0 11 -24 19 -74 25 l-41 5 0 -80z m69 54 c10 -4 16 -18 16 -35 0 -24 -4 -29 -25 -29 -22 0 -25 4 -25 35 0 35 5 40 34 29z"/> <path d="M1016 343 c-3 -4 -1 -12 5 -20 8 -8 10 -36 6 -73 -4 -52 -3 -60 12 -60 14 0 17 12 18 78 2 69 0 78 -17 79 -10 1 -21 -1 -24 -4z"/> <path d="M1086 334 c-9 -24 3 -36 20 -19 9 8 24 15 35 15 19 0 19 -1 2 -27 -9 -16 -28 -42 -41 -60 -13 -18 -21 -37 -17 -43 10 -17 105 -13 112 5 8 22 -4 30 -21 16 -8 -7 -25 -11 -36 -9 l-22 3 20 25 c17 22 62 96 62 103 0 1 -24 3 -54 5 -42 2 -55 -1 -60 -14z"/> <path d="M1236 325 c-51 -47 -19 -135 49 -135 67 0 99 87 50 135 -31 32 -65 32 -99 0z m74 -15 c35 -35 21 -100 -21 -100 -38 0 -63 75 -34 103 21 22 31 21 55 -3z"/> <path d="M1385 270 c-1 -70 2 -80 17 -80 14 0 17 6 13 25 -3 14 -7 36 -10 49 -9 43 8 36 48 -19 21 -30 43 -55 48 -55 5 0 9 29 9 64 0 35 3 71 6 80 4 12 0 16 -16 16 -15 0 -20 -5 -17 -14 13 -34 19 -86 9 -86 -5 0 -27 23 -48 50 -21 28 -43 50 -49 50 -6 0 -10 -31 -10 -80z"/> <path d="M1558 336 c-21 -15 -24 -49 -5 -63 6 -6 24 -13 40 -17 18 -4 27 -13 27 -26 0 -24 -27 -26 -58 -4 -21 14 -22 14 -22 -10 0 -24 3 -26 45 -26 34 0 47 5 55 19 18 35 11 52 -30 69 -24 10 -39 23 -38 31 4 21 24 24 41 6 21 -21 27 -19 27 8 0 19 -6 23 -32 25 -18 1 -41 -4 -50 -12z"/> <path d="M1853 300 c5 -21 3 -28 -7 -24 -7 3 -25 0 -40 -5 -21 -9 -28 -8 -32 4 -4 8 -11 15 -16 15 -6 0 -8 -7 -4 -15 3 -8 -3 -40 -14 -72 -10 -31 -16 -61 -14 -65 7 -10 81 -10 88 0 2 4 -2 29 -11 56 -17 51 -11 65 30 66 14 0 17 -10 17 -69 0 -38 3 -76 6 -85 4 -11 1 -16 -10 -16 -9 0 -16 -5 -16 -11 0 -6 -7 -9 -15 -6 -8 4 -17 2 -20 -3 -4 -6 -17 -10 -31 -10 -13 0 -24 -3 -24 -7 0 -9 239 -8 248 1 3 3 -9 6 -26 6 -18 0 -32 5 -32 11 0 6 -7 9 -15 5 -8 -3 -15 -1 -15 4 0 6 -7 10 -15 10 -12 0 -15 16 -15 85 0 92 2 95 54 75 23 -8 26 -15 26 -54 0 -40 -2 -44 -21 -39 -16 4 -20 2 -17 -8 5 -16 66 -25 78 -12 10 9 -21 153 -32 153 -5 0 -8 -4 -8 -10 0 -5 -18 -9 -39 -7 -37 2 -39 4 -34 30 4 21 2 27 -12 27 -14 0 -16 -6 -12 -30z m-80 -72 c-5 -7 -6 -24 -2 -38 7 -24 7 -24 9 5 l2 30 8 -29 c11 -37 7 -44 -25 -39 -21 5 -24 9 -19 32 9 35 24 64 31 57 3 -3 1 -11 -4 -18z m198 -71 c-8 -8 -11 2 -10 38 l1 50 10 -38 c7 -28 7 -42 -1 -50z"/> <path d="M1926 209 c-8 -42 0 -50 9 -9 4 17 5 34 2 36 -2 3 -7 -10 -11 -27z"/> <path d="M67 106 c3 -23 0 -53 -6 -65 -10 -18 -9 -21 6 -21 16 0 18 7 15 42 -5 46 7 45 23 -3 14 -39 27 -38 48 5 22 47 31 46 24 -4 -4 -33 -2 -40 11 -40 15 0 16 10 14 66 -4 76 -16 79 -48 13 l-22 -44 -21 48 c-27 62 -50 64 -44 3z"/> <path d="M230 148 c-1 -2 -2 -31 -3 -66 -2 -50 1 -62 13 -62 12 0 15 10 13 42 l-3 43 15 -40 c8 -22 15 -41 15 -42 0 -2 4 -3 9 -3 5 0 15 16 22 35 7 19 17 35 22 35 5 0 6 -16 3 -35 -6 -29 -4 -35 11 -35 16 0 18 8 16 62 -1 35 -4 62 -7 61 -19 -5 -25 -12 -43 -47 l-20 -40 -21 47 c-12 26 -26 47 -31 47 -6 0 -11 -1 -11 -2z"/> <path d="M390 83 c0 -57 2 -63 20 -63 16 0 19 4 12 18 -5 9 -7 38 -5 63 2 35 0 46 -12 46 -12 0 -15 -14 -15 -64z"/> <path d="M463 135 c-23 -16 -31 -67 -15 -91 8 -12 46 -34 59 -34 15 1 40 25 47 46 5 16 2 23 -14 27 -17 4 -19 2 -14 -20 6 -22 4 -24 -22 -21 -27 3 -29 6 -29 43 0 47 24 58 57 28 20 -18 20 -17 17 7 -3 20 -11 26 -34 28 -16 1 -40 -4 -52 -13z"/> <path d="M603 142 c-21 -3 -23 -9 -23 -63 0 -51 3 -59 19 -59 14 0 17 6 13 26 -4 20 -1 25 9 22 8 -3 15 -14 17 -26 3 -18 10 -22 42 -22 29 0 39 4 43 20 3 11 13 20 22 20 9 0 19 -9 22 -20 3 -11 14 -20 25 -20 11 0 18 4 16 8 -2 4 -12 31 -22 60 -11 29 -24 52 -28 52 -4 0 -10 0 -13 0 -3 0 -5 -2 -5 -5 -1 -11 -33 -81 -42 -93 -20 -24 -38 6 -32 53 6 39 4 43 -17 46 -13 3 -34 3 -46 1z m41 -28 c8 -20 -1 -34 -20 -34 -8 0 -14 10 -14 25 0 28 24 34 34 9z m116 -29 c0 -8 -7 -15 -15 -15 -9 0 -12 6 -9 15 4 8 10 15 15 15 5 0 9 -7 9 -15z"/> <path d="M800 127 c0 -16 3 -18 12 -9 23 23 30 12 26 -43 -3 -50 -1 -55 17 -55 18 0 20 5 17 55 -3 35 0 55 7 55 6 0 11 -4 11 -10 0 -5 5 -10 10 -10 11 0 14 29 3 31 -5 1 -29 3 -55 4 -43 2 -48 0 -48 -18z"/> <path d="M940 142 c-10 -5 -16 -25 -17 -65 -2 -48 1 -57 15 -57 14 0 17 11 17 65 0 36 0 65 0 64 0 0 -7 -3 -15 -7z"/> <path d="M997 133 c-27 -30 -22 -87 8 -107 44 -29 95 2 95 57 0 44 -11 57 -51 63 -26 4 -38 1 -52 -13z m69 -28 c31 -47 -14 -97 -48 -55 -21 26 -23 51 -6 68 18 18 36 14 54 -13z"/> <path d="M1125 140 c-4 -6 -4 -14 -1 -19 3 -5 2 -30 -3 -55 -7 -41 -6 -46 9 -46 15 0 17 6 13 40 -7 50 4 50 39 0 15 -22 32 -40 38 -40 5 0 10 22 10 49 0 27 3 56 6 65 4 10 1 16 -9 16 -11 0 -17 -12 -19 -42 l-3 -42 -25 37 c-27 39 -46 52 -55 37z"/> <path d="M1309 148 c0 -2 -1 -31 -2 -66 l-2 -62 43 0 c29 0 44 5 49 15 8 24 -4 30 -23 11 -28 -29 -39 -14 -36 47 3 47 1 57 -12 57 -9 0 -16 -1 -17 -2z"/> <path d="M1428 84 c-21 -50 -24 -64 -12 -64 8 0 14 7 14 15 0 8 7 15 15 15 8 0 15 5 15 10 0 6 -4 10 -10 10 -5 0 -7 7 -4 15 9 23 24 18 24 -9 0 -14 5 -28 10 -31 6 -4 8 -11 5 -16 -4 -5 3 -9 14 -9 12 0 21 1 21 3 0 1 -7 20 -16 42 -8 22 -17 48 -20 57 -12 36 -30 24 -56 -38z"/> <path d="M1500 141 c0 -6 4 -12 9 -16 5 -3 17 -28 26 -55 19 -57 31 -63 40 -20 8 39 21 38 29 -1 7 -39 28 -34 37 9 3 17 13 42 22 56 16 25 13 36 -10 36 -8 0 -13 -12 -13 -33 0 -49 -13 -54 -26 -10 -12 44 -49 63 -38 20 3 -14 1 -34 -4 -44 -10 -16 -12 -15 -21 10 -6 16 -11 35 -11 43 0 8 -9 14 -20 14 -11 0 -20 -4 -20 -9z"/> <path d="M8 80 c-3 -52 -1 -60 15 -60 14 0 17 10 17 60 0 45 -4 60 -14 60 -10 0 -15 -17 -18 -60z"/> </g> </svg>